<?xml version="1.0" encoding="UTF-8" standalone="no"?>
<!-- Created with Inkscape (http://www.inkscape.org/) -->

<svg
   xmlns:dc="http://purl.org/dc/elements/1.1/"
   xmlns:cc="http://creativecommons.org/ns#"
   xmlns:rdf="http://www.w3.org/1999/02/22-rdf-syntax-ns#"
   xmlns:svg="http://www.w3.org/2000/svg"
   xmlns="http://www.w3.org/2000/svg"
   xmlns:sodipodi="http://sodipodi.sourceforge.net/DTD/sodipodi-0.dtd"
   xmlns:inkscape="http://www.inkscape.org/namespaces/inkscape"
   width="7.6729202mm"
   height="8.0570402mm"
   viewBox="0 0 7.6729202 8.0570402"
   version="1.1"
   id="svg4828"
   inkscape:version="0.92.5 (2060ec1f9f, 2020-04-08)"
   sodipodi:docname="green.svg">
  <defs
     id="defs4822" />
  <sodipodi:namedview
     id="base"
     pagecolor="#ffffff"
     bordercolor="#666666"
     borderopacity="1.0"
     inkscape:pageopacity="0.0"
     inkscape:pageshadow="2"
     inkscape:zoom="32"
     inkscape:cx="8.9484987"
     inkscape:cy="17.80022"
     inkscape:document-units="mm"
     inkscape:current-layer="layer1"
     showgrid="false"
     fit-margin-top="0"
     fit-margin-left="0"
     fit-margin-right="0"
     fit-margin-bottom="0"
     showguides="false"
     inkscape:window-width="1920"
     inkscape:window-height="1136"
     inkscape:window-x="0"
     inkscape:window-y="27"
     inkscape:window-maximized="1" />
  <metadata
     id="metadata4825">
    <rdf:RDF>
      <cc:Work
         rdf:about="">
        <dc:format>image/svg+xml</dc:format>
        <dc:type
           rdf:resource="http://purl.org/dc/dcmitype/StillImage" />
        <dc:title></dc:title>
      </cc:Work>
    </rdf:RDF>
  </metadata>
  <g
     inkscape:label="Layer 1"
     inkscape:groupmode="layer"
     id="layer1"
     transform="translate(-31.693312,-115.21235)">
    <path
       style="fill:#00ff00;fill-opacity:1;stroke-width:0.99999994"
       d="M 0,-0.02252559 C 0,0.28864291 1.9526732,3.8859551 2.5220589,4.9498163 14.5,5 3.2346648,5 14.5,5 25.765373,5 15.660069,4.9846759 26.577068,4.9498163 27.146416,3.8859551 29,0.28852953 29,-0.02252559 c -10.377545,-0.0053962 -18.381793,0.02456255 -29,0 z M 17.720542,17.384582 C 13.523086,17.582605 12.73264,17.094967 8.1699219,17.5 l 3.0429691,6.476562 3.042968,6.47461 5.320313,-10.47461 C 22.502849,14.214788 24.985262,8.4749976 25.011719,8.0625 14.358272,8.0364287 14.571399,8.0612541 3.875,8.0664062 3.875,8.377537 5.9970584,11.940083 6.5664062,13.003906 17,13.064453 7.3789062,12.972656 18,13.126953"
       id="path5024"
       inkscape:connector-curvature="0"
       sodipodi:nodetypes="ccscccccccccccc"
       transform="matrix(0.26458333,0,0,0.26458333,31.693312,115.21235)" />
  </g>
</svg>
