<?xml version="1.0" encoding="UTF-8" standalone="no"?>
<!-- Created with Inkscape (http://www.inkscape.org/) -->

<svg
   xmlns:dc="http://purl.org/dc/elements/1.1/"
   xmlns:cc="http://creativecommons.org/ns#"
   xmlns:rdf="http://www.w3.org/1999/02/22-rdf-syntax-ns#"
   xmlns:svg="http://www.w3.org/2000/svg"
   xmlns="http://www.w3.org/2000/svg"
   xmlns:sodipodi="http://sodipodi.sourceforge.net/DTD/sodipodi-0.dtd"
   xmlns:inkscape="http://www.inkscape.org/namespaces/inkscape"
   width="12.181422mm"
   height="16.139275mm"
   viewBox="0 0 12.181422 16.139275"
   version="1.1"
   id="svg5659"
   inkscape:version="0.92.5 (2060ec1f9f, 2020-04-08)"
   sodipodi:docname="wing.svg">
  <defs
     id="defs5653" />
  <sodipodi:namedview
     id="base"
     pagecolor="#ffffff"
     bordercolor="#666666"
     borderopacity="1.0"
     inkscape:pageopacity="0.0"
     inkscape:pageshadow="2"
     inkscape:zoom="13.171428"
     inkscape:cx="28.536128"
     inkscape:cy="31.048718"
     inkscape:document-units="mm"
     inkscape:current-layer="layer1"
     showgrid="false"
     inkscape:snap-smooth-nodes="false"
     fit-margin-top="0"
     fit-margin-left="0"
     fit-margin-right="0"
     fit-margin-bottom="0"
     inkscape:window-width="1920"
     inkscape:window-height="1136"
     inkscape:window-x="0"
     inkscape:window-y="27"
     inkscape:window-maximized="1" />
  <metadata
     id="metadata5656">
    <rdf:RDF>
      <cc:Work
         rdf:about="">
        <dc:format>image/svg+xml</dc:format>
        <dc:type
           rdf:resource="http://purl.org/dc/dcmitype/StillImage" />
        <dc:title></dc:title>
      </cc:Work>
    </rdf:RDF>
  </metadata>
  <g
     inkscape:label="Layer 1"
     inkscape:groupmode="layer"
     id="layer1"
     transform="translate(-194.32679,-188.98166)">
    <path
       style="fill:#000000;stroke-width:0.26458335"
       d="m 194.8256,204.87654 c -0.7533,-0.43875 -0.62851,-2.47076 0.20657,-3.36379 0.36828,-0.39383 1.08266,-1.4643 1.5875,-2.37881 0.81566,-1.47753 0.91791,-1.88148 0.91791,-3.62627 0,-1.59094 0.11296,-2.13574 0.59531,-2.87111 0.32742,-0.49918 0.79814,-1.27837 1.04603,-1.73154 0.27733,-0.50698 0.65902,-0.82395 0.99219,-0.82395 0.75486,0 0.69005,0.27369 -0.51435,2.17217 -1.02292,1.61242 -1.0559,1.73631 -1.05833,3.97541 -0.002,2.10258 -0.0741,2.42754 -0.79627,3.60114 -0.85903,1.39611 -0.9345,1.62836 -0.52916,1.62836 0.14552,0 0.26458,-0.18096 0.26458,-0.40213 0,-0.22118 0.29766,-0.87365 0.66146,-1.44995 0.57385,-0.90904 0.66146,-1.35102 0.66146,-3.33695 0,-1.89533 0.10047,-2.45382 0.58404,-3.24641 0.32122,-0.5265 0.67702,-0.99649 0.79067,-1.04444 0.11364,-0.0479 0.42678,-0.58372 0.69587,-1.19062 0.76803,-1.73222 1.03913,-1.85597 3.93086,-1.7942 1.56071,0.0333 1.82749,0.38382 1.5239,2.00209 -0.15992,0.8524 -0.25654,0.93761 -1.06319,0.93761 -1.055,0 -1.48646,1.25015 -1.46141,1.89027 0.025,0.64013 -0.0609,0.47685 0.0278,0.71009 0.0557,0.14643 0.17882,0.16458 0.22867,0.0171 0.0733,-0.21705 -0.0517,0.19041 -0.008,-0.70487 0.0438,-0.89528 0.9598,-1.61901 1.86096,-1.13672 0.71063,0.38032 0.7166,1.1937 0.0183,2.49657 -0.7027,1.3111 -1.28075,1.90453 -2.10149,2.15739 -0.6667,0.2054 -3.19754,2.77892 -4.58695,4.66431 -0.41277,0.56011 -0.96832,1.01839 -1.23454,1.01839 -0.26622,0 -0.86124,0.47625 -1.32226,1.05833 -0.87652,1.1067 -1.15322,1.21814 -1.91823,0.77256 z m 7.59085,-7.17837 c 0.13297,-0.12555 0.30832,-0.38326 0.36509,-0.4464 0.0568,-0.0632 0.19355,-0.67446 0.20757,-0.82726 0.0496,-0.5404 -0.62014,-1.49041 -1.53709,-1.48065 -0.74045,0.008 -1.33546,0.35297 -1.44492,1.05871 -0.12744,0.82171 -0.0846,1.3411 0.77735,1.76604 0.61739,0.37358 1.23117,0.30944 1.632,-0.0704 z"
       id="path5858"
       inkscape:connector-curvature="0"
       sodipodi:nodetypes="cccsccscccsscscccccszsszscccsccccsssscc" />
    <path
       style="fill:#000000;fill-opacity:1;stroke:none;stroke-width:0.26499999;stroke-linecap:butt;stroke-linejoin:miter;stroke-miterlimit:4;stroke-dasharray:none;stroke-opacity:1"
       d="m 201.67019,195.26598 c -0.33282,-0.0733 -0.74601,-0.0314 -1.0044,0.19084 -0.34441,0.29617 -0.58301,0.85067 -0.45196,1.2856 0.14895,0.49431 0.72203,0.8795 1.23539,0.93408 0.37087,0.0394 0.79432,-0.17098 1.01443,-0.47206 0.24899,-0.3406 0.32928,-0.86873 0.16067,-1.25548 -0.15632,-0.35854 -0.57216,-0.59886 -0.95413,-0.68298 z"
       id="path5862"
       inkscape:connector-curvature="0"
       sodipodi:nodetypes="sssssss" />
  </g>
</svg>
