<?xml version="1.0" encoding="UTF-8" standalone="no"?>
<!-- Created with Inkscape (http://www.inkscape.org/) -->

<svg
   xmlns:dc="http://purl.org/dc/elements/1.1/"
   xmlns:cc="http://creativecommons.org/ns#"
   xmlns:rdf="http://www.w3.org/1999/02/22-rdf-syntax-ns#"
   xmlns:svg="http://www.w3.org/2000/svg"
   xmlns="http://www.w3.org/2000/svg"
   xmlns:sodipodi="http://sodipodi.sourceforge.net/DTD/sodipodi-0.dtd"
   xmlns:inkscape="http://www.inkscape.org/namespaces/inkscape"
   width="511.99997"
   height="512.00006"
   viewBox="0 0 135.46666 135.46669"
   version="1.1"
   id="svg8"
   inkscape:version="0.92.5 (2060ec1f9f, 2020-04-08)"
   sodipodi:docname="boss.svg">
  <defs
     id="defs2" />
  <sodipodi:namedview
     id="base"
     pagecolor="#ffffff"
     bordercolor="#666666"
     borderopacity="1.0"
     inkscape:pageopacity="0.0"
     inkscape:pageshadow="2"
     inkscape:zoom="1.4"
     inkscape:cx="41.611045"
     inkscape:cy="72.683916"
     inkscape:document-units="px"
     inkscape:current-layer="layer1"
     showgrid="false"
     inkscape:window-width="1920"
     inkscape:window-height="1136"
     inkscape:window-x="0"
     inkscape:window-y="27"
     inkscape:window-maximized="1"
     fit-margin-top="0"
     fit-margin-left="0"
     fit-margin-right="0"
     fit-margin-bottom="0"
     units="px" />
  <metadata
     id="metadata5">
    <rdf:RDF>
      <cc:Work
         rdf:about="">
        <dc:format>image/svg+xml</dc:format>
        <dc:type
           rdf:resource="http://purl.org/dc/dcmitype/StillImage" />
        <dc:title></dc:title>
      </cc:Work>
    </rdf:RDF>
  </metadata>
  <g
     inkscape:label="Layer 1"
     inkscape:groupmode="layer"
     id="layer1"
     transform="translate(-7.5697803,-54.446323)">
    <path
       style="fill:#b30000;fill-opacity:1;stroke-width:0.333312"
       d="m 61.386731,188.86697 c -1.601041,-1.65424 -2.175859,-3.35146 -2.269585,-6.70126 -0.04547,-1.62333 -0.246824,-3.11573 -0.447543,-3.31648 -0.200723,-0.20066 -0.364953,-0.71977 -0.364953,-1.15347 0,-1.20483 -0.520938,-1.93239 -2.19026,-3.05901 -1.489858,-1.0055 -1.59185,-1.02489 -4.251156,-0.80802 -1.49856,0.12214 -3.249631,0.40228 -3.891253,0.62241 -1.243045,0.42647 -1.510544,0.39408 -3.333129,-0.40359 -1.326163,-0.58041 -2.999795,-2.0325 -2.999795,-2.60271 0,-0.20998 -0.637466,-0.88856 -1.416577,-1.50787 -0.779126,-0.61934 -2.121326,-1.78691 -2.982687,-2.59463 -0.861362,-0.80772 -1.9113,-1.64832 -2.333181,-1.86803 -0.421894,-0.21968 -1.404546,-0.822 -2.183659,-1.33851 -1.319322,-0.87463 -1.416577,-1.04261 -1.416577,-2.44659 0,-1.91087 1.18613,-3.56189 3.198424,-4.45203 1.417119,-0.62685 1.457807,-0.62668 2.869295,0.0127 0.78749,0.35672 1.77396,0.74729 2.19215,0.8679 1.117835,0.32241 2.336041,1.78663 2.909546,3.49711 0.489844,1.46099 3.491743,5.00348 4.239932,5.00348 1.09783,0 2.9102,-0.85352 3.280143,-1.54476 0.590222,-1.10285 3.330546,-2.78829 4.533429,-2.78829 0.760291,0 1.749835,0.6284 4.137223,2.62732 5.402639,4.52352 6.615425,7.57626 6.655245,16.75221 0.02432,5.6004 -0.100415,6.35124 -1.278647,7.70206 -0.746358,0.85566 -1.477549,0.71804 -2.656385,-0.49996 z m 25.177282,0.49996 c -1.178306,-1.35081 -1.302946,-2.10166 -1.278646,-7.70206 0.03981,-9.17592 1.252606,-12.22866 6.655247,-16.75221 2.387388,-1.99892 3.37693,-2.62732 4.137223,-2.62732 1.202883,0 3.943203,1.68544 4.533423,2.78829 0.36995,0.69124 2.18232,1.54476 3.28015,1.54476 0.74819,0 3.75008,-3.54249 4.23993,-5.00348 0.57351,-1.71048 1.7917,-3.1747 2.90953,-3.49711 0.41821,-0.12065 1.40467,-0.51118 2.19217,-0.8679 1.41148,-0.6394 1.45218,-0.63957 2.86929,-0.0127 2.0123,0.89014 3.19843,2.54116 3.19843,4.45203 0,1.40398 -0.0971,1.57196 -1.41658,2.44659 -0.77912,0.51651 -1.76176,1.11885 -2.18365,1.33852 -0.4219,0.21971 -1.47183,1.0603 -2.33319,1.86802 -0.86137,0.80772 -2.20357,1.97529 -2.9827,2.59463 -0.7791,0.61931 -1.41655,1.29787 -1.41655,1.50787 0,0.57021 -1.67365,2.0223 -2.99981,2.60272 -1.82259,0.79766 -2.09009,0.83005 -3.33313,0.40358 -0.64162,-0.22011 -2.39269,-0.50021 -3.891255,-0.62241 -2.659306,-0.21687 -2.761297,-0.19748 -4.251155,0.80804 -1.669323,1.1266 -2.190261,1.85416 -2.190261,3.05899 0,0.4337 -0.164211,0.95277 -0.364953,1.1535 -0.200724,0.20066 -0.402116,1.69312 -0.44754,3.31645 -0.09373,3.3498 -0.668547,5.04703 -2.269588,6.70126 -1.178835,1.218 -1.910027,1.35562 -2.656385,0.49996 z M 70.198491,166.58772 c -1.480095,-2.27107 -2.685597,-5.48902 -2.661234,-7.10385 0.03452,-2.29192 -1.718226,-5.87148 -3.76432,-7.68748 -1.146548,-1.01758 -1.592969,-1.70197 -1.839719,-2.82027 -0.298702,-1.35384 -0.228497,-1.67267 0.844116,-3.83309 0.643451,-1.29605 1.203462,-2.58144 1.244457,-2.85642 0.04106,-0.27497 -0.04081,-2.22485 -0.181928,-4.33305 -0.232806,-3.47933 -0.190246,-4.00996 0.461222,-5.74965 0.502835,-1.34275 0.894633,-1.91653 1.308717,-1.91653 1.348311,0 2.505844,2.59408 2.86408,6.41858 0.225361,2.40582 0.352192,2.73077 1.825445,4.6769 3.776041,4.98803 4.438057,7.28633 2.795227,9.70398 -0.855641,1.25919 -0.865216,1.33179 -0.416639,3.1605 0.996508,4.06254 0.334201,10.20378 -1.330878,12.34038 l -0.625488,0.80258 z m 8.814798,-0.39924 c -1.651672,-2.67246 -2.11518,-8.24524 -1.019614,-12.25895 0.393247,-1.44069 0.367837,-1.59337 -0.470583,-2.82721 -1.65436,-2.43461 -0.999321,-4.72089 2.784703,-9.71946 1.473253,-1.94613 1.600086,-2.27108 1.825445,-4.6769 0.358238,-3.8245 1.515771,-6.41858 2.864083,-6.41858 0.414083,0 0.805881,0.57378 1.308713,1.91653 0.651463,1.73969 0.694032,2.27032 0.461225,5.74965 -0.141055,2.1082 -0.222928,4.05808 -0.181928,4.33305 0.04094,0.27498 0.601007,1.56037 1.244457,2.85642 1.072613,2.16042 1.142818,2.47925 0.844116,3.83309 -0.24675,1.1183 -0.693174,1.80269 -1.839719,2.82027 -2.046875,1.81667 -3.798887,5.39547 -3.764293,7.6892 0.01926,1.27652 -0.277186,2.31411 -1.258792,4.40586 -1.647558,3.51089 -1.912951,3.72878 -2.797818,2.29703 z m -33.631365,-6.81963 c -0.538739,-0.68745 -1.038815,-1.39992 -1.111274,-1.58322 -0.07243,-0.18331 -0.640339,-1.03478 -1.26194,-1.89209 -1.571832,-2.16789 -4.325229,-3.42868 -7.455739,-3.41399 -2.156145,0.0106 -2.309183,0.0654 -3.560365,1.28718 l -1.307368,1.27661 -1.338396,-1.14561 c -0.736104,-0.63008 -2.144266,-1.39964 -3.129237,-1.71013 -1.533684,-0.48345 -2.251334,-1.04157 -4.997489,-3.88661 -3.854695,-3.99349 -4.010262,-4.55206 -2.464193,-8.84754 1.091218,-3.03174 1.080761,-2.88245 0.417396,-5.965 -0.489807,-2.27607 -0.486179,-2.31521 0.370533,-3.99973 0.885336,-1.74077 0.9386,-2.28691 0.669741,-6.86751 -0.14332,-2.44149 -0.892416,-4.11596 -2.74816,-6.14286 -1.668466,-1.82237 -2.240121,-3.32531 -2.073114,-5.45044 0.11375,-1.44754 0.338184,-1.96674 1.262207,-2.92009 2.527586,-2.60782 5.383138,-3.12818 8.152272,-1.4856 1.903929,1.12939 3.370859,1.29828 3.619083,0.41664 0.629401,-2.23541 0.59404,-2.68366 -0.260609,-3.30263 -0.466124,-0.33757 -1.462544,-1.17626 -2.21427,-1.86371 -0.751713,-0.68745 -1.500327,-1.24991 -1.663567,-1.24991 -0.163237,0 -0.511336,-0.41247 -0.773531,-0.916601 -0.262207,-0.504126 -1.986077,-2.041525 -3.830822,-3.416448 -3.16121,-2.356083 -3.366639,-2.582354 -3.572195,-3.934862 -0.210248,-1.383517 -0.159808,-1.493097 1.405757,-3.052445 0.893121,-0.88955 2.898762,-2.470087 4.456999,-3.51227 l 2.833155,-1.894882 2.729917,0.136737 c 2.658726,0.13335 2.768717,0.172508 4.217556,1.508082 0.949812,0.875517 1.710153,1.317837 2.103096,1.223476 0.414489,-0.09948 1.159714,0.405701 2.282037,1.54705 0.916601,0.932117 2.549453,2.546287 3.628554,3.58701 2.303587,2.221632 2.871023,3.380676 2.871023,5.864267 0,1.722988 0.07118,1.880087 1.249923,2.760536 0.687464,0.51346 1.44812,1.12105 1.690373,1.3502 0.290653,0.27495 1.550125,0.41664 3.703248,0.41664 2.97111,0 3.378693,0.0783 4.559229,0.87556 0.713039,0.48159 1.371428,0.97251 1.463088,1.09098 0.530272,0.68535 2.146847,1.36658 3.242966,1.36658 1.197353,0 1.368293,0.14118 3.129034,2.58318 2.625143,3.6409 3.32673,6.33635 2.678821,10.29189 -0.229867,1.40341 -0.223959,2.47802 0.01884,3.43471 0.521755,2.05554 0.03892,2.80247 -2.613528,4.04256 -2.047616,0.95733 -2.417117,1.02582 -4.393496,0.81416 -1.186821,-0.127 -2.891531,-0.22541 -3.788254,-0.21846 -1.255012,0.0106 -1.954898,-0.20638 -3.039692,-0.93847 -2.017647,-1.36172 -4.977408,-4.60576 -5.706205,-6.25431 -0.513038,-1.16052 -0.825535,-1.44835 -1.763517,-1.62431 -1.442075,-0.27055 -16.743862,0.0284 -17.471324,0.34125 -0.297845,0.12806 -0.780976,0.78656 -1.07362,1.46321 -0.565783,1.30819 -0.559585,5.46676 0.01778,11.95591 l 0.272222,3.05941 2.99574,3.03528 c 3.490144,3.53621 5.459292,4.70103 8.32224,4.92292 1.846445,0.14309 2.162807,0.0608 3.968929,-1.03382 1.079403,-0.65412 2.430119,-1.34362 3.001585,-1.53224 1.045363,-0.34499 2.317168,-2.03528 3.593433,-4.77579 0.793133,-1.70311 2.502429,-2.41524 7.068412,-2.9449 l 3.626739,-0.42068 0.9563,1.07027 c 0.525949,0.58864 0.955453,1.33039 0.954421,1.64831 -0.0038,1.15854 -0.708843,3.07935 -1.462559,3.98414 -0.424704,0.50982 -0.956085,1.49108 -1.180851,2.18057 -0.456234,1.39952 -1.770534,2.54332 -4.040447,3.51633 -0.835258,0.35803 -2.035019,1.22039 -2.666121,1.91632 -0.631116,0.69594 -1.865493,2.04644 -2.743071,3.00112 -0.877562,0.95466 -1.733404,2.21634 -1.901872,2.80372 -0.281419,0.98126 -0.189506,1.19405 1.132387,2.62123 0.791268,0.85429 1.623341,1.90653 1.849051,2.33833 0.782678,1.49722 -0.172783,3.71464 -1.600589,3.71464 -0.17998,0 -0.768003,-0.56244 -1.30674,-1.24991 z m 57.516616,0.89743 c -0.76481,-0.4459 -1.09766,-2.37315 -0.58065,-3.36216 0.22571,-0.4318 1.05778,-1.48404 1.84905,-2.33832 1.32189,-1.42719 1.41381,-1.63998 1.13238,-2.62124 -0.16847,-0.58738 -1.0243,-1.84906 -1.90186,-2.80372 -0.87758,-0.95468 -2.11196,-2.30517 -2.74307,-3.00111 -0.6311,-0.69594 -1.830866,-1.55829 -2.666126,-1.91633 -2.269914,-0.97301 -3.58421,-2.11681 -4.040447,-3.51633 -0.224766,-0.68948 -0.756148,-1.67075 -1.180849,-2.18057 -0.753718,-0.90479 -1.458843,-2.8256 -1.462561,-3.98414 -0.0011,-0.31792 0.428458,-1.05966 0.954424,-1.64831 l 0.956296,-1.07027 3.626742,0.42069 c 4.565981,0.52965 6.275281,1.24178 7.068411,2.94489 1.27626,2.74052 2.54806,4.4308 3.59343,4.7758 0.57147,0.18859 1.92219,0.87812 3.00158,1.53223 1.80613,1.09451 2.12249,1.17691 3.96894,1.03382 2.86294,-0.22189 4.8321,-1.38671 8.32223,-4.92292 l 2.99574,-3.03528 0.27222,-3.05941 c 0.57739,-6.48915 0.58359,-10.64772 0.0169,-11.9559 -0.29265,-0.67666 -0.77578,-1.33511 -1.07362,-1.46321 -0.72745,-0.31291 -16.02926,-0.6118 -17.47132,-0.34125 -0.93799,0.17589 -1.25048,0.46378 -1.76353,1.62431 -0.72878,1.64854 -3.68854,4.89259 -5.7062,6.2543 -1.084794,0.73212 -1.784681,0.94821 -3.039681,0.93847 -0.896737,-0.008 -2.601447,0.0912 -3.788267,0.21846 -1.976367,0.21167 -2.345878,0.14309 -4.393483,-0.81415 -2.652403,-1.2401 -3.135297,-1.98703 -2.613539,-4.04256 0.24283,-0.95669 0.24874,-2.0313 0.01884,-3.43472 -0.647909,-3.95554 0.05366,-6.65099 2.678821,-10.29189 1.760741,-2.44206 1.931681,-2.58318 3.129047,-2.58318 1.096106,0 2.712694,-0.68122 3.242953,-1.36658 0.09172,-0.11853 0.750052,-0.60939 1.463088,-1.09097 1.180536,-0.79727 1.588132,-0.87556 4.559231,-0.87556 2.15313,0 3.41259,-0.14161 3.70325,-0.41665 0.24225,-0.22915 1.00292,-0.83674 1.69037,-1.3502 1.17878,-0.880446 1.24992,-1.037545 1.24992,-2.760533 0,-2.48359 0.56744,-3.642635 2.87103,-5.864267 1.07909,-1.040723 2.71193,-2.654893 3.62853,-3.587009 1.12232,-1.141349 1.86756,-1.646555 2.28205,-1.547051 0.39296,0.0944 1.1533,-0.347958 2.1031,-1.223475 1.44883,-1.33549 1.55881,-1.374818 4.21756,-1.508083 l 2.72993,-0.136737 2.83314,1.894883 c 1.55824,1.042183 3.56389,2.622719 4.457,3.512269 1.56557,1.559349 1.61601,1.668929 1.40574,3.052445 -0.20553,1.352508 -0.41097,1.57878 -3.57217,3.934863 -1.84474,1.374923 -3.56862,2.912321 -3.83083,3.416448 -0.26219,0.504127 -0.61028,0.916597 -0.77354,0.916597 -0.16319,0 -0.91184,0.56247 -1.66355,1.24992 -0.75173,0.68745 -1.74815,1.52613 -2.21429,1.8637 -0.85464,0.61898 -0.88999,1.06722 -0.2606,3.30264 0.24822,0.88163 1.71516,0.71274 3.6191,-0.41665 2.76913,-1.64257 5.62468,-1.12221 8.15226,1.4856 0.92403,0.95335 1.14846,1.47255 1.26221,2.92009 0.167,2.12514 -0.40465,3.62808 -2.07311,5.45044 -1.85575,2.0269 -2.60485,3.70138 -2.74817,6.14287 -0.26886,4.58059 -0.21559,5.12673 0.66975,6.8675 0.8567,1.68453 0.86034,1.72366 0.37052,3.99974 -0.66336,3.08254 -0.67382,2.93325 0.41741,5.965 1.54606,4.29548 1.3905,4.85404 -2.4642,8.84754 -2.74616,2.84503 -3.4638,3.40315 -4.99749,3.8866 -0.98497,0.31049 -2.39313,1.08005 -3.12924,1.71014 l -1.33839,1.1456 -1.30736,-1.2766 c -1.25118,-1.22174 -1.40422,-1.27707 -3.56038,-1.28719 -3.13051,-0.0148 -5.88389,1.2461 -7.45572,3.41399 -0.62161,0.85732 -1.18947,1.70877 -1.26195,1.89209 -0.3009,0.76124 -2.11996,2.8324 -2.47941,2.82302 -0.21376,-0.004 -0.64508,-0.1596 -0.95853,-0.34237 z M 67.161331,123.72992 c -0.298172,-0.77703 0.120566,-3.45821 0.678847,-4.34678 0.553112,-0.88033 0.605782,-3.47384 0.103548,-5.09694 -0.198184,-0.64042 -0.394246,-2.14524 -0.4357,-3.34406 -0.05643,-1.63271 -0.336069,-2.73672 -1.114261,-4.3997 -1.019011,-2.17758 -1.074489,-2.23039 -2.899368,-2.76089 -1.143587,-0.33247 -2.327196,-0.98106 -3.071741,-1.68324 -0.6662,-0.62831 -1.322083,-1.14239 -1.457518,-1.14239 -0.135446,0 -0.428583,-0.41245 -0.651426,-0.9166 -0.441116,-0.997944 -6.494978,-5.623834 -9.225764,-7.049642 -1.694341,-0.88464 -2.28478,-1.281451 -5.083593,-3.41647 -0.87725,-0.669205 -2.255769,-1.549802 -3.063388,-1.956879 -0.807622,-0.407099 -1.670521,-0.902526 -1.917549,-1.100942 -0.247026,-0.198332 -0.752742,-0.407098 -1.123794,-0.463719 -1.330471,-0.202989 -3.071387,-1.963187 -3.692816,-3.73361 -0.329679,-0.939207 -1.04263,-2.212446 -1.584338,-2.829412 -1.776683,-2.023533 -1.973306,-2.946548 -2.008667,-9.429072 -0.01778,-3.264048 0.05353,-6.159606 0.158411,-6.434582 0.104944,-0.274998 0.408553,-1.973072 0.674728,-3.773551 0.524137,-3.545311 0.80436,-4.097211 2.424096,-4.774269 2.594407,-1.084474 6.064938,-0.748326 8.628904,0.835808 0.958326,0.592074 1.014273,0.732833 0.831064,2.090209 -0.108098,0.800481 -0.0199,2.280348 0.195961,3.288601 1.056564,4.935982 1.272374,6.772212 1.194846,10.166011 -0.07396,3.237865 0.01799,3.949849 0.786659,6.090878 0.538562,1.500124 1.142341,2.580238 1.583661,2.833137 1.534781,0.879518 54.888197,0.879518 56.422977,0 0.44132,-0.252899 1.0451,-1.333013 1.58366,-2.833137 0.76868,-2.141029 0.86063,-2.853013 0.78666,-6.090878 -0.0775,-3.393799 0.13828,-5.230029 1.19485,-10.166011 0.21582,-1.008253 0.304,-2.48812 0.19596,-3.288601 -0.1832,-1.357376 -0.12726,-1.498135 0.83106,-2.090209 2.56398,-1.584134 6.03451,-1.920282 8.62891,-0.835808 1.61974,0.677058 1.89994,1.228958 2.42409,4.774269 0.26619,1.800479 0.56983,3.498553 0.67473,3.773551 0.10499,0.274976 0.17611,3.170534 0.15833,6.434582 -0.0353,6.482524 -0.23199,7.405539 -2.00868,9.429072 -0.54169,0.616966 -1.25465,1.890205 -1.58432,2.829412 -0.62143,1.770423 -2.36235,3.530558 -3.69282,3.73361 -0.37108,0.05673 -0.87677,0.265303 -1.1238,0.463719 -0.24702,0.198332 -1.10992,0.693843 -1.91756,1.100942 -0.80761,0.407077 -2.18613,1.287674 -3.06338,1.956879 -2.79881,2.135019 -3.38925,2.53183 -5.08359,3.41647 -2.730791,1.425808 -8.784653,6.051698 -9.225772,7.049642 -0.22284,0.50415 -0.515985,0.9166 -0.651423,0.9166 -0.135445,0 -0.791318,0.51408 -1.457518,1.14239 -0.744545,0.70218 -1.928153,1.35077 -3.071741,1.68324 -1.824879,0.5305 -1.880359,0.58331 -2.899367,2.76089 -0.778193,1.66298 -1.057799,2.76699 -1.114261,4.3997 -0.04144,1.19882 -0.237514,2.70364 -0.4357,3.34406 -0.50228,1.6231 -0.449609,4.21661 0.103547,5.09694 0.558316,0.88857 0.977022,3.56975 0.678849,4.34678 -0.260897,0.6799 -0.925245,0.72149 -1.448739,0.0908 -0.28598,-0.34458 -0.900655,-0.42063 -2.342957,-0.28984 -1.917496,0.17378 -1.965528,0.15748 -2.486279,-0.84956 -0.292049,-0.56477 -0.531013,-1.4843 -0.531013,-2.04337 0,-0.84603 -0.131932,-1.01649 -0.786837,-1.01649 -0.622874,0 -1.013692,0.42562 -1.875393,2.04235 l -1.088562,2.04235 -1.944129,-0.17632 c -1.431936,-0.12975 -2.046269,-0.0531 -2.33182,0.29086 -0.523494,0.63076 -1.187842,0.58917 -1.44874,-0.0908 z"
       id="path3977"
       inkscape:connector-curvature="0" />
    <rect
       style="fill:none;fill-opacity:1;stroke:none;stroke-width:2.80017352;stroke-linecap:round;stroke-linejoin:round;stroke-miterlimit:4;stroke-dasharray:none;stroke-opacity:0.5"
       id="rect2033"
       width="135.46666"
       height="135.46666"
       x="7.5697803"
       y="54.446339" />
  </g>
</svg>
