<?xml version="1.0" encoding="UTF-8" standalone="no"?>
<!-- Created with Inkscape (http://www.inkscape.org/) -->

<svg
   xmlns:dc="http://purl.org/dc/elements/1.1/"
   xmlns:cc="http://creativecommons.org/ns#"
   xmlns:rdf="http://www.w3.org/1999/02/22-rdf-syntax-ns#"
   xmlns:svg="http://www.w3.org/2000/svg"
   xmlns="http://www.w3.org/2000/svg"
   xmlns:sodipodi="http://sodipodi.sourceforge.net/DTD/sodipodi-0.dtd"
   xmlns:inkscape="http://www.inkscape.org/namespaces/inkscape"
   width="64mm"
   height="64.000008mm"
   viewBox="0 0 64 64.000008"
   version="1.1"
   id="svg8"
   inkscape:version="0.92.5 (2060ec1f9f, 2020-04-08)"
   sodipodi:docname="boss.svg">
  <defs
     id="defs2" />
  <sodipodi:namedview
     id="base"
     pagecolor="#ffffff"
     bordercolor="#666666"
     borderopacity="1.0"
     inkscape:pageopacity="0.0"
     inkscape:pageshadow="2"
     inkscape:zoom="1.4"
     inkscape:cx="168.39676"
     inkscape:cy="72.683888"
     inkscape:document-units="mm"
     inkscape:current-layer="layer1"
     showgrid="false"
     inkscape:window-width="1920"
     inkscape:window-height="1136"
     inkscape:window-x="0"
     inkscape:window-y="27"
     inkscape:window-maximized="1"
     fit-margin-top="0"
     fit-margin-left="0"
     fit-margin-right="0"
     fit-margin-bottom="0" />
  <metadata
     id="metadata5">
    <rdf:RDF>
      <cc:Work
         rdf:about="">
        <dc:format>image/svg+xml</dc:format>
        <dc:type
           rdf:resource="http://purl.org/dc/dcmitype/StillImage" />
        <dc:title></dc:title>
      </cc:Work>
    </rdf:RDF>
  </metadata>
  <g
     inkscape:label="Layer 1"
     inkscape:groupmode="layer"
     id="layer1"
     transform="translate(-7.5697803,-125.913)">
    <path
       style="fill:#b30000;fill-opacity:1;stroke-width:0.15747024"
       d="m 32.995112,189.41882 c -0.756398,-0.78153 -1.027965,-1.58337 -1.072246,-3.16595 -0.02148,-0.76693 -0.11661,-1.472 -0.211437,-1.56684 -0.09483,-0.0948 -0.172419,-0.34005 -0.172419,-0.54495 0,-0.56921 -0.246112,-0.91294 -1.034768,-1.4452 -0.70387,-0.47504 -0.752055,-0.4842 -2.00842,-0.38174 -0.707982,0.0577 -1.535259,0.19005 -1.838388,0.29405 -0.587265,0.20148 -0.713642,0.18618 -1.574706,-0.19067 -0.626534,-0.27421 -1.417226,-0.96024 -1.417226,-1.22963 0,-0.0992 -0.301165,-0.41979 -0.669249,-0.71238 -0.368091,-0.2926 -1.002202,-0.84421 -1.409144,-1.22581 -0.406943,-0.3816 -0.902976,-0.77873 -1.10229,-0.88253 -0.19932,-0.10379 -0.663565,-0.38835 -1.03165,-0.63237 -0.623302,-0.41321 -0.669249,-0.49257 -0.669249,-1.15587 0,-0.90277 0.560376,-1.68278 1.511066,-2.10332 0.669505,-0.29615 0.688728,-0.29607 1.355573,0.006 0.372042,0.16853 0.838091,0.35305 1.035661,0.41003 0.528112,0.15232 1.103641,0.84408 1.374589,1.65218 0.231423,0.69023 1.649643,2.36385 2.003117,2.36385 0.518661,0 1.374898,-0.40324 1.549674,-0.72981 0.278845,-0.52103 1.573486,-1.3173 2.141778,-1.3173 0.359192,0 0.826693,0.29688 1.954593,1.24125 2.552428,2.1371 3.125398,3.57934 3.144211,7.91443 0.01149,2.64586 -0.04744,3.00059 -0.604085,3.63877 -0.35261,0.40425 -0.698055,0.33923 -1.254985,-0.2362 z m 11.894778,0.2362 c -0.55668,-0.63818 -0.615565,-0.99291 -0.604085,-3.63877 0.01881,-4.33508 0.591783,-5.77732 3.144211,-7.91443 1.1279,-0.94437 1.595401,-1.24125 1.954594,-1.24125 0.568291,0 1.862932,0.79627 2.141777,1.3173 0.174776,0.32657 1.031013,0.72981 1.549674,0.72981 0.353474,0 1.771694,-1.67362 2.003117,-2.36385 0.270948,-0.8081 0.846474,-1.49986 1.374584,-1.65218 0.19758,-0.057 0.66362,-0.2415 1.03567,-0.41003 0.66684,-0.30208 0.68607,-0.30216 1.35557,-0.006 0.95069,0.42054 1.51107,1.20055 1.51107,2.10332 0,0.6633 -0.0459,0.74266 -0.66925,1.15587 -0.36809,0.24402 -0.83233,0.52859 -1.03165,0.63237 -0.19932,0.1038 -0.69535,0.50093 -1.10229,0.88253 -0.40695,0.3816 -1.04106,0.93321 -1.40915,1.22581 -0.36808,0.29259 -0.669241,0.61317 -0.669241,0.71238 0,0.26939 -0.790698,0.95542 -1.417232,1.22963 -0.861064,0.37685 -0.987441,0.39215 -1.574706,0.19067 -0.303129,-0.10399 -1.130406,-0.23632 -1.838388,-0.29405 -1.256365,-0.10246 -1.30455,-0.0933 -2.00842,0.38175 -0.788656,0.53225 -1.034768,0.87598 -1.034768,1.44519 0,0.2049 -0.07758,0.45013 -0.172419,0.54496 -0.09483,0.0948 -0.189976,0.7999 -0.211437,1.56683 -0.04428,1.58258 -0.315848,2.38442 -1.072246,3.16595 -0.55693,0.57543 -0.902375,0.64045 -1.254985,0.2362 z m -7.731742,-10.76183 c -0.699258,-1.07295 -1.268787,-2.59324 -1.257277,-3.35615 0.01631,-1.0828 -0.81176,-2.77393 -1.778418,-3.63188 -0.541676,-0.48075 -0.752584,-0.80408 -0.869159,-1.33241 -0.141119,-0.63961 -0.107951,-0.79024 0.398795,-1.81091 0.303992,-0.61231 0.568565,-1.21958 0.587932,-1.34949 0.0194,-0.12991 -0.01928,-1.05111 -0.08595,-2.04711 -0.109987,-1.64378 -0.08988,-1.89447 0.217901,-2.71637 0.237559,-0.63437 0.422661,-0.90545 0.618291,-0.90545 0.636997,0 1.183863,1.22555 1.353109,3.0324 0.106469,1.13661 0.16639,1.29013 0.862415,2.20956 1.783956,2.35655 2.09672,3.44236 1.32058,4.58456 -0.404241,0.59489 -0.408764,0.62919 -0.196838,1.49315 0.470791,1.91931 0.15789,4.82068 -0.628761,5.8301 l -0.295506,0.37917 z m 4.164471,-0.18862 c -0.780318,-1.26258 -0.999297,-3.89539 -0.481707,-5.79163 0.185786,-0.68064 0.173781,-0.75277 -0.222323,-1.33569 -0.781587,-1.15021 -0.47212,-2.23034 1.315608,-4.59187 0.696025,-0.91943 0.755946,-1.07295 0.862415,-2.20956 0.169246,-1.80685 0.716112,-3.0324 1.353109,-3.0324 0.19563,0 0.380732,0.27108 0.618291,0.90545 0.307777,0.8219 0.327888,1.07259 0.217901,2.71637 -0.06664,0.996 -0.10532,1.9172 -0.08595,2.04711 0.01934,0.12991 0.28394,0.73718 0.587932,1.34949 0.506746,1.02067 0.539914,1.1713 0.398795,1.81091 -0.116575,0.52833 -0.327483,0.85166 -0.869158,1.33241 -0.967028,0.85827 -1.794751,2.54904 -1.778407,3.63269 0.0091,0.60308 -0.130954,1.09328 -0.594705,2.08151 -0.778373,1.65869 -0.903756,1.76163 -1.321804,1.08521 z M 25.433785,175.4827 c -0.254522,-0.32478 -0.490778,-0.66138 -0.525011,-0.74798 -0.03422,-0.0866 -0.302522,-0.48887 -0.596193,-0.8939 -0.742597,-1.0242 -2.043415,-1.61985 -3.522396,-1.61291 -1.018651,0.005 -1.090952,0.0309 -1.682062,0.60812 l -0.617654,0.60312 -0.632313,-0.54123 c -0.347766,-0.29768 -1.013039,-0.66125 -1.47838,-0.80794 -0.724575,-0.2284 -1.063622,-0.49208 -2.361018,-1.83619 -1.821116,-1.88669 -1.894612,-2.15058 -1.164186,-4.17994 0.515536,-1.43232 0.510596,-1.36179 0.197195,-2.81811 -0.231405,-1.07531 -0.229691,-1.0938 0.175055,-1.88964 0.418269,-0.82241 0.443433,-1.08043 0.316413,-3.24449 -0.06771,-1.15346 -0.421614,-1.94455 -1.298343,-2.90214 -0.788252,-0.86096 -1.058325,-1.57101 -0.979424,-2.57501 0.05374,-0.68388 0.159772,-0.92917 0.596318,-1.37957 1.194135,-1.23204 2.543215,-1.47788 3.851467,-0.70186 0.899494,0.53357 1.592532,0.61336 1.709803,0.19684 0.297355,-1.0561 0.280649,-1.26787 -0.123122,-1.5603 -0.220216,-0.15948 -0.690966,-0.55571 -1.046112,-0.88049 -0.35514,-0.32478 -0.708816,-0.59051 -0.785937,-0.59051 -0.07712,0 -0.241576,-0.19487 -0.365448,-0.43304 -0.123877,-0.23817 -0.938304,-0.9645 -1.809837,-1.61407 -1.493485,-1.11311 -1.590538,-1.22001 -1.687651,-1.85899 -0.09933,-0.65363 -0.0755,-0.7054 0.664137,-1.4421 0.421947,-0.42026 1.369494,-1.16697 2.105669,-1.65934 l 1.338498,-0.89522 1.289725,0.0646 c 1.256091,0.063 1.308055,0.0815 1.992546,0.71248 0.44873,0.41363 0.807946,0.6226 0.993589,0.57802 0.195821,-0.047 0.547896,0.19167 1.078127,0.73089 0.43304,0.44037 1.204467,1.20297 1.714278,1.69465 1.088309,1.04959 1.356388,1.59717 1.356388,2.77052 0,0.81401 0.03363,0.88823 0.590515,1.30419 0.324787,0.24258 0.684152,0.52963 0.798602,0.63789 0.137316,0.1299 0.732342,0.19684 1.749566,0.19684 1.403674,0 1.596233,0.037 2.153966,0.41365 0.336869,0.22752 0.647919,0.45945 0.691223,0.51542 0.250522,0.32379 1.014259,0.64563 1.53211,0.64563 0.565679,0 0.646437,0.0667 1.478284,1.2204 1.240225,1.72011 1.571683,2.99355 1.265585,4.86231 -0.108599,0.66303 -0.105808,1.17072 0.0089,1.6227 0.246498,0.97112 0.01839,1.324 -1.234738,1.90987 -0.967378,0.45228 -1.141945,0.48464 -2.075667,0.38464 -0.560703,-0.06 -1.366078,-0.10649 -1.789727,-0.10321 -0.592919,0.005 -0.923574,-0.0975 -1.436075,-0.44337 -0.953219,-0.64333 -2.351531,-2.17595 -2.695845,-2.95479 -0.24238,-0.54828 -0.390016,-0.68426 -0.833157,-0.76739 -0.681295,-0.12782 -7.910486,0.0134 -8.254169,0.16122 -0.140714,0.0605 -0.368965,0.3716 -0.507222,0.69128 -0.267299,0.61804 -0.264371,2.58272 0.0084,5.64846 l 0.128609,1.44539 1.41531,1.43399 c 1.648887,1.67065 2.579193,2.22096 3.931767,2.32579 0.872336,0.0676 1.021799,0.0287 1.875085,-0.48842 0.509953,-0.30903 1.148087,-0.63478 1.418071,-0.72389 0.493873,-0.16299 1.094725,-0.96155 1.697685,-2.25628 0.374709,-0.80462 1.18225,-1.14106 3.339407,-1.39129 l 1.713421,-0.19875 0.451794,0.50564 c 0.248481,0.2781 0.451396,0.62853 0.450908,0.77873 -0.0018,0.54734 -0.334886,1.45481 -0.690973,1.88227 -0.200647,0.24086 -0.451693,0.70445 -0.557882,1.03019 -0.215544,0.66119 -0.836472,1.20157 -1.908872,1.66126 -0.394611,0.16915 -0.961427,0.57656 -1.259586,0.90535 -0.298165,0.32879 -0.881335,0.96682 -1.295938,1.41785 -0.414596,0.45102 -0.818932,1.04709 -0.898523,1.32459 -0.132954,0.46359 -0.08953,0.56412 0.534986,1.23838 0.373828,0.4036 0.766933,0.90072 0.873568,1.10472 0.369769,0.70735 -0.08163,1.75495 -0.756184,1.75495 -0.08503,0 -0.362836,-0.26572 -0.617357,-0.59051 z m 27.173204,0.42398 c -0.361329,-0.21066 -0.518577,-1.12117 -0.274322,-1.58842 0.106635,-0.204 0.49974,-0.70112 0.873568,-1.10472 0.624511,-0.67426 0.66794,-0.77479 0.534981,-1.23838 -0.07959,-0.2775 -0.483922,-0.87357 -0.898518,-1.32459 -0.414603,-0.45103 -0.997773,-1.08906 -1.295938,-1.41785 -0.298159,-0.32879 -0.864975,-0.7362 -1.259586,-0.90535 -1.0724,-0.45969 -1.693328,-1.00007 -1.908872,-1.66126 -0.106189,-0.32574 -0.357235,-0.78933 -0.557882,-1.03019 -0.356087,-0.42746 -0.689217,-1.33493 -0.690973,-1.88227 -4.76e-4,-0.1502 0.202421,-0.50063 0.450908,-0.77873 l 0.451794,-0.50564 1.713421,0.19875 c 2.157157,0.25023 2.964698,0.58667 3.339407,1.39129 0.60296,1.29473 1.203807,2.09329 1.697685,2.25628 0.269984,0.0891 0.90812,0.41486 1.41807,0.72389 0.85329,0.51709 1.00275,0.55602 1.87509,0.48842 1.35257,-0.10483 2.28288,-0.65514 3.93176,-2.32579 l 1.41531,-1.43399 0.12861,-1.44539 c 0.27278,-3.06574 0.27571,-5.03042 0.008,-5.64846 -0.13826,-0.31968 -0.36651,-0.63076 -0.50722,-0.69128 -0.34368,-0.14783 -7.572878,-0.28904 -8.254167,-0.16122 -0.443147,0.0831 -0.590777,0.21911 -0.833163,0.76739 -0.344308,0.77884 -1.74262,2.31146 -2.695845,2.95479 -0.512501,0.34588 -0.843156,0.44797 -1.436069,0.44337 -0.423655,-0.004 -1.22903,0.0431 -1.789733,0.10321 -0.933716,0.1 -1.108289,0.0676 -2.075661,-0.38464 -1.253104,-0.58587 -1.481242,-0.93875 -1.234743,-1.90987 0.114723,-0.45198 0.117515,-0.95967 0.0089,-1.6227 -0.306098,-1.86876 0.02535,-3.1422 1.265585,-4.86231 0.831847,-1.15373 0.912605,-1.2204 1.47829,-1.2204 0.517845,0 1.281588,-0.32184 1.532104,-0.64563 0.04333,-0.056 0.354355,-0.2879 0.691223,-0.51542 0.557733,-0.37666 0.750298,-0.41365 2.153967,-0.41365 1.017229,0 1.612249,-0.0669 1.749565,-0.19684 0.11445,-0.10826 0.473821,-0.39531 0.798602,-0.63789 0.556906,-0.41596 0.590515,-0.49018 0.590515,-1.30419 0,-1.17335 0.268079,-1.72093 1.35639,-2.77052 0.50981,-0.49168 1.28123,-1.25428 1.71427,-1.69465 0.53023,-0.53922 0.88231,-0.7779 1.07813,-0.73089 0.18565,0.0446 0.54487,-0.16439 0.99359,-0.57802 0.68449,-0.63094 0.73645,-0.64952 1.99255,-0.71248 l 1.28973,-0.0646 1.33849,0.89522 c 0.73618,0.49237 1.68373,1.23908 2.10567,1.65934 0.73964,0.7367 0.76347,0.78847 0.66413,1.4421 -0.0971,0.63898 -0.19416,0.74588 -1.68764,1.85899 -0.87153,0.64957 -1.68596,1.3759 -1.80984,1.61407 -0.12387,0.23817 -0.28832,0.43304 -0.36545,0.43304 -0.0771,0 -0.43079,0.26573 -0.78593,0.59051 -0.35515,0.32478 -0.8259,0.72101 -1.04612,0.88049 -0.40377,0.29243 -0.42047,0.5042 -0.12312,1.5603 0.11727,0.41652 0.81031,0.33673 1.70981,-0.19684 1.30825,-0.77602 2.65733,-0.53018 3.85146,0.70186 0.43655,0.4504 0.54258,0.69569 0.59632,1.37957 0.0789,1.004 -0.19117,1.71405 -0.97942,2.57501 -0.87673,0.95759 -1.23064,1.74868 -1.29835,2.90214 -0.12702,2.16406 -0.10185,2.42208 0.31642,3.24449 0.40474,0.79584 0.40646,0.81433 0.17505,1.88964 -0.3134,1.45632 -0.31834,1.38579 0.1972,2.81811 0.73042,2.02936 0.65693,2.29325 -1.16419,4.17994 -1.2974,1.34411 -1.63644,1.60779 -2.36102,1.83619 -0.46534,0.14669 -1.13061,0.51026 -1.47838,0.80794 l -0.63231,0.54123 -0.61765,-0.60312 c -0.59111,-0.5772 -0.66341,-0.60334 -1.68207,-0.60812 -1.47898,-0.007 -2.779792,0.58871 -3.522389,1.61291 -0.293671,0.40503 -0.561953,0.80729 -0.596193,0.8939 -0.14216,0.35964 -1.001558,1.33814 -1.171376,1.33371 -0.100987,-0.002 -0.304765,-0.0754 -0.452848,-0.16175 z m -16.88372,-17.26127 c -0.140869,-0.3671 0.05696,-1.6338 0.320715,-2.0536 0.261313,-0.4159 0.286196,-1.64118 0.04892,-2.408 -0.09363,-0.30256 -0.186257,-1.0135 -0.205843,-1.57987 -0.02666,-0.77136 -0.158772,-1.29294 -0.526422,-2.0786 -0.481422,-1.02878 -0.507633,-1.05373 -1.36978,-1.30436 -0.540277,-0.15707 -1.099463,-0.46349 -1.451216,-0.79523 -0.31474,-0.29684 -0.624606,-0.53971 -0.688592,-0.53971 -0.06399,0 -0.20248,-0.19486 -0.307759,-0.43304 -0.208402,-0.47147 -3.068494,-2.65693 -4.358629,-3.33054 -0.800477,-0.41794 -1.079424,-0.60541 -2.401698,-1.61408 -0.414448,-0.31616 -1.065717,-0.73219 -1.44727,-0.92451 -0.381553,-0.19233 -0.789222,-0.42639 -0.905928,-0.52013 -0.116705,-0.0937 -0.355627,-0.19233 -0.530927,-0.21908 -0.628569,-0.0959 -1.451049,-0.92749 -1.744637,-1.76391 -0.155754,-0.44372 -0.492581,-1.04525 -0.748507,-1.33673 -0.839377,-0.956 -0.93227,-1.39207 -0.948976,-4.45468 -0.0084,-1.54207 0.02529,-2.91005 0.07484,-3.03996 0.04958,-0.12992 0.193017,-0.93216 0.318769,-1.78278 0.247624,-1.67495 0.380012,-1.93569 1.145243,-2.25556 1.225703,-0.51235 2.865324,-0.35354 4.076647,0.39487 0.452753,0.27972 0.479184,0.34622 0.392629,0.9875 -0.05107,0.37818 -0.0094,1.07733 0.09258,1.55367 0.499163,2.33196 0.601121,3.19947 0.564494,4.80284 -0.03494,1.5297 0.0085,1.86607 0.37165,2.87758 0.254438,0.70872 0.539688,1.21901 0.748186,1.33849 0.725093,0.41552 25.931432,0.41552 26.656525,0 0.208498,-0.11948 0.493747,-0.62977 0.748186,-1.33849 0.363156,-1.01151 0.406597,-1.34788 0.371649,-2.87758 -0.0366,-1.60337 0.06533,-2.47088 0.564495,-4.80284 0.101963,-0.47634 0.143624,-1.17549 0.09258,-1.55367 -0.08655,-0.64128 -0.06012,-0.70778 0.392629,-0.9875 1.21133,-0.74841 2.85095,-0.90722 4.07665,-0.39487 0.76523,0.31987 0.89761,0.58061 1.14524,2.25556 0.12576,0.85062 0.26921,1.65286 0.31877,1.78278 0.0496,0.12991 0.0832,1.49789 0.0748,3.03996 -0.0167,3.06261 -0.1096,3.49868 -0.94898,4.45468 -0.25592,0.29148 -0.59275,0.89301 -0.7485,1.33673 -0.29359,0.83642 -1.11607,1.66798 -1.74464,1.76391 -0.17531,0.0268 -0.41422,0.12534 -0.53093,0.21908 -0.1167,0.0937 -0.52437,0.3278 -0.90593,0.52013 -0.381552,0.19232 -1.032822,0.60835 -1.447269,0.92451 -1.322274,1.00867 -1.601221,1.19614 -2.401698,1.61408 -1.290135,0.67361 -4.150227,2.85907 -4.35863,3.33054 -0.105278,0.23818 -0.243772,0.43304 -0.307758,0.43304 -0.06399,0 -0.373852,0.24287 -0.688592,0.53971 -0.351754,0.33174 -0.910939,0.63816 -1.451216,0.79523 -0.862148,0.25063 -0.888359,0.27558 -1.36978,1.30436 -0.36765,0.78566 -0.499747,1.30724 -0.526422,2.0786 -0.01958,0.56637 -0.112212,1.27731 -0.205843,1.57987 -0.237298,0.76682 -0.212414,1.9921 0.04892,2.408 0.263771,0.4198 0.461585,1.6865 0.320716,2.0536 -0.123258,0.32121 -0.437124,0.34086 -0.684444,0.0429 -0.135108,-0.16279 -0.425506,-0.19872 -1.106908,-0.13693 -0.905904,0.0821 -0.928597,0.0744 -1.17462,-0.40137 -0.137976,-0.26682 -0.250873,-0.70124 -0.250873,-0.96537 0,-0.3997 -0.06233,-0.48023 -0.371733,-0.48023 -0.294272,0 -0.47891,0.20108 -0.886013,0.96489 l -0.514281,0.96489 -0.918487,-0.0833 c -0.676504,-0.0613 -0.966741,-0.0251 -1.101647,0.13741 -0.24732,0.298 -0.561185,0.27835 -0.684444,-0.0429 z"
       id="path3977"
       inkscape:connector-curvature="0" />
    <rect
       style="fill:none;fill-opacity:1;stroke:none;stroke-width:1.32291663;stroke-linecap:round;stroke-linejoin:round;stroke-miterlimit:4;stroke-dasharray:none;stroke-opacity:0.5"
       id="rect2033"
       width="64"
       height="64"
       x="7.5697803"
       y="125.91301" />
  </g>
</svg>
