<?xml version="1.0" encoding="UTF-8" standalone="no"?>
<!-- Created with Inkscape (http://www.inkscape.org/) -->

<svg
   xmlns:dc="http://purl.org/dc/elements/1.1/"
   xmlns:cc="http://creativecommons.org/ns#"
   xmlns:rdf="http://www.w3.org/1999/02/22-rdf-syntax-ns#"
   xmlns:svg="http://www.w3.org/2000/svg"
   xmlns="http://www.w3.org/2000/svg"
   xmlns:sodipodi="http://sodipodi.sourceforge.net/DTD/sodipodi-0.dtd"
   xmlns:inkscape="http://www.inkscape.org/namespaces/inkscape"
   width="256"
   height="256.00137"
   viewBox="0 0 67.733334 67.7337"
   version="1.1"
   id="svg8"
   inkscape:version="0.92.5 (2060ec1f9f, 2020-04-08)"
   sodipodi:docname="boss.svg">
  <defs
     id="defs2" />
  <sodipodi:namedview
     id="base"
     pagecolor="#ffffff"
     bordercolor="#666666"
     borderopacity="1.0"
     inkscape:pageopacity="0.0"
     inkscape:pageshadow="2"
     inkscape:zoom="1.4"
     inkscape:cx="29.111045"
     inkscape:cy="158.39953"
     inkscape:document-units="px"
     inkscape:current-layer="layer1"
     showgrid="false"
     inkscape:window-width="1920"
     inkscape:window-height="1136"
     inkscape:window-x="0"
     inkscape:window-y="27"
     inkscape:window-maximized="1"
     fit-margin-top="0"
     fit-margin-left="0"
     fit-margin-right="0"
     fit-margin-bottom="0"
     units="px" />
  <metadata
     id="metadata5">
    <rdf:RDF>
      <cc:Work
         rdf:about="">
        <dc:format>image/svg+xml</dc:format>
        <dc:type
           rdf:resource="http://purl.org/dc/dcmitype/StillImage" />
        <dc:title></dc:title>
      </cc:Work>
    </rdf:RDF>
  </metadata>
  <g
     inkscape:label="Layer 1"
     inkscape:groupmode="layer"
     id="layer1"
     transform="translate(-7.5697803,-122.17966)">
    <path
       style="fill:#b30000;fill-opacity:1;stroke-width:0.16665602"
       d="m 34.478258,189.38999 c -0.800521,-0.82712 -1.08793,-1.67573 -1.134793,-3.35063 -0.02274,-0.81167 -0.123412,-1.55787 -0.223771,-1.65824 -0.100362,-0.10033 -0.182477,-0.35989 -0.182477,-0.57674 0,-0.60241 -0.260469,-0.96619 -1.09513,-1.5295 -0.744929,-0.50275 -0.795925,-0.51245 -2.125578,-0.40401 -0.74928,0.0611 -1.624816,0.20114 -1.945627,0.3112 -0.621522,0.21324 -0.755272,0.19704 -1.666564,-0.20179 -0.663082,-0.29021 -1.499898,-1.01625 -1.499898,-1.30136 0,-0.10499 -0.318733,-0.44428 -0.708288,-0.75393 -0.389563,-0.30967 -1.060664,-0.89346 -1.491344,-1.29732 -0.430681,-0.40386 -0.95565,-0.82416 -1.166591,-0.93401 -0.210947,-0.10984 -0.702273,-0.411 -1.091829,-0.66926 -0.659661,-0.43731 -0.708289,-0.5213 -0.708289,-1.22329 0,-0.95544 0.593065,-1.78095 1.599212,-2.22602 0.70856,-0.31342 0.728904,-0.31334 1.434648,0.006 0.393745,0.17836 0.88698,0.37365 1.096075,0.43395 0.558918,0.16121 1.168021,0.89332 1.454773,1.74856 0.244922,0.73049 1.745872,2.50174 2.119966,2.50174 0.548915,0 1.4551,-0.42676 1.640072,-0.77238 0.295111,-0.55143 1.665273,-1.39415 2.266715,-1.39415 0.380145,0 0.874917,0.3142 2.068611,1.31366 2.70132,2.26176 3.307713,3.78813 3.327623,8.37611 0.01216,2.8002 -0.05021,3.17562 -0.639323,3.85103 -0.373179,0.42783 -0.738775,0.35902 -1.328193,-0.24998 z m 12.588642,0.24998 c -0.589153,-0.6754 -0.651473,-1.05083 -0.639323,-3.85103 0.01991,-4.58796 0.626303,-6.11433 3.327624,-8.37611 1.193694,-0.99946 1.688465,-1.31366 2.068611,-1.31366 0.601442,0 1.971602,0.84272 2.266712,1.39415 0.184975,0.34562 1.09116,0.77238 1.640075,0.77238 0.374095,0 1.87504,-1.77125 2.119965,-2.50174 0.286755,-0.85524 0.89585,-1.58735 1.454766,-1.74856 0.209105,-0.0603 0.702335,-0.25559 1.096085,-0.43395 0.70574,-0.3197 0.72609,-0.31978 1.434645,-0.006 1.00615,0.44507 1.599215,1.27058 1.599215,2.22602 0,0.70199 -0.04855,0.78598 -0.70829,1.22329 -0.38956,0.25826 -0.88088,0.55943 -1.091825,0.66926 -0.21095,0.10986 -0.735915,0.53015 -1.166595,0.93401 -0.430685,0.40386 -1.101785,0.98765 -1.49135,1.29732 -0.389551,0.30965 -0.708276,0.64893 -0.708276,0.75393 0,0.28511 -0.836825,1.01115 -1.499905,1.30136 -0.911295,0.39883 -1.045045,0.41503 -1.666565,0.20179 -0.32081,-0.11005 -1.196345,-0.2501 -1.945627,-0.3112 -1.329654,-0.10844 -1.380649,-0.0987 -2.125578,0.40402 -0.834662,0.5633 -1.095131,0.92708 -1.095131,1.52949 0,0.21685 -0.0821,0.47639 -0.182476,0.57675 -0.100362,0.10033 -0.201058,0.84656 -0.22377,1.65823 -0.04687,1.6749 -0.334274,2.52352 -1.134794,3.35063 -0.589418,0.609 -0.955014,0.67781 -1.328193,0.24998 z m -8.182762,-11.38961 c -0.740047,-1.13553 -1.342798,-2.74451 -1.330617,-3.55192 0.01726,-1.14596 -0.859113,-2.93574 -1.88216,-3.84374 -0.573274,-0.50879 -0.796485,-0.85099 -0.91986,-1.41014 -0.149351,-0.67692 -0.114248,-0.83633 0.422059,-1.91654 0.321725,-0.64803 0.601731,-1.29072 0.622228,-1.42821 0.02053,-0.13749 -0.02041,-1.11243 -0.09096,-2.16653 -0.116403,-1.73966 -0.09512,-2.00498 0.230611,-2.87482 0.251418,-0.67138 0.447317,-0.95827 0.654359,-0.95827 0.674155,0 1.252922,1.29704 1.43204,3.20929 0.11268,1.20291 0.176096,1.36539 0.912722,2.33845 1.888021,2.49402 2.219029,3.64317 1.397614,4.85199 -0.427821,0.6296 -0.432608,0.6659 -0.20832,1.58025 0.498254,2.03127 0.167101,5.10189 -0.665439,6.17019 l -0.312744,0.40129 z m 4.4074,-0.19962 c -0.825836,-1.33623 -1.05759,-4.12262 -0.509807,-6.12947 0.196623,-0.72035 0.183918,-0.79669 -0.235292,-1.41361 -0.82718,-1.2173 -0.49966,-2.36044 1.392352,-4.85973 0.736626,-0.97306 0.800043,-1.13554 0.912722,-2.33845 0.179119,-1.91225 0.757886,-3.20929 1.432042,-3.20929 0.207041,0 0.40294,0.28689 0.654356,0.95827 0.325732,0.86984 0.347017,1.13516 0.230613,2.87482 -0.07053,1.0541 -0.111464,2.02904 -0.09096,2.16653 0.02047,0.13749 0.300504,0.78018 0.622229,1.42821 0.536306,1.08021 0.571409,1.23962 0.422058,1.91654 -0.123375,0.55915 -0.346587,0.90135 -0.91986,1.41014 -1.023438,0.90833 -1.899444,2.69773 -1.882147,3.8446 0.0096,0.63826 -0.138593,1.15705 -0.629396,2.20293 -0.823779,1.75544 -0.956475,1.86439 -1.39891,1.14851 z m -16.815684,-3.40981 c -0.26937,-0.34373 -0.519408,-0.69996 -0.555637,-0.79161 -0.03622,-0.0917 -0.32017,-0.51739 -0.63097,-0.94605 -0.785916,-1.08394 -2.162615,-1.71434 -3.72787,-1.70699 -1.078073,0.005 -1.154592,0.0327 -1.780183,0.64359 l -0.653684,0.6383 -0.669198,-0.5728 c -0.368052,-0.31504 -1.072133,-0.69982 -1.564619,-0.85507 -0.766842,-0.24172 -1.125667,-0.52078 -2.498744,-1.9433 -1.927348,-1.99675 -2.005131,-2.27603 -1.232097,-4.42377 0.545609,-1.51587 0.540381,-1.44123 0.208698,-2.9825 -0.244903,-1.13804 -0.243089,-1.15761 0.185267,-1.99987 0.442668,-0.87038 0.4693,-1.14345 0.33487,-3.43375 -0.07166,-1.22075 -0.446208,-2.05798 -1.37408,-3.07143 -0.834233,-0.91119 -1.120061,-1.66266 -1.036557,-2.72522 0.05687,-0.72377 0.169092,-0.98337 0.631104,-1.46005 1.263793,-1.30391 2.691569,-1.56409 4.076136,-0.7428 0.951964,0.5647 1.68543,0.64914 1.809542,0.20832 0.3147,-1.1177 0.29702,-1.34183 -0.130305,-1.65131 -0.233062,-0.16879 -0.731272,-0.58813 -1.107135,-0.93186 -0.375857,-0.34372 -0.750164,-0.62495 -0.831784,-0.62495 -0.08162,0 -0.255668,-0.20624 -0.386765,-0.4583 -0.131104,-0.25207 -0.993039,-1.02077 -1.915411,-1.70823 -1.580605,-1.17804 -1.68332,-1.29118 -1.786098,-1.96743 -0.105124,-0.69176 -0.0799,-0.74655 0.702879,-1.52622 0.44656,-0.44478 1.449381,-1.23505 2.228499,-1.75614 l 1.416578,-0.94744 1.364959,0.0684 c 1.329363,0.0667 1.384358,0.0863 2.108778,0.75404 0.474906,0.43776 0.855076,0.65892 1.051548,0.61174 0.207244,-0.0497 0.579857,0.20285 1.141018,0.77352 0.458301,0.46606 1.274727,1.27315 1.814278,1.79351 1.151793,1.11082 1.435511,1.69034 1.435511,2.93213 0,0.8615 0.03559,0.94005 0.624962,1.38027 0.343732,0.25673 0.72406,0.56053 0.845186,0.6751 0.145327,0.13748 0.775063,0.20832 1.851624,0.20832 1.485556,0 1.689347,0.0392 2.279615,0.43778 0.35652,0.2408 0.685714,0.48626 0.731544,0.54549 0.265136,0.34268 1.073424,0.68329 1.621483,0.68329 0.598677,0 0.684147,0.0706 1.564517,1.29159 1.312572,1.82045 1.663366,3.16818 1.339411,5.14595 -0.114933,0.7017 -0.111979,1.23901 0.0094,1.71735 0.260878,1.02777 0.01946,1.40124 -1.306764,2.02128 -1.023808,0.47867 -1.208559,0.51291 -2.196748,0.40708 -0.593411,-0.0635 -1.445766,-0.1127 -1.894127,-0.10923 -0.627506,0.005 -0.977449,-0.10319 -1.519847,-0.46923 -1.008823,-0.68086 -2.488704,-2.30288 -2.853102,-3.12716 -0.256519,-0.58026 -0.412768,-0.72417 -0.881759,-0.81215 -0.721037,-0.13528 -8.371932,0.0142 -8.735663,0.17062 -0.148922,0.064 -0.390488,0.39328 -0.53681,0.73161 -0.282891,0.65409 -0.279792,2.73338 0.0089,5.97795 l 0.136111,1.52971 1.497871,1.51764 c 1.745072,1.7681 2.729646,2.35051 4.16112,2.46146 0.923222,0.0715 1.081403,0.0304 1.984465,-0.51691 0.539701,-0.32706 1.215059,-0.67181 1.500792,-0.76612 0.522682,-0.1725 1.158584,-1.01764 1.796717,-2.3879 0.396566,-0.85155 1.251214,-1.20762 3.534206,-1.47245 l 1.81337,-0.21034 0.47815,0.53514 c 0.262974,0.29432 0.477726,0.66519 0.47721,0.82415 -0.0019,0.57927 -0.354421,1.53968 -0.731279,1.99207 -0.212352,0.25491 -0.478043,0.74554 -0.590426,1.09029 -0.228117,0.69976 -0.885267,1.27166 -2.020223,1.75816 -0.417629,0.17902 -1.01751,0.6102 -1.333061,0.95816 -0.315558,0.34797 -0.932747,1.02322 -1.371536,1.50056 -0.438781,0.47733 -0.866702,1.10817 -0.950936,1.40186 -0.140709,0.49063 -0.09475,0.59703 0.566194,1.31062 0.395634,0.42714 0.81167,0.95326 0.924525,1.16916 0.391339,0.74861 -0.08639,1.85732 -0.800294,1.85732 -0.08999,0 -0.384002,-0.28122 -0.65337,-0.62495 z m 28.75831,0.44871 c -0.382405,-0.22295 -0.54883,-1.18657 -0.290325,-1.68108 0.112855,-0.2159 0.52889,-0.74202 0.924525,-1.16916 0.660945,-0.71359 0.706905,-0.81999 0.56619,-1.31062 -0.08423,-0.29369 -0.51215,-0.92453 -0.95093,-1.40186 -0.43879,-0.47734 -1.05598,-1.15258 -1.371535,-1.50055 -0.31555,-0.34797 -0.915433,-0.77915 -1.333063,-0.95817 -1.134957,-0.4865 -1.792105,-1.0584 -2.020224,-1.75816 -0.112383,-0.34474 -0.378074,-0.83538 -0.590424,-1.09029 -0.376859,-0.45239 -0.729422,-1.4128 -0.731281,-1.99207 -5.5e-4,-0.15896 0.214229,-0.52983 0.477212,-0.82415 l 0.478148,-0.53514 1.813371,0.21035 c 2.282991,0.26482 3.137641,0.62089 3.534206,1.47244 0.63813,1.37026 1.27403,2.2154 1.796715,2.3879 0.285735,0.0943 0.961095,0.43906 1.500791,0.76612 0.903065,0.54725 1.061245,0.58845 1.98447,0.51691 1.43147,-0.11095 2.41605,-0.69336 4.161115,-2.46146 l 1.49787,-1.51764 0.13611,-1.52971 c 0.288695,-3.24457 0.291795,-5.32386 0.0084,-5.97795 -0.146325,-0.33833 -0.38789,-0.66755 -0.53681,-0.7316 -0.363725,-0.15646 -8.014631,-0.3059 -8.735661,-0.17063 -0.468995,0.0879 -0.62524,0.23189 -0.881765,0.81216 -0.36439,0.82427 -1.84427,2.44629 -2.8531,3.12715 -0.542397,0.36606 -0.892341,0.4741 -1.519841,0.46923 -0.448368,-0.004 -1.300723,0.0456 -1.894133,0.10923 -0.988184,0.10584 -1.172939,0.0716 -2.196742,-0.40707 -1.326202,-0.62005 -1.567649,-0.99352 -1.30677,-2.02128 0.121415,-0.47835 0.124371,-1.01565 0.0094,-1.71736 -0.323954,-1.97777 0.02683,-3.3255 1.339411,-5.14595 0.880371,-1.22103 0.965841,-1.29159 1.564524,-1.29159 0.548053,0 1.356347,-0.34061 1.621476,-0.68329 0.04586,-0.0593 0.375026,-0.30469 0.731544,-0.54548 0.590268,-0.39864 0.794067,-0.43778 2.279616,-0.43778 1.076565,0 1.706295,-0.0708 1.851625,-0.20833 0.121125,-0.11457 0.50146,-0.41837 0.845185,-0.6751 0.58939,-0.44022 0.62496,-0.51877 0.62496,-1.38027 0,-1.24179 0.28372,-1.82131 1.435516,-2.93213 0.539545,-0.52036 1.355965,-1.32745 1.814265,-1.7935 0.56116,-0.57068 0.93378,-0.82328 1.141025,-0.77353 0.19648,0.0472 0.57665,-0.17398 1.05155,-0.61174 0.724415,-0.66774 0.779405,-0.68741 2.10878,-0.75404 l 1.364965,-0.0684 1.41657,0.94744 c 0.77912,0.5211 1.781945,1.31136 2.2285,1.75614 0.782786,0.77967 0.808006,0.83446 0.702871,1.52622 -0.102765,0.67626 -0.205485,0.78939 -1.786086,1.96743 -0.92237,0.68747 -1.78431,1.45616 -1.915415,1.70823 -0.131095,0.25206 -0.30514,0.4583 -0.38677,0.4583 -0.0816,0 -0.45592,0.28123 -0.831775,0.62496 -0.375865,0.34372 -0.874075,0.76306 -1.107145,0.93185 -0.42732,0.30949 -0.444995,0.53361 -0.1303,1.65132 0.12411,0.44081 0.85758,0.35637 1.80955,-0.20833 1.384565,-0.82128 2.81234,-0.5611 4.076131,0.7428 0.462015,0.47668 0.57423,0.73628 0.631105,1.46005 0.0835,1.06257 -0.202325,1.81404 -1.036556,2.72522 -0.927875,1.01345 -1.302425,1.85069 -1.374085,3.07143 -0.13443,2.2903 -0.107795,2.56337 0.334875,3.43375 0.42835,0.84227 0.43017,0.86183 0.18526,1.99987 -0.33168,1.54127 -0.33691,1.46663 0.208705,2.9825 0.77303,2.14774 0.69525,2.42702 -1.2321,4.42377 -1.37308,1.42252 -1.7319,1.70158 -2.498745,1.9433 -0.492485,0.15525 -1.196565,0.54003 -1.56462,0.85507 l -0.669195,0.5728 -0.65368,-0.6383 c -0.62559,-0.61087 -0.70211,-0.63853 -1.78019,-0.64359 -1.565255,-0.007 -2.941946,0.62305 -3.727861,1.70699 -0.310805,0.42866 -0.594735,0.85439 -0.630975,0.94605 -0.15045,0.38062 -1.05998,1.4162 -1.239705,1.41151 -0.10688,-0.002 -0.32254,-0.0798 -0.479265,-0.17119 z M 37.365558,156.82146 c -0.149086,-0.38851 0.06028,-1.7291 0.339424,-2.17339 0.276556,-0.44016 0.302891,-1.73692 0.05177,-2.54847 -0.09909,-0.32021 -0.197123,-1.07262 -0.21785,-1.67203 -0.02821,-0.81635 -0.168035,-1.36836 -0.557131,-2.19985 -0.509505,-1.08879 -0.537244,-1.11519 -1.449684,-1.38044 -0.571794,-0.16624 -1.163598,-0.49053 -1.535871,-0.84162 -0.3331,-0.31416 -0.661041,-0.5712 -0.728759,-0.5712 -0.06772,0 -0.214291,-0.20622 -0.325713,-0.4583 -0.220558,-0.49897 -3.247489,-2.81192 -4.612882,-3.52482 -0.847171,-0.44232 -1.14239,-0.64073 -2.541797,-1.70824 -0.438625,-0.3346 -1.127884,-0.7749 -1.531694,-0.97843 -0.403811,-0.20355 -0.83526,-0.45127 -0.958774,-0.55048 -0.123514,-0.0992 -0.376372,-0.20354 -0.561898,-0.23186 -0.665235,-0.10149 -1.535693,-0.98159 -1.846408,-1.8668 -0.164839,-0.4696 -0.521315,-1.10622 -0.792169,-1.41471 -0.888341,-1.01176 -0.986653,-1.47327 -1.004333,-4.71453 -0.0089,-1.63203 0.02677,-3.07981 0.07921,-3.21729 0.05247,-0.1375 0.204277,-0.98654 0.337364,-1.88678 0.262069,-1.77266 0.40218,-2.04861 1.212048,-2.38713 1.297204,-0.54224 3.03247,-0.37417 4.314453,0.4179 0.479163,0.29604 0.507136,0.36642 0.415532,1.0451 -0.05405,0.40024 -0.0099,1.14018 0.09798,1.6443 0.528282,2.468 0.636187,3.38611 0.597423,5.08301 -0.03698,1.61893 0.009,1.97493 0.39333,3.04544 0.269281,0.75006 0.57117,1.29012 0.79183,1.41657 0.767391,0.43976 27.444101,0.43976 28.211491,0 0.22066,-0.12645 0.52255,-0.66651 0.79183,-1.41657 0.38434,-1.07051 0.430315,-1.42651 0.39333,-3.04544 -0.03875,-1.6969 0.06914,-2.61501 0.597425,-5.08301 0.10791,-0.50412 0.152,-1.24406 0.09798,-1.6443 -0.0916,-0.67868 -0.06363,-0.74906 0.41553,-1.0451 1.281991,-0.79207 3.017256,-0.96014 4.314456,-0.4179 0.80987,0.33852 0.94997,0.61447 1.212045,2.38713 0.133095,0.90024 0.284915,1.74928 0.337365,1.88678 0.0525,0.13748 0.08805,1.58526 0.07916,3.21729 -0.01765,3.24126 -0.115995,3.70277 -1.00434,4.71453 -0.270845,0.30849 -0.627325,0.94511 -0.79216,1.41471 -0.310715,0.88521 -1.181175,1.76528 -1.84641,1.8668 -0.18554,0.0284 -0.438385,0.13266 -0.5619,0.23186 -0.12351,0.0992 -0.55496,0.34693 -0.958781,0.55048 -0.403805,0.20353 -1.093065,0.64383 -1.53169,0.97843 -1.399405,1.06751 -1.694625,1.26592 -2.541795,1.70824 -1.365395,0.7129 -4.392327,3.02585 -4.612886,3.52482 -0.11142,0.25208 -0.257993,0.4583 -0.325712,0.4583 -0.06772,0 -0.395659,0.25704 -0.728759,0.5712 -0.372272,0.35109 -0.964076,0.67538 -1.53587,0.84162 -0.91244,0.26525 -0.94018,0.29165 -1.449684,1.38044 -0.389097,0.83149 -0.5289,1.3835 -0.557131,2.19985 -0.02072,0.59941 -0.118757,1.35182 -0.21785,1.67203 -0.25114,0.81155 -0.224804,2.10831 0.05177,2.54847 0.279158,0.44429 0.488511,1.78488 0.339424,2.17339 -0.130448,0.33995 -0.462622,0.36075 -0.724369,0.0454 -0.14299,-0.17229 -0.450328,-0.21031 -1.171479,-0.14492 -0.958748,0.0869 -0.982764,0.0787 -1.243139,-0.42478 -0.146025,-0.28238 -0.265507,-0.74215 -0.265507,-1.02168 0,-0.42302 -0.06597,-0.50825 -0.393418,-0.50825 -0.311437,0 -0.506846,0.21281 -0.937697,1.02118 l -0.544281,1.02117 -0.972065,-0.0882 c -0.715968,-0.0649 -1.023134,-0.0265 -1.16591,0.14543 -0.261747,0.31538 -0.593921,0.29459 -0.72437,-0.0454 z"
       id="path3977"
       inkscape:connector-curvature="0" />
    <rect
       style="fill:none;fill-opacity:1;stroke:none;stroke-width:1.40008688;stroke-linecap:round;stroke-linejoin:round;stroke-miterlimit:4;stroke-dasharray:none;stroke-opacity:0.5"
       id="rect2033"
       width="67.733337"
       height="67.733337"
       x="7.5697803"
       y="122.17967" />
  </g>
</svg>
