<?xml version="1.0" encoding="UTF-8" standalone="no"?>
<!-- Created with Inkscape (http://www.inkscape.org/) -->

<svg
   xmlns:dc="http://purl.org/dc/elements/1.1/"
   xmlns:cc="http://creativecommons.org/ns#"
   xmlns:rdf="http://www.w3.org/1999/02/22-rdf-syntax-ns#"
   xmlns:svg="http://www.w3.org/2000/svg"
   xmlns="http://www.w3.org/2000/svg"
   xmlns:sodipodi="http://sodipodi.sourceforge.net/DTD/sodipodi-0.dtd"
   xmlns:inkscape="http://www.inkscape.org/namespaces/inkscape"
   width="265.52475"
   height="470.33926"
   viewBox="0 0 70.253424 124.44393"
   version="1.1"
   id="svg3496"
   inkscape:version="0.92.5 (2060ec1f9f, 2020-04-08)"
   sodipodi:docname="enky.svg">
  <defs
     id="defs3490" />
  <sodipodi:namedview
     id="base"
     pagecolor="#ffffff"
     bordercolor="#666666"
     borderopacity="1.0"
     inkscape:pageopacity="0.0"
     inkscape:pageshadow="2"
     inkscape:zoom="0.12500001"
     inkscape:cx="2574.5181"
     inkscape:cy="-1744.7463"
     inkscape:document-units="px"
     inkscape:current-layer="layer1"
     showgrid="false"
     units="px"
     fit-margin-top="0"
     fit-margin-left="0"
     fit-margin-right="0"
     fit-margin-bottom="0"
     inkscape:window-width="1920"
     inkscape:window-height="1136"
     inkscape:window-x="0"
     inkscape:window-y="27"
     inkscape:window-maximized="1">
    <inkscape:grid
       type="xygrid"
       id="grid4118"
       originx="217.30941"
       originy="245.42658" />
  </sodipodi:namedview>
  <metadata
     id="metadata3493">
    <rdf:RDF>
      <cc:Work
         rdf:about="">
        <dc:format>image/svg+xml</dc:format>
        <dc:type
           rdf:resource="http://purl.org/dc/dcmitype/StillImage" />
        <dc:title></dc:title>
      </cc:Work>
    </rdf:RDF>
  </metadata>
  <g
     inkscape:label="Layer 1"
     inkscape:groupmode="layer"
     id="layer1"
     transform="translate(217.30944,-417.98261)">
    <path
       style="fill:#b30000;fill-opacity:1;stroke:none;stroke-width:0.99999994px;stroke-linecap:butt;stroke-linejoin:miter;stroke-opacity:1"
       d="m 1452.7285,995.9082 c -3.5677,-0.006 -7.1477,0.28114 -10.584,1.1543 -5.0101,1.27317 -9.578,3.9369 -14.1425,6.3633 -5.1404,2.7324 -10.5055,5.3162 -14.8497,9.1914 -2.1289,1.8991 -3.057,4.9593 -5.3027,6.7187 -1.121,0.8782 -2.4806,1.9804 -3.8887,1.7676 -2.8063,-0.4241 -3.7698,-4.5075 -6.3652,-5.6562 -3.0347,-1.3432 -6.5974,-1.4021 -9.8984,-1.0606 -4.1891,0.4334 -8.3396,1.8442 -12.0215,3.8887 -4.3139,2.3953 -8.1829,5.7301 -11.3125,9.5449 -2.4758,3.0178 -4.0917,6.6787 -5.6582,10.2539 -1.3461,3.0722 -2.6848,6.2278 -3.1817,9.5449 -0.716,4.78 0.094,9.6698 0.3536,14.4961 0.2286,4.2512 1.3375,8.4802 1.0605,12.7286 -0.4707,7.2189 -3.3931,14.0783 -4.5957,21.2128 -1.3024,7.7262 -3.4095,15.5205 -2.8281,23.334 0.7892,10.6067 5.1571,20.6576 8.4843,30.7598 3.5946,10.9136 7.296,21.867 12.375,32.1738 5.4946,11.15 12.6716,21.3958 19.4454,31.8184 5.5401,8.5245 12.0494,16.4123 17.3242,25.1035 3.5284,5.8138 7.9056,11.431 9.5449,18.0312 0.4829,1.9444 1.0696,4.3157 0,6.0098 -1.4634,2.3178 -4.7086,3.159 -7.4238,3.5352 -4.8555,0.6726 -9.699,-1.467 -14.4961,-2.4746 -3.8043,-0.7991 -7.4536,-3.2972 -11.3125,-2.8282 -4.5007,0.5471 -8.4466,3.5748 -12.0215,6.3633 -5.0007,3.9007 -9.5039,8.6815 -12.7285,14.1426 -3.1079,5.2633 -5.5393,11.23 -6.0098,17.3242 -0.5071,6.5686 1.7602,13.1009 3.5352,19.4453 1.598,5.712 4.0523,11.1546 6.3633,16.6172 1.4165,3.3507 4.668,6.2629 4.5976,9.9004 -0.1051,5.4278 -6.093,9.2315 -7.4258,14.4941 -1.2733,5.0281 -1.3519,10.4669 -0.3535,15.5567 1.1379,5.8008 3.1493,11.8416 7.0723,16.2637 3.7156,4.1882 10.1757,4.9228 14.4941,8.4863 4.9597,4.0926 9.2619,9.0784 12.7285,14.4941 3.1288,4.8879 1.6097,13.9503 7.0723,15.9102 1.4883,0.5339 3.1793,-0.9505 4.2422,-2.1211 3.3102,-3.646 2.7288,-9.5909 5.3027,-13.7891 2.4862,-4.0551 7.4557,-6.3332 9.5469,-10.6054 2.053,-4.1942 2.0605,-9.1379 2.4746,-13.7891 0.4703,-5.2824 0.5719,-10.6378 0,-15.9102 -0.5334,-4.918 -1.7278,-9.7676 -3.1816,-14.4961 -1.1192,-3.6397 -3.4523,-6.8808 -4.2442,-10.6054 -0.6376,-2.9995 -3.2107,-8.0803 -0.3535,-9.1934 5.7649,-2.2457 8.5881,8.9958 12.0215,14.1426 3.4515,5.1737 6.2352,10.8187 8.4844,16.6172 2.2539,5.8109 4.7521,11.8017 4.9511,18.0312 0.223,6.9766 -1.7055,14.0037 -4.2441,20.5059 -2.7491,7.0414 -7.3987,13.206 -11.666,19.4453 -3.3669,4.9228 -7.9719,8.9817 -10.961,14.1426 -2.1717,3.7498 -4.1152,10.5991 -4.9492,16.1758 -0.3529,2.3598 0,7.1582 0,7.1582 h 154.1485 c 0,0 2.6116,-23.5423 2.4765,-35.3555 -0.058,-5.0891 -0.2618,-10.2462 -1.416,-15.2031 -1.5733,-6.7575 -4.9683,-12.9562 -7.4238,-19.4453 -2.4946,-6.5923 -4.4667,-13.4007 -7.4238,-19.7989 -2.5453,-5.507 -7.0685,-10.1078 -8.8399,-15.9101 -1.2088,-3.9595 -0.8836,-8.2369 -1.0605,-12.3731 -0.1762,-4.121 -1.7588,-8.6439 0,-12.375 2.6057,-5.5278 10.5676,-6.7114 14.1425,-11.6679 3.2519,-4.5087 5.1774,-10.0584 6.0098,-15.5547 0.7783,-5.1389 0.3809,-10.563 -1.0605,-15.5567 -1.4477,-5.0154 -6.5434,-8.6437 -7.4239,-13.789 -0.6437,-3.7623 0.6235,-7.673 1.7676,-11.3145 1.6114,-5.1289 6.297,-9.1739 7.0703,-14.4941 0.7219,-4.9659 -0.8379,-10.106 -2.4746,-14.8496 -1.4449,-4.1878 -3.3088,-8.4594 -6.3633,-11.668 -3.4283,-3.6013 -7.8849,-6.6549 -12.7285,-7.7773 -4.9579,-1.1499 -10.4504,-0.4066 -15.2031,1.414 -4.7983,1.8381 -8.2055,6.1857 -12.3731,9.1914 -3.5003,2.5245 -6.2931,7.3171 -10.6074,7.4258 -7.0933,0.1788 -13.6677,-5.7192 -18.0312,-11.3145 -3.0482,-3.9086 -4.9336,-9.1973 -4.5957,-14.1425 0.2766,-4.0492 1.2813,-10.4108 5.3027,-10.959 3.8887,-0.5302 5.3871,5.725 7.7773,8.8379 2.8467,3.7072 3.2412,10.5491 7.7793,11.6679 1.4338,0.3534 2.7497,-1.1822 3.8887,-2.121 2.7119,-2.2376 4.4655,-5.434 6.7188,-8.1329 3.1623,-3.7877 5.978,-7.9031 9.5449,-11.3125 2.7945,-2.6711 6.6315,-4.1771 9.1933,-7.0722 1.9958,-2.2553 2.7758,-5.3779 4.5958,-7.7774 2.3665,-3.1213 5.9338,-5.2428 8.1308,-8.4863 1.5972,-2.3579 2.9323,-4.9939 3.5352,-7.7773 0.973,-4.4921 1.1312,-9.3343 0,-13.7891 -1.1551,-4.549 -3.9431,-8.5889 -6.7168,-12.375 -2.7092,-3.6979 -5.23,-8.3509 -9.545,-9.8984 -2.9033,-1.0413 -6.4037,2.3765 -9.1933,1.0605 -4.3164,-2.0363 -5.0476,-8.1066 -7.7774,-12.0215 -2.6962,-3.8668 -5.884,-7.3817 -8.4863,-11.3125 -2.332,-3.5226 -2.6339,-8.9762 -6.3633,-10.9609 -1.564,-0.8323 -3.8105,-0.5985 -5.3047,0.3535 -2.2686,1.4454 -1.7706,5.4139 -3.8886,7.0723 -2.881,2.2558 -7.5305,0.8448 -10.6055,2.8281 -4.2227,2.7236 -6.3863,7.7595 -9.5469,11.666 -2.3732,2.9333 -5.567,5.3791 -7.0703,8.8398 -2.2775,5.2434 -2.9797,11.2764 -2.4746,16.9708 0.5268,5.9386 3.8566,11.2859 5.6563,16.9707 1.114,3.519 3.9209,6.989 3.1816,10.6054 -0.3685,1.8036 -1.8681,3.4633 -3.5352,4.2442 -1.2806,0.5998 -3.0421,0.7482 -4.2421,0 -5.6801,-3.5415 -6.6318,-11.7123 -8.8399,-18.0313 -1.9902,-5.6958 -3.6537,-11.6488 -3.8887,-17.6777 -0.1991,-5.1128 0.1388,-10.4861 2.1211,-15.2031 2.0184,-4.8026 6.3217,-8.284 9.5469,-12.375 3.3729,-4.2784 6.3265,-8.9508 10.252,-12.7286 4.5515,-4.3802 10.3264,-7.2974 15.2031,-11.3125 2.7051,-2.2271 5.3108,-4.5835 7.7773,-7.0722 3.1141,-3.1421 6.473,-6.1612 8.8399,-9.8985 1.7801,-2.8108 3.4476,-5.8956 3.8886,-9.1933 0.5833,-4.3613 -1.1883,-8.7183 -1.7675,-13.0801 -0.3598,-2.7098 0.2885,-5.7553 -1.0606,-8.1328 -1.4079,-2.4813 -5.3375,-2.8055 -6.7168,-5.3028 -1.6045,-2.9041 -0.8835,-6.5863 -1.0605,-9.9003 -0.22,-4.119 1.4365,-8.5065 0,-12.3731 -1.5715,-4.2298 -5.438,-7.2893 -8.8399,-10.2539 -3.598,-3.1356 -7.5748,-6.0439 -12.0215,-7.77734 -4.5661,-1.78034 -9.5977,-2.24372 -14.4941,-2.47461 -1.1805,-0.0557 -2.3694,-0.0918 -3.5586,-0.0937 z m 4.3985,8.75 c 2.3083,-10e-5 4.6162,0.2357 6.8496,0.7109 2.6188,0.5573 5.1361,1.7451 7.3359,3.2715 2.0027,1.3897 3.546,3.3595 5.127,5.2149 1.7083,2.0049 3.8429,3.8669 4.6835,6.3633 0.6207,1.8423 0.4939,3.932 0.088,5.8339 -0.3934,1.8434 -1.2049,3.657 -2.3847,5.127 -1.789,2.2289 -4.4455,3.6045 -6.8067,5.2148 -2.872,1.9588 -5.803,3.8671 -8.9277,5.3907 -2.9756,1.4508 -6.0165,2.9888 -9.2813,3.5371 -2.7906,0.4686 -5.6815,0.1239 -8.4843,-0.2657 -3.2488,-0.4515 -6.5245,-1.1127 -9.5469,-2.3867 -2.9988,-1.264 -6.1798,-2.6638 -8.3066,-5.1269 -1.5094,-1.7481 -2.274,-4.1013 -2.7403,-6.3633 -0.6007,-2.9145 -1.0943,-6.1605 0,-8.9277 0.9505,-2.4036 3.3458,-3.9679 5.3028,-5.6563 2.7413,-2.3651 5.7723,-4.4121 8.9277,-6.1875 3.5978,-2.0243 7.2745,-4.1806 11.3125,-5.0391 2.2334,-0.4748 4.5432,-0.7108 6.8516,-0.7109 z m -72.7911,21.9004 c 0.6568,0 1.309,0.058 1.9473,0.2012 2.9502,0.6623 5.7257,2.5778 7.6016,4.9492 2.0004,2.529 2.7162,5.9287 3.2695,9.1055 0.6117,3.5121 0.6797,7.1937 0,10.6933 -0.6603,3.3997 -1.5967,7.0385 -3.8887,9.6348 -2.1647,2.4521 -5.4298,3.8727 -8.5742,4.7734 -1.7015,0.4874 -3.5468,0.4881 -5.3027,0.2656 -1.8675,-0.2366 -3.7554,-0.7507 -5.3926,-1.6796 -2.958,-1.6784 -5.9935,-3.8099 -7.6016,-6.8067 -1.5485,-2.8858 -1.6484,-6.456 -1.414,-9.7226 0.2154,-3.0034 1.411,-5.8806 2.5644,-8.6622 1.0151,-2.4479 1.9873,-5.05 3.8008,-6.9824 1.9299,-2.0564 4.5078,-3.5442 7.1582,-4.5078 1.8444,-0.6706 3.8618,-1.2536 5.832,-1.2617 z m 44.3926,21.8281 c 2.6286,-0.01 5.3053,0.6263 7.7715,1.4883 2.7727,0.9691 5.3179,2.659 7.5,4.625 1.8761,1.6902 3.1989,3.916 4.625,6 1.3196,1.9284 2.6229,3.8891 3.625,6 1.0626,2.2382 1.9303,4.5887 2.5,7 0.7143,3.0228 1.2097,6.1451 1.125,9.25 -0.072,2.6227 -0.3811,5.3219 -1.375,7.75 -0.9763,2.3852 -2.7508,4.3739 -4.375,6.375 -1.5972,1.9679 -3.3088,3.8705 -5.25,5.5 -2.5314,2.125 -5.4037,3.8201 -8.25,5.5 -2.1827,1.2882 -4.3795,2.6032 -6.75,3.5 -2.8923,1.0942 -5.9237,1.9363 -9,2.25 -1.9914,0.2032 -4.0784,0.3106 -6,-0.25 -1.4339,-0.4183 -2.8086,-1.2042 -3.875,-2.25 -0.9745,-0.9556 -1.3478,-2.378 -2.125,-3.5 -0.8449,-1.2197 -1.4156,-2.8514 -2.75,-3.5 -1.499,-0.7285 -3.4919,0.7095 -5,0 -1.4193,-0.6677 -2.3061,-2.2184 -3,-3.625 -0.9078,-1.8401 -1.132,-3.9626 -1.375,-6 -0.4048,-3.3928 -0.3011,-6.8377 -0.125,-10.25 0.1493,-2.8904 -0.031,-5.9207 1,-8.625 0.9803,-2.5707 3.0892,-4.5566 4.75,-6.75 1.9131,-2.5266 3.8114,-5.0829 6,-7.375 2.8938,-3.0306 5.943,-5.9708 9.375,-8.375 2.5956,-1.8183 5.2609,-3.9121 8.375,-4.5 0.8557,-0.1615 1.7273,-0.2354 2.6035,-0.2383 z m 60.3262,2.0488 c 0.602,0.018 1.2111,0.1385 1.7031,0.4551 0.9418,0.6061 1.5217,1.7035 1.9453,2.7403 0.5643,1.381 0.5226,2.9375 0.7071,4.4179 0.2046,1.6438 0.5309,3.2971 0.4414,4.9512 -0.09,1.6501 -0.3575,3.3276 -0.9727,4.8613 -0.6755,1.6841 -1.735,3.2182 -2.916,4.5957 -1.2231,1.4267 -2.5462,2.9091 -4.2441,3.7129 -0.972,0.4598 -2.1194,0.696 -3.1817,0.5293 -1.0154,-0.1593 -1.9825,-0.7195 -2.7402,-1.414 -0.9762,-0.8948 -1.6784,-2.1114 -2.1211,-3.3594 -0.8333,-2.3489 -1.0212,-4.9354 -0.8828,-7.4238 0.1294,-2.3262 0.574,-4.71 1.5898,-6.8067 0.969,-2.0001 2.3383,-3.9336 4.1543,-5.2148 1.7054,-1.2032 3.84,-1.8866 5.9219,-2.0332 0.1945,-0.014 0.395,-0.018 0.5957,-0.012 z m -2.2109,65.2403 c 1.3331,0.029 2.6565,0.219 3.9062,0.5742 2.9912,0.8502 5.2865,3.3252 7.625,5.375 1.663,1.4577 3.2038,3.0832 4.5,4.875 1.5086,2.0855 2.5311,4.483 3.75,6.75 1.112,2.0682 2.6924,3.969 3.25,6.25 0.8312,3.3999 0.3163,7.0143 0,10.5 -0.2719,2.9952 0.01,6.3481 -1.625,8.875 -1.4291,2.2141 -4.3361,2.9961 -6.5,4.5 -1.7939,1.2468 -3.6588,2.3982 -5.375,3.75 -1.9245,1.5159 -3.4097,3.5973 -5.5,4.875 -1.5646,0.9564 -3.299,2.1689 -5.125,2 -2.1989,-0.2035 -3.778,-2.2895 -5.625,-3.5 -2.4553,-1.6092 -5.0056,-3.1078 -7.25,-5 -1.9148,-1.6143 -3.9241,-3.2503 -5.25,-5.375 -1.7094,-2.7393 -2.4287,-6.0024 -3.25,-9.125 -0.7422,-2.8222 -1.5302,-5.707 -1.5,-8.625 0.033,-3.2685 0.414,-6.701 1.875,-9.625 1.8065,-3.6155 5.278,-6.1313 8.125,-9 2.389,-2.4072 4.3777,-5.551 7.5,-6.875 1.9936,-0.8453 4.2461,-1.2472 6.4688,-1.1992 z m 36.1152,28.2519 c 1.0841,-0.022 2.2408,0.2548 3.291,0.4473 1.2711,0.233 2.6175,0.5658 3.625,1.375 1.1263,0.9046 1.697,2.3494 2.375,3.625 0.6574,1.2368 1.2265,2.5322 1.625,3.875 0.5301,1.7864 0.8152,3.6458 1,5.5 0.2192,2.1978 0.8286,4.5313 0.125,6.625 -0.5576,1.6593 -2.0777,2.825 -3.25,4.125 -1.3222,1.4661 -2.4306,3.3585 -4.25,4.125 -1.4213,0.5988 -3.1853,0.6779 -4.625,0.125 -2.201,-0.8453 -3.7789,-2.9393 -5.125,-4.875 -1.2682,-1.8237 -2.2875,-3.9295 -2.625,-6.125 -0.382,-2.4833 0.2074,-5.0468 0.75,-7.5 0.4097,-1.8528 1.0616,-3.6606 1.875,-5.375 0.9221,-1.9434 1.4979,-4.4496 3.375,-5.5 0.559,-0.3129 1.1835,-0.4338 1.834,-0.4473 z m 10.3769,84.1504 c 0.3604,-0.02 0.7226,-0.01 1.086,0.031 2.8921,0.3285 5.2405,2.6707 7.4238,4.5957 2.6714,2.3553 5.3404,5.0247 6.7188,8.3086 1.1937,2.8441 1.7542,6.1859 1.0605,9.1914 -0.5661,2.4528 -2.2698,4.6019 -4.0664,6.3652 -1.5291,1.5007 -3.3486,3.1443 -5.4805,3.3574 -2.5598,0.2558 -5.0879,-1.2533 -7.248,-2.6504 -2.9041,-1.8782 -4.6617,-5.1296 -7.2481,-7.4257 -2.3885,-2.1205 -6.4442,-2.8544 -7.5996,-5.8321 -0.9742,-2.5108 0.012,-5.6554 1.4141,-7.955 1.4661,-2.4052 4.2315,-3.8014 6.7168,-5.127 2.2587,-1.2047 4.7001,-2.7208 7.2226,-2.8594 z m -35.3379,28.4004 c 4.8632,0.01 9.7581,0.7557 14.3262,2.0352 5.3531,1.4993 9.9412,5.1995 14.1426,8.8398 3.3814,2.9298 6.4992,6.3354 8.6621,10.252 3.1982,5.7912 5.9176,12.3009 6.0098,18.916 0.074,5.3335 -2.0563,10.5962 -4.418,15.3789 -2.6299,5.3258 -5.9402,10.6463 -10.6074,14.3203 -5.5811,4.3935 -12.5489,7.6701 -19.6231,8.3086 -6.9766,0.6297 -14.1161,-1.7269 -20.5058,-4.5977 -4.9674,-2.2317 -9.8402,-5.3051 -13.2578,-9.5449 -4.6374,-5.7528 -7.2564,-13.1121 -8.8379,-20.3301 -1.1858,-5.4118 -1.8756,-11.2901 -0.3535,-16.6171 1.7781,-6.2232 6.334,-11.4013 10.6054,-16.2637 2.8135,-3.2028 5.7326,-6.8077 9.7227,-8.3086 4.4401,-1.6702 9.2715,-2.3979 14.1347,-2.3887 z m -104.1132,14.9414 c 2.5027,0.1449 4.6399,1.9079 6.8945,3.0039 2.3474,1.1412 4.9568,1.9621 6.8926,3.7129 1.9515,1.7651 3.0059,4.3219 4.4199,6.541 1.8463,2.8977 4.3856,5.5267 5.3027,8.8379 1.0224,3.6912 0.9899,7.7902 0,11.4903 -1.0369,3.8762 -3.2481,7.5187 -6.0097,10.4296 -1.7886,1.8854 -4.37,2.8163 -6.541,4.2442 -2.1302,1.4008 -3.8317,3.9406 -6.3633,4.2422 -2.5545,0.3045 -4.4597,0.015 -6.9981,-0.4024 -2.3846,-0.3925 -5.1587,-1.4658 -7.498,-2.0722 -3.375,-0.875 -6.5565,-2.8334 -9.0156,-5.3047 -2.645,-2.6577 -4.4671,-6.1667 -5.6563,-9.7227 -1.5807,-4.7273 -2.7841,-9.9677 -1.7676,-14.8476 0.7379,-3.5421 3.5379,-7.5669 5.4805,-10.6192 1.6148,-2.5372 2.5472,-4.6266 5.125,-6.1758 2.1864,-1.3139 5.1044,-0.362 7.6016,-0.8828 2.7736,-0.5784 5.3042,-2.6382 8.1328,-2.4746 z m 4.6836,75.1499 c 0.9281,0.2603 1.7374,0.9203 2.3867,1.6328 3.6769,4.0348 7.9551,14.3145 7.9551,14.3145 v 0 c 0,0 1.6374,1.9704 1.9453,3.1719 1.2099,4.721 1.1219,10.0862 -0.7071,14.6035 -0.352,0.8693 -1.1861,1.4583 -1.8574,2.1132 -0.9439,0.9208 -1.977,1.7503 -3.0351,2.5372 -3.4728,2.5824 -6.7146,5.8406 -10.8418,7.1425 -1.0678,0.3368 -2.2578,0.3064 -3.3575,0.096 -2.9938,-0.5728 -5.6812,-2.2359 -8.3984,-3.6171 -1.4644,-0.7444 -3.0109,-1.4206 -4.2422,-2.5079 -1.5171,-1.3398 -2.7118,-3.0455 -3.7129,-4.8046 -1.5839,-2.7834 -2.7586,-5.8266 -3.5351,-8.9336 -0.5627,-2.2516 -0.9914,-4.6064 -0.7852,-6.918 0.3952,-4.4311 1.3945,-9.0612 3.8281,-12.7852 0.7102,-1.0869 1.8365,-1.886 2.9688,-2.5214 2.6389,-1.4808 5.6472,-2.2844 8.6211,-2.8438 4.1885,-0.7878 8.664,-1.8307 12.7676,-0.68 z"
       transform="matrix(0.26458333,0,0,0.26458333,-569.10931,154.48193)"
       id="path5171"
       inkscape:connector-curvature="0"
       sodipodi:nodetypes="scccccccccccccccccccccccccccccccccccccccsccccccccscsccscccccccccccccccccccccccccccccccccccccccccccccccccccccccccccccccccscccccccccccccccccssccsssccccccccsscccccccccccccccccccccccccsccccccccccccsccccccccccscccccccccccccccccccccccccccccccccccccccccccccccccccccccccccccscccccccccccccssssaaaaaaaaaaaaaaaaaaa" />
    <path
       style="fill:#b30000;fill-opacity:1;stroke:none;stroke-width:0.26458332px;stroke-linecap:butt;stroke-linejoin:miter;stroke-opacity:1"
       d="m -149.65652,463.46972 c -1.91123,1.01091 -3.57756,2.43237 -5.42557,3.55468 -0.87108,0.52902 -1.83864,0.90165 -2.66602,1.4967 -0.7169,0.51559 -1.20705,1.32332 -1.96443,1.77736 -0.55409,0.33217 -1.28956,0.29203 -1.82412,0.65479 -0.29247,0.19848 -0.58081,0.46293 -0.70156,0.79513 -0.2078,0.57164 -0.14348,1.24641 0.0468,1.82412 0.11907,0.36152 0.34688,0.71174 0.65481,0.93546 0.4748,0.34496 1.09693,0.51381 1.68381,0.51448 0.5376,6.2e-4 1.10717,-0.15365 1.54348,-0.46773 0.48099,-0.34624 0.58268,-1.06 1.02899,-1.44992 0.55668,-0.48634 1.42442,-0.52419 1.96442,-1.02899 0.41411,-0.38712 0.47747,-1.05976 0.88869,-1.44994 0.45042,-0.42736 1.2546,-0.39954 1.63703,-0.88869 0.26784,-0.34259 0.1115,-0.88535 0.32739,-1.26283 0.3065,-0.5359 0.8583,-0.88838 1.30961,-1.30963 0.46853,-0.43733 1.0017,-0.80472 1.44994,-1.26283 0.51096,-0.52222 1.03903,-1.05041 1.40317,-1.68381 0.27285,-0.47461 0.95684,-1.16503 0.56126,-1.54347 -0.50003,-0.47837 -1.306,0.47157 -1.9177,0.79512 z"
       id="path5195"
       inkscape:connector-curvature="0"
       sodipodi:nodetypes="ssssssssssssssssssss" />
    <path
       style="fill:#b30000;fill-opacity:1;stroke:none;stroke-width:0.26458332px;stroke-linecap:butt;stroke-linejoin:miter;stroke-opacity:1"
       d="m -156.3917,507.06136 c -0.68475,0.34016 -1.24929,0.89702 -1.77737,1.44995 -0.41565,0.43521 -0.86427,0.88651 -1.07574,1.44994 -0.1374,0.36608 -0.19713,0.79227 -0.0935,1.1693 0.12153,0.44214 0.48233,0.78726 0.79512,1.12255 0.3023,0.32405 0.63959,0.63029 1.02899,0.84187 0.35959,0.19538 0.79092,0.53009 1.16931,0.3742 0.4062,-0.16734 0.37215,-0.7987 0.60803,-1.16932 0.31645,-0.4972 0.87012,-0.85085 1.07577,-1.40317 0.0926,-0.24881 -0.0875,-0.56612 0.0468,-0.79512 0.33701,-0.57448 1.1086,-0.73995 1.68378,-1.07575 0.48788,-0.28483 1.01297,-0.50333 1.49672,-0.79512 0.40361,-0.24345 0.79972,-0.50259 1.1693,-0.79513 0.398,-0.31504 0.691,-0.7617 1.12252,-1.02899 0.36922,-0.2287 0.84837,-0.23661 1.21608,-0.46773 0.30815,-0.19369 0.65806,-0.41118 0.79513,-0.74835 0.13517,-0.33251 0.0671,-0.73539 -0.0468,-1.07577 -0.096,-0.28707 -0.23751,-0.62622 -0.5145,-0.74834 -0.5185,-0.22859 -1.13474,0.0937 -1.68379,0.23386 -0.59762,0.15251 -1.17754,0.38174 -1.73058,0.65479 -0.47716,0.23558 -0.89656,0.57408 -1.35639,0.84191 -0.33761,0.19664 -0.70094,0.34905 -1.02899,0.56126 -0.47651,0.30824 -0.84376,0.78551 -1.35639,1.02899 -0.4782,0.22713 -1.06938,0.13864 -1.5435,0.37417 z"
       id="path5197"
       inkscape:connector-curvature="0"
       sodipodi:nodetypes="ssssssssssssssssssssssss" />
    <path
       style="fill:#b30000;fill-opacity:1;stroke:none;stroke-width:0.26458332px;stroke-linecap:butt;stroke-linejoin:miter;stroke-opacity:1"
       d="m -155.17565,515.80777 c -0.39088,0.01 -0.84017,0.15565 -1.07574,0.46773 -0.28429,0.37661 -0.24157,0.93446 -0.18709,1.40317 0.0404,0.34801 0.16725,0.69949 0.37418,0.98221 0.39978,0.54622 0.96345,1.00729 1.59025,1.26283 0.4209,0.1716 1.00666,-0.15001 1.35638,0.14034 0.33779,0.28045 0.0654,0.95077 0.37418,1.26283 0.29832,0.30145 0.79217,0.36082 1.21607,0.37417 0.40064,0.0126 0.8335,-0.0617 1.1693,-0.28062 0.34483,-0.22475 0.70468,-0.57293 0.74838,-0.98221 0.0585,-0.54789 -0.23659,-1.20114 -0.7016,-1.49672 -0.30262,-0.19236 -0.7569,0.16408 -1.07574,0 -0.47701,-0.24547 -0.58145,-0.90653 -0.93546,-1.30961 -0.40765,-0.46416 -0.83111,-0.93774 -1.35639,-1.26286 -0.45307,-0.28043 -0.96406,-0.57495 -1.49672,-0.56126 z"
       id="path5199"
       inkscape:connector-curvature="0"
       sodipodi:nodetypes="sssssssssssssss" />
    <path
       style="fill:#b30000;fill-opacity:1;stroke:none;stroke-width:0.26458332px;stroke-linecap:butt;stroke-linejoin:miter;stroke-opacity:1"
       d="m -208.82331,475.72403 c 0.87333,0.67008 1.60364,1.58666 2.61925,2.01121 0.4211,0.17603 0.93787,0.005 1.35638,0.18708 0.49791,0.21664 0.91745,0.61002 1.26286,1.029 0.31502,0.38212 0.37514,0.93719 0.70157,1.3096 0.40499,0.46203 1.08699,0.61793 1.49672,1.07577 0.38172,0.42655 0.44571,1.08355 0.8419,1.4967 0.26652,0.27793 0.72256,0.3237 0.98222,0.60804 0.23508,0.25742 0.43278,0.58857 0.4677,0.93543 0.042,0.41768 -0.0394,0.91065 -0.32739,1.21608 -0.27058,0.28697 -0.72957,0.40811 -1.12253,0.3742 -0.45868,-0.0396 -0.8467,-0.38 -1.21607,-0.65482 -0.513,-0.38168 -0.85644,-0.95779 -1.35642,-1.35638 -0.61898,-0.49346 -1.3717,-0.7963 -2.0112,-1.26286 -0.62571,-0.4565 -1.1794,-1.00442 -1.77734,-1.49672 -0.63347,-0.52155 -1.30149,-1.00159 -1.91765,-1.54348 -0.81145,-0.71363 -1.59635,-1.45973 -2.33862,-2.24506 -0.69114,-0.73124 -1.18365,-1.65719 -1.96443,-2.29183 -0.55229,-0.44891 -1.2579,-0.6673 -1.87087,-1.02899 -0.60349,-0.3561 -1.34519,-0.57096 -1.77736,-1.12254 -0.33448,-0.42689 -0.61389,-1.01035 -0.51448,-1.54348 0.0853,-0.45724 0.4549,-0.90791 0.88868,-1.07577 0.61688,-0.23871 1.39975,-0.0638 1.96443,0.28065 0.50595,0.30864 0.6276,1.0139 1.02899,1.44994 0.52456,0.56984 1.17362,1.0115 1.77733,1.4967 0.91877,0.73841 1.87115,1.434 2.80633,2.15153 z"
       id="path5203"
       inkscape:connector-curvature="0"
       sodipodi:nodetypes="ssssssssssssssssssssssssss" />
    <path
       style="fill:#b30000;fill-opacity:1;stroke:none;stroke-width:0.26458332px;stroke-linecap:butt;stroke-linejoin:miter;stroke-opacity:1"
       d="m -203.3042,487.65092 c -0.25544,-0.94521 -1.52859,-1.2273 -2.3386,-1.77734 -0.79854,-0.54225 -1.5928,-1.11403 -2.47894,-1.49672 -0.63898,-0.27595 -1.34212,-0.36952 -2.0112,-0.56126 -0.53115,-0.15221 -1.04171,-0.40139 -1.59025,-0.4677 -0.34087,-0.0412 -0.76128,-0.1682 -1.02899,0.0468 -0.32731,0.26286 -0.42225,0.80714 -0.3274,1.21608 0.11234,0.48434 0.58406,0.82475 0.98221,1.12254 0.35751,0.2674 0.87475,0.27349 1.21608,0.56126 0.46288,0.39024 0.62355,1.04707 1.02899,1.4967 0.37031,0.41068 0.76609,0.83286 1.26286,1.07577 0.41477,0.20282 0.93682,0.0879 1.35639,0.28064 0.62628,0.28764 0.94966,1.21302 1.63703,1.26283 0.57091,0.0414 1.11679,-0.41371 1.49669,-0.84188 0.45927,-0.51763 0.97566,-1.24968 0.79513,-1.91772 z"
       id="path5205"
       inkscape:connector-curvature="0"
       sodipodi:nodetypes="sssssssssssssss" />
    <path
       style="fill:#b30000;fill-opacity:1;stroke:none;stroke-width:0.26458332px;stroke-linecap:butt;stroke-linejoin:miter;stroke-opacity:1"
       d="m -203.32759,531.24257 c -0.30711,0.0154 -0.61169,0.2173 -0.79888,0.46125 -0.39299,0.51217 -0.41699,1.23068 -0.50125,1.87073 -0.1,0.7596 0.1,1.53887 0,2.29847 -0.0961,0.72977 -0.38102,1.42197 -0.57153,2.13296 -0.14164,0.52861 -0.35349,1.04325 -0.42492,1.58583 -0.0824,0.62589 -0.1303,1.27617 0,1.89386 0.0706,0.3346 0.12788,0.75179 0.41439,0.93848 3.41078,0.0112 0.89043,-0.0218 4.17404,0 0.43594,-0.19285 0.79008,-0.61355 0.96197,-1.05817 0.2386,-0.61716 0,-1.32336 0,-1.98504 0,-0.60804 0.15737,-1.2368 0,-1.82412 -0.14028,-0.52353 -0.67273,-0.88463 -0.81301,-1.40816 -0.13273,-0.49535 0.13272,-1.04312 0,-1.53847 -0.12754,-0.47602 -0.5506,-0.82508 -0.73919,-1.28038 -0.19828,-0.47871 -0.0667,-1.10669 -0.40233,-1.50148 -0.30769,-0.36197 -0.82481,-0.60952 -1.29929,-0.58576 z"
       id="path5207"
       inkscape:connector-curvature="0"
       sodipodi:nodetypes="sssssssccssssssss" />
  </g>
</svg>
