<?xml version="1.0" encoding="UTF-8" standalone="no"?>
<!-- Created with Inkscape (http://www.inkscape.org/) -->

<svg
   xmlns:dc="http://purl.org/dc/elements/1.1/"
   xmlns:cc="http://creativecommons.org/ns#"
   xmlns:rdf="http://www.w3.org/1999/02/22-rdf-syntax-ns#"
   xmlns:svg="http://www.w3.org/2000/svg"
   xmlns="http://www.w3.org/2000/svg"
   xmlns:sodipodi="http://sodipodi.sourceforge.net/DTD/sodipodi-0.dtd"
   xmlns:inkscape="http://www.inkscape.org/namespaces/inkscape"
   width="63.999996"
   height="64.000191"
   viewBox="0 0 16.933332 16.933384"
   version="1.1"
   id="svg8"
   inkscape:version="0.92.5 (2060ec1f9f, 2020-04-08)"
   sodipodi:docname="central-unit.svg">
  <defs
     id="defs2" />
  <sodipodi:namedview
     id="base"
     pagecolor="#ffffff"
     bordercolor="#666666"
     borderopacity="1.0"
     inkscape:pageopacity="0.0"
     inkscape:pageshadow="2"
     inkscape:zoom="1.2647708"
     inkscape:cx="203.77589"
     inkscape:cy="-37.140917"
     inkscape:document-units="px"
     inkscape:current-layer="layer1"
     showgrid="false"
     units="px"
     fit-margin-top="0"
     fit-margin-left="0"
     fit-margin-right="0"
     fit-margin-bottom="0"
     inkscape:window-width="1920"
     inkscape:window-height="1136"
     inkscape:window-x="0"
     inkscape:window-y="27"
     inkscape:window-maximized="1" />
  <metadata
     id="metadata5">
    <rdf:RDF>
      <cc:Work
         rdf:about="">
        <dc:format>image/svg+xml</dc:format>
        <dc:type
           rdf:resource="http://purl.org/dc/dcmitype/StillImage" />
        <dc:title></dc:title>
      </cc:Work>
    </rdf:RDF>
  </metadata>
  <g
     inkscape:label="Layer 1"
     inkscape:groupmode="layer"
     id="layer1"
     transform="translate(114.17255,-121.98298)">
    <g
       id="g2649"
       transform="translate(-61.921628,-38.18375)">
      <path
         sodipodi:nodetypes="cscsssssscscssssscsssssssssssssscccc"
         inkscape:connector-curvature="0"
         id="path955"
         d="m -44.246873,177.08641 c -0.128061,-0.01 -0.48811,-0.10489 -0.554157,-0.12291 -0.09648,-0.0263 -0.217346,-0.058 -0.372542,-0.0937 -0.157274,-0.0524 -0.493618,-0.12951 -0.749741,-0.28023 -0.256122,-0.15073 -0.435714,-0.26023 -0.781417,-0.41963 -0.345704,-0.15939 -1.362891,-0.9543 -1.650756,-1.31542 -0.287866,-0.36112 -0.53597,-0.62938 -0.755905,-0.85276 -0.219934,-0.22338 -0.672301,-0.82061 -1.005259,-1.32718 -0.332959,-0.50658 -0.645312,-0.92104 -0.694119,-0.92104 -0.04881,0 -0.07728,0.0214 -0.191617,-0.19223 -0.11434,-0.21365 0.03597,-0.45972 0.692384,-0.45972 0.783739,0 0.956286,0.15385 0.931469,0.71452 -0.02482,0.56067 0.232532,1.03147 0.854712,1.8594 0.62218,0.82793 1.04549,1.14579 1.403573,1.31655 0.358083,0.17076 0.425374,0.1817 0.719796,0.0993 0.294423,-0.0824 0.376573,-0.14341 0.580047,-0.36825 0.203475,-0.22484 0.924324,-0.1253 1.06139,0.38373 0.137065,0.50902 0.368469,0.64463 0.964723,0.66958 0.596253,0.0249 0.66754,-0.052 0.766783,-0.4837 0.09924,-0.43173 0.09187,-0.52344 0.358958,-0.61068 0.293225,-0.0958 0.126144,-0.2013 0.926049,0.14658 0.792918,0.34484 1.366721,0.14068 1.923736,-0.39804 0.557015,-0.53872 0.712533,-0.73902 0.990546,-1.13252 0.278013,-0.39349 0.407567,-0.74562 0.453101,-1.23152 0.04553,-0.48591 0.111335,-0.71815 0.169477,-0.7642 0.05814,-0.046 0.304368,-0.10258 0.76926,-0.14671 0.464891,-0.0441 0.649341,-0.1 0.7218,0.0888 0.07246,0.18883 -0.0069,0.39443 -0.263911,0.67891 -0.257012,0.28448 -0.422076,0.53249 -0.544188,0.74748 -0.122111,0.21498 -0.532457,0.73024 -0.911879,1.14502 -0.379422,0.41479 -0.670567,0.71967 -0.782995,0.92062 -0.112427,0.20094 -0.920651,0.96458 -1.004613,1.02192 -0.17223,0.1176 0,0 -0.308133,0.2006 -0.310813,0.1934 -1.638921,0.85146 -2.314497,1.00898 -0.462426,0.13255 -0.927777,0.15033 -1.402075,0.11851 -0.128061,-0.01 0.128062,0.01 0,-1e-5 z"
         style="fill:#000000;stroke-width:0.09313553" />
      <path
         inkscape:connector-curvature="0"
         id="path953"
         d="m -50.277399,169.50313 c -0.374109,-0.13664 -0.256123,-0.18934 -0.256123,-0.39103 l 0.375566,-1.13912 c 0.111543,-0.47981 0.263441,-0.8705 0.666989,-1.50095 0.403548,-0.63045 -0.02479,0.0735 0.354478,-0.56248 0.379265,-0.63597 0.846528,-1.16194 1.7476,-1.76376 0.901072,-0.60183 1.755281,-1.27621 1.983,-1.71885 0.227719,-0.44264 0.751493,-0.57414 0.917451,-0.40818 0.165958,0.16596 0.141143,0.10495 0.130623,1.09591 -0.01052,0.99096 0.24572,1.22816 -0.744375,1.71133 -0.990094,0.48316 -1.975049,0.98169 -2.837684,1.86986 -0.862636,0.88817 -1.166112,1.39718 -1.488897,2.10498 -0.322785,0.70779 -0.47452,0.83893 -0.848628,0.70229 z"
         style="fill:#000000;stroke-width:0.09313553" />
      <path
         inkscape:connector-curvature="0"
         id="path912"
         d="m -51.714236,169.08084 c -0.382025,-0.0744 -0.271502,-0.89238 -0.271502,-0.89238 0,0 0.474173,-1.47678 0.761664,-2.50332 0.80275,-1.93165 2.337695,-4.20957 4.31679,-5.09456 l 0.465678,-0.23896 c 0.465678,-0.23896 0.656874,-0.16203 0.758083,0.10418 0.101209,0.2662 0.01241,0.41056 -0.17401,0.76836 -0.186413,0.3578 -0.29415,0.6177 -0.331389,0.76937 -0.03724,0.15167 -0.191476,0.3136 -0.387109,0.40644 -0.410085,0.25519 -0.519476,0.31063 -0.814167,0.59716 -0.574538,0.44058 -1.360923,1.18088 -1.715666,1.7479 -0.69129,0.98417 -0.432424,0.57639 -1.205201,1.93257 -0.05612,0.23085 -0.227836,0.57278 -0.423286,0.93135 -0.230626,0.63001 -0.259029,0.97985 -0.454396,1.35659 -0.0746,0.1394 -0.143464,0.18967 -0.525489,0.1153 z"
         style="fill:#000000;stroke-width:0.09313553" />
      <circle
         r="1.8581016"
         cy="171.32448"
         cx="-43.809704"
         id="path916"
         style="fill:#000000;fill-opacity:1;stroke:none;stroke-width:0.09313553" />
      <path
         inkscape:connector-curvature="0"
         id="path930"
         d="m -43.809703,165.98537 a 4.092528,4.0454869 0 0 0 -4.092505,4.04557 4.092528,4.0454869 0 0 0 4.092505,4.04539 4.092528,4.0454869 0 0 0 4.092507,-4.04539 4.092528,4.0454869 0 0 0 -4.092507,-4.04557 z m 0,2.84591 a 2.4343483,2.4108281 0 0 1 2.43444,2.41079 2.4343483,2.4108281 0 0 1 -2.43444,2.41097 2.4343483,2.4108281 0 0 1 -2.434257,-2.41097 2.4343483,2.4108281 0 0 1 2.434257,-2.41079 z"
         style="fill:#000000;fill-opacity:1;stroke:#ffffff;stroke-width:0.09313553;stroke-opacity:1" />
      <path
         id="path953-6"
         d="m -37.29112,169.46158 c 0.374108,-0.13664 0.256122,-0.18933 0.256122,-0.39103 l -0.375566,-1.13911 c -0.111542,-0.47981 -0.26344,-0.87051 -0.666988,-1.50095 -0.403548,-0.63045 0.02478,0.0735 -0.354479,-0.56248 -0.379264,-0.63597 -0.846528,-1.16195 -1.7476,-1.76377 -0.901071,-0.60182 -1.755281,-1.27621 -1.982999,-1.71885 -0.227719,-0.44264 -0.751493,-0.57413 -0.917451,-0.40818 -0.165958,0.16596 -0.141143,0.10495 -0.130623,1.09592 0.01052,0.99096 -0.24572,1.22816 0.744375,1.71132 0.990094,0.48317 1.975049,0.9817 2.837684,1.86987 0.862635,0.88817 1.166112,1.39718 1.488897,2.10497 0.322784,0.7078 0.474519,0.83893 0.848628,0.70229 z"
         style="fill:#000000;stroke-width:0.09313553"
         inkscape:connector-curvature="0" />
      <path
         id="path912-7"
         d="m -35.854283,169.0393 c 0.382024,-0.0744 0.271502,-0.89239 0.271502,-0.89239 0,0 -0.474173,-1.47678 -0.761665,-2.50331 -0.80275,-1.93166 -2.337695,-4.20958 -4.31679,-5.09456 l -0.465677,-0.23896 c -0.465678,-0.23896 -0.656874,-0.16203 -0.758083,0.10417 -0.10121,0.2662 -0.01241,0.41057 0.17401,0.76837 0.186413,0.3578 0.29415,0.6177 0.331389,0.76937 0.03724,0.15166 0.191476,0.3136 0.387109,0.40644 0.410084,0.25519 0.519476,0.31063 0.814167,0.59715 0.574538,0.44059 1.360922,1.18089 1.715666,1.74791 0.691289,0.98417 0.432424,0.57639 1.205201,1.93256 0.05612,0.23086 0.227836,0.57278 0.423286,0.93136 0.230626,0.63001 0.259029,0.97984 0.454396,1.35658 0.0746,0.1394 0.143464,0.18968 0.525489,0.11531 z"
         style="fill:#000000;stroke-width:0.09313553"
         inkscape:connector-curvature="0" />
    </g>
    <rect
       style="fill:none;fill-opacity:1;stroke:none;stroke-width:1.32291663;stroke-linecap:round;stroke-linejoin:round;stroke-miterlimit:4;stroke-dasharray:none;stroke-opacity:0.5"
       id="rect2640"
       width="16.933332"
       height="16.933332"
       x="-114.17255"
       y="121.98301" />
  </g>
</svg>
