<?xml version="1.0" encoding="UTF-8" standalone="no"?>
<!-- Created with Inkscape (http://www.inkscape.org/) -->

<svg
   xmlns:dc="http://purl.org/dc/elements/1.1/"
   xmlns:cc="http://creativecommons.org/ns#"
   xmlns:rdf="http://www.w3.org/1999/02/22-rdf-syntax-ns#"
   xmlns:svg="http://www.w3.org/2000/svg"
   xmlns="http://www.w3.org/2000/svg"
   xmlns:sodipodi="http://sodipodi.sourceforge.net/DTD/sodipodi-0.dtd"
   xmlns:inkscape="http://www.inkscape.org/namespaces/inkscape"
   width="63.999996"
   height="64.000191"
   viewBox="0 0 16.933332 16.933384"
   version="1.1"
   id="svg8"
   inkscape:version="0.92.5 (2060ec1f9f, 2020-04-08)"
   sodipodi:docname="central-unit.svg">
  <defs
     id="defs2">
    <filter
       style="color-interpolation-filters:sRGB;"
       inkscape:label="Drop Shadow"
       id="filter1308">
      <feFlood
         flood-opacity="1"
         flood-color="rgb(255,255,255)"
         result="flood"
         id="feFlood1298" />
      <feComposite
         in="flood"
         in2="SourceGraphic"
         operator="in"
         result="composite1"
         id="feComposite1300" />
      <feGaussianBlur
         in="composite1"
         stdDeviation="0.4"
         result="blur"
         id="feGaussianBlur1302" />
      <feOffset
         dx="0"
         dy="0"
         result="offset"
         id="feOffset1304" />
      <feComposite
         in="SourceGraphic"
         in2="offset"
         operator="over"
         result="composite2"
         id="feComposite1306" />
    </filter>
  </defs>
  <sodipodi:namedview
     id="base"
     pagecolor="#ffffff"
     bordercolor="#666666"
     borderopacity="1.0"
     inkscape:pageopacity="0.0"
     inkscape:pageshadow="2"
     inkscape:zoom="7.154624"
     inkscape:cx="-6.1075104"
     inkscape:cy="45.561594"
     inkscape:document-units="px"
     inkscape:current-layer="layer1"
     showgrid="false"
     units="px"
     fit-margin-top="0"
     fit-margin-left="0"
     fit-margin-right="0"
     fit-margin-bottom="0"
     inkscape:window-width="1920"
     inkscape:window-height="1136"
     inkscape:window-x="0"
     inkscape:window-y="27"
     inkscape:window-maximized="1" />
  <metadata
     id="metadata5">
    <rdf:RDF>
      <cc:Work
         rdf:about="">
        <dc:format>image/svg+xml</dc:format>
        <dc:type
           rdf:resource="http://purl.org/dc/dcmitype/StillImage" />
        <dc:title />
      </cc:Work>
    </rdf:RDF>
  </metadata>
  <g
     inkscape:label="Layer 1"
     inkscape:groupmode="layer"
     id="layer1"
     transform="translate(114.17255,-121.98298)">
    <g
       id="g1140"
       style="filter:url(#filter1308)">
      <path
         sodipodi:nodetypes="cscsssssscscssssscsssssssssssssscccc"
         inkscape:connector-curvature="0"
         id="path955"
         d="m -106.1685,138.90266 c -0.12806,-0.01 -0.48811,-0.10489 -0.55416,-0.12291 -0.0965,-0.0263 -0.21734,-0.058 -0.37254,-0.0937 -0.15727,-0.0524 -0.49362,-0.12951 -0.74974,-0.28023 -0.25612,-0.15073 -0.43571,-0.26023 -0.78142,-0.41963 -0.3457,-0.15939 -1.36289,-0.9543 -1.65075,-1.31542 -0.28787,-0.36112 -0.53597,-0.62938 -0.75591,-0.85276 -0.21993,-0.22338 -0.6723,-0.82061 -1.00526,-1.32718 -0.33296,-0.50658 -0.64531,-0.92104 -0.69412,-0.92104 -0.0488,0 -0.0773,0.0214 -0.19161,-0.19223 -0.11434,-0.21365 0.036,-0.45972 0.69238,-0.45972 0.78374,0 0.95629,0.15385 0.93147,0.71452 -0.0248,0.56067 0.23253,1.03147 0.85471,1.8594 0.62218,0.82793 1.04549,1.14579 1.40357,1.31655 0.35809,0.17076 0.42538,0.1817 0.7198,0.0993 0.29442,-0.0824 0.37657,-0.14341 0.58005,-0.36825 0.20347,-0.22484 0.92432,-0.1253 1.06139,0.38373 0.13706,0.50902 0.36847,0.64463 0.96472,0.66958 0.59625,0.0249 0.66754,-0.052 0.76678,-0.4837 0.0992,-0.43173 0.0919,-0.52344 0.35896,-0.61068 0.29323,-0.0958 0.12615,-0.2013 0.92605,0.14658 0.79292,0.34484 1.36672,0.14068 1.92374,-0.39804 0.55701,-0.53872 0.71253,-0.73902 0.99054,-1.13252 0.27801,-0.39349 0.40757,-0.74562 0.4531,-1.23152 0.0455,-0.48591 0.11134,-0.71815 0.16948,-0.7642 0.0581,-0.046 0.304368,-0.10258 0.76926,-0.14671 0.464891,-0.0441 0.649341,-0.1 0.7218,0.0888 0.07246,0.18883 -0.0069,0.39443 -0.263911,0.67891 -0.257012,0.28448 -0.422076,0.53249 -0.544188,0.74748 -0.122111,0.21498 -0.532457,0.73024 -0.911881,1.14502 -0.37942,0.41479 -0.67056,0.71967 -0.78299,0.92062 -0.11243,0.20094 -0.92065,0.96458 -1.00462,1.02192 -0.17223,0.1176 0,0 -0.30813,0.2006 -0.31081,0.1934 -1.63892,0.85146 -2.3145,1.00898 -0.46242,0.13255 -0.92777,0.15033 -1.40207,0.11851 -0.12806,-0.01 0.12806,0.01 0,-10e-6 z"
         style="fill:#333333;stroke-width:0.09313553" />
      <path
         inkscape:connector-curvature="0"
         id="path953"
         d="m -112.19903,131.31938 c -0.37411,-0.13664 -0.25612,-0.18934 -0.25612,-0.39103 l 0.37557,-1.13912 c 0.11154,-0.47981 0.26344,-0.8705 0.66698,-1.50095 0.40355,-0.63045 -0.0248,0.0735 0.35448,-0.56248 0.37927,-0.63597 0.84653,-1.16194 1.7476,-1.76376 0.90107,-0.60183 1.75528,-1.27621 1.983,-1.71885 0.22772,-0.44264 0.7515,-0.57414 0.91745,-0.40818 0.16596,0.16596 0.14115,0.10495 0.13063,1.09591 -0.0105,0.99096 0.24572,1.22816 -0.74438,1.71133 -0.99009,0.48316 -1.97505,0.98169 -2.83768,1.86986 -0.86264,0.88817 -1.16611,1.39718 -1.4889,2.10498 -0.32278,0.70779 -0.47452,0.83893 -0.84863,0.70229 z"
         style="fill:#333333;stroke-width:0.09313553" />
      <path
         inkscape:connector-curvature="0"
         id="path912"
         d="m -113.63586,130.89709 c -0.38203,-0.0744 -0.27151,-0.89238 -0.27151,-0.89238 0,0 0.47418,-1.47678 0.76167,-2.50332 0.80275,-1.93165 2.33769,-4.20957 4.31679,-5.09456 l 0.46568,-0.23896 c 0.46567,-0.23896 0.65687,-0.16203 0.75808,0.10418 0.10121,0.2662 0.0124,0.41056 -0.17401,0.76836 -0.18641,0.3578 -0.29415,0.6177 -0.33139,0.76937 -0.0372,0.15167 -0.19148,0.3136 -0.38711,0.40644 -0.41008,0.25519 -0.51947,0.31063 -0.81417,0.59716 -0.57453,0.44058 -1.36092,1.18088 -1.71566,1.7479 -0.69129,0.98417 -0.43243,0.57639 -1.2052,1.93257 -0.0561,0.23085 -0.22784,0.57278 -0.42329,0.93135 -0.23063,0.63001 -0.25903,0.97985 -0.4544,1.35659 -0.0746,0.1394 -0.14346,0.18967 -0.52548,0.1153 z"
         style="fill:#333333;stroke-width:0.09313553" />
      <circle
         r="1.8581016"
         cy="133.14073"
         cx="-105.73133"
         id="path916"
         style="fill:#333333;fill-opacity:1;stroke:none;stroke-width:0.09313553" />
      <path
         inkscape:connector-curvature="0"
         id="path930"
         d="m -105.73133,127.80162 a 4.092528,4.0454869 0 0 0 -4.09251,4.04557 4.092528,4.0454869 0 0 0 4.09251,4.04539 4.092528,4.0454869 0 0 0 4.09251,-4.04539 4.092528,4.0454869 0 0 0 -4.09251,-4.04557 z m 0,2.84591 a 2.4343483,2.4108281 0 0 1 2.43444,2.41079 2.4343483,2.4108281 0 0 1 -2.43444,2.41097 2.4343483,2.4108281 0 0 1 -2.43426,-2.41097 2.4343483,2.4108281 0 0 1 2.43426,-2.41079 z"
         style="fill:#333333;fill-opacity:1;stroke:none;stroke-width:0.09313553;stroke-opacity:1" />
      <path
         id="path953-6"
         d="m -99.212748,131.27783 c 0.374108,-0.13664 0.256122,-0.18933 0.256122,-0.39103 l -0.375566,-1.13911 c -0.111542,-0.47981 -0.26344,-0.87051 -0.666988,-1.50095 -0.40355,-0.63045 0.02478,0.0735 -0.35448,-0.56248 -0.37926,-0.63597 -0.84653,-1.16195 -1.7476,-1.76377 -0.90107,-0.60182 -1.75528,-1.27621 -1.983,-1.71885 -0.22772,-0.44264 -0.75149,-0.57413 -0.91745,-0.40818 -0.16596,0.16596 -0.14114,0.10495 -0.13062,1.09592 0.0105,0.99096 -0.24572,1.22816 0.74437,1.71132 0.9901,0.48317 1.97505,0.9817 2.83769,1.86987 0.86263,0.88817 1.16611,1.39718 1.48889,2.10497 0.322788,0.7078 0.474523,0.83893 0.848632,0.70229 z"
         style="fill:#333333;stroke-width:0.09313553"
         inkscape:connector-curvature="0" />
      <path
         id="path912-7"
         d="m -97.775911,130.85555 c 0.382024,-0.0744 0.271502,-0.89239 0.271502,-0.89239 0,0 -0.474173,-1.47678 -0.761665,-2.50331 -0.80275,-1.93166 -2.337696,-4.20958 -4.316786,-5.09456 l -0.46568,-0.23896 c -0.46568,-0.23896 -0.65688,-0.16203 -0.75808,0.10417 -0.10121,0.2662 -0.0124,0.41057 0.17401,0.76837 0.18641,0.3578 0.29415,0.6177 0.33139,0.76937 0.0372,0.15166 0.19147,0.3136 0.3871,0.40644 0.41009,0.25519 0.51948,0.31063 0.81417,0.59715 0.57454,0.44059 1.36092,1.18089 1.71567,1.74791 0.691286,0.98417 0.432421,0.57639 1.205198,1.93256 0.05612,0.23086 0.227836,0.57278 0.423286,0.93136 0.230626,0.63001 0.259029,0.97984 0.454396,1.35658 0.0746,0.1394 0.143464,0.18968 0.525489,0.11531 z"
         style="fill:#333333;stroke-width:0.09313553"
         inkscape:connector-curvature="0" />
    </g>
    <rect
       style="fill:none;fill-opacity:1;stroke:none;stroke-width:1.32291663;stroke-linecap:round;stroke-linejoin:round;stroke-miterlimit:4;stroke-dasharray:none;stroke-opacity:0.5"
       id="rect2640"
       width="16.933332"
       height="16.933332"
       x="-114.17255"
       y="121.98301" />
  </g>
</svg>
