<?xml version="1.0" encoding="UTF-8" standalone="no"?>
<!-- Created with Inkscape (http://www.inkscape.org/) -->

<svg
   xmlns:dc="http://purl.org/dc/elements/1.1/"
   xmlns:cc="http://creativecommons.org/ns#"
   xmlns:rdf="http://www.w3.org/1999/02/22-rdf-syntax-ns#"
   xmlns:svg="http://www.w3.org/2000/svg"
   xmlns="http://www.w3.org/2000/svg"
   xmlns:sodipodi="http://sodipodi.sourceforge.net/DTD/sodipodi-0.dtd"
   xmlns:inkscape="http://www.inkscape.org/namespaces/inkscape"
   width="64mm"
   height="64mm"
   viewBox="0 0 64 64"
   version="1.1"
   id="svg8726"
   inkscape:version="0.92.5 (2060ec1f9f, 2020-04-08)"
   sodipodi:docname="sphere.svg">
  <defs
     id="defs8720" />
  <sodipodi:namedview
     id="base"
     pagecolor="#ffffff"
     bordercolor="#666666"
     borderopacity="1.0"
     inkscape:pageopacity="0.0"
     inkscape:pageshadow="2"
     inkscape:zoom="0.67311583"
     inkscape:cx="492.58973"
     inkscape:cy="57.643678"
     inkscape:document-units="mm"
     inkscape:current-layer="layer1"
     showgrid="true"
     fit-margin-top="0"
     fit-margin-left="0"
     fit-margin-right="0"
     fit-margin-bottom="0"
     inkscape:window-width="1920"
     inkscape:window-height="1136"
     inkscape:window-x="0"
     inkscape:window-y="27"
     inkscape:window-maximized="1">
    <inkscape:grid
       type="xygrid"
       id="grid9370" />
  </sodipodi:namedview>
  <metadata
     id="metadata8723">
    <rdf:RDF>
      <cc:Work
         rdf:about="">
        <dc:format>image/svg+xml</dc:format>
        <dc:type
           rdf:resource="http://purl.org/dc/dcmitype/StillImage" />
        <dc:title></dc:title>
      </cc:Work>
    </rdf:RDF>
  </metadata>
  <g
     inkscape:label="Layer 1"
     inkscape:groupmode="layer"
     id="layer1"
     transform="translate(-100.00154,-89.748732)">
    <circle
       style="fill:#f0f0f0;fill-opacity:1;stroke:#ffffff;stroke-width:0.13305612;stroke-linecap:round;stroke-linejoin:round;stroke-miterlimit:4;stroke-dasharray:none;stroke-opacity:1"
       id="path9374"
       cx="132.00154"
       cy="121.74873"
       r="31.933472" />
    <path
       style="fill:#333333;stroke-width:1.65297818;fill-opacity:1"
       d="M 119.36622,151.02392 C 96.039543,140.46038 93.213971,110.96411 114.0184,95.198189 c 9.58797,-7.265943 26.51541,-7.265943 36.10345,0 18.43587,13.971051 18.51814,39.015801 0.17413,52.910891 -8.23715,6.23931 -20.94391,7.43683 -30.9295,2.91484 z m 17.73159,0.13534 c -0.032,-0.66539 -1.17296,-2.61884 -2.54081,-4.34104 -3.33005,-4.19283 -3.15604,-16.26238 0.31498,-21.85849 2.66565,-4.29739 2.6266,-4.72989 -0.80236,-8.88127 -1.9825,-2.40015 -4.10507,-7.01232 -4.71684,-10.24931 -1.43929,-7.615587 -3.48005,-9.918194 -8.79042,-9.918194 -5.87399,0 -10.51254,4.380914 -10.51254,9.928564 0,3.49604 0.79769,4.58924 3.34868,4.58924 1.84172,0 4.59725,1.81475 6.12329,4.03273 2.57026,3.7357 2.57026,4.32977 0,8.06547 -1.52604,2.21798 -3.63747,4.03273 -4.692,4.03273 -1.05454,0 -0.54673,1.44199 1.12796,3.20449 3.17262,3.33857 4.07383,10.23956 1.92405,14.73339 -0.95473,1.99569 0.27464,3.21553 5.19852,5.15946 6.88711,2.71883 14.10591,3.49251 14.0173,1.50223 z m 10.25231,-4.80238 c 7.11021,-4.74276 11.514,-10.62901 13.49285,-18.035 1.50516,-5.63324 1.44095,-7.3869 -0.30922,-8.44401 -6.40939,-3.87141 -19.79744,0.64022 -23.23773,7.83087 -2.63294,5.50308 -2.267,13.68096 0.79864,17.84904 3.17308,4.31428 3.8924,4.37635 9.25546,0.7991 z m -30.81203,-6.74857 c 0.66619,-4.32904 -4.05655,-9.82248 -8.44445,-9.82248 -4.13932,0 -3.96167,4.02907 0.43725,9.91185 4.0091,5.36182 7.17398,5.32646 8.00745,-0.0896 z m -8.96116,-16.20355 c -3.05559,-3.21547 -3.35328,-6.78217 -0.77124,-9.24115 1.01055,-0.96231 1.52277,-3.4666 1.13833,-5.56515 -0.6402,-3.49451 -0.93725,-3.31094 -3.53113,2.18177 -2.77237,5.87071 -3.76417,14.35417 -1.88711,16.14167 0.51984,0.49505 2.45579,0.5237 4.30231,0.064 3.04798,-0.7591 3.11699,-1.08905 0.74884,-3.58103 z m 9.82049,-1.96436 c 3.9408,-5.94954 -4.30449,-10.80112 -9.06762,-5.33554 -1.74812,2.00588 -1.57783,3.03623 0.93936,5.68507 3.38184,3.55871 5.60281,3.46323 8.12826,-0.34935 z m 23.83133,-9.80181 c -0.38924,-10.80826 -4.6575,-18.432015 -10.80076,-19.290676 -6.6366,-0.927555 -7.54927,0.0695 -3.16117,3.453301 2.23339,1.7222 3.6618,4.908645 3.90405,8.708915 0.33803,5.30335 6.10178,13.98409 9.2849,13.98409 0.56082,0 0.90864,-3.08506 0.77298,-6.85563 z m 12.01457,-0.38714 c -8.84112,-3.77875 -12.03397,-3.21187 -10.35275,1.83798 0.8377,2.51605 2.39504,2.89069 9.90794,2.38357 l 8.91404,-0.60175 z m 4.44975,-5.25854 c -3.4367,-6.071352 -17.15369,-15.383779 -17.15369,-11.645579 0,3.568164 3.73248,8.263429 9.00085,11.322579 6.9309,4.02456 10.3242,4.15899 8.15284,0.32312 z"
       id="path9368"
       inkscape:connector-curvature="0" />
  </g>
</svg>
