<?xml version="1.0" encoding="UTF-8" standalone="no"?>
<!-- Created with Inkscape (http://www.inkscape.org/) -->

<svg
   xmlns:dc="http://purl.org/dc/elements/1.1/"
   xmlns:cc="http://creativecommons.org/ns#"
   xmlns:rdf="http://www.w3.org/1999/02/22-rdf-syntax-ns#"
   xmlns:svg="http://www.w3.org/2000/svg"
   xmlns="http://www.w3.org/2000/svg"
   xmlns:sodipodi="http://sodipodi.sourceforge.net/DTD/sodipodi-0.dtd"
   xmlns:inkscape="http://www.inkscape.org/namespaces/inkscape"
   width="63.999989"
   height="64"
   viewBox="0 0 16.93333 16.933333"
   version="1.1"
   id="svg9466"
   inkscape:version="0.92.5 (2060ec1f9f, 2020-04-08)"
   sodipodi:docname="item__cube.svg">
  <defs
     id="defs9460" />
  <sodipodi:namedview
     id="base"
     pagecolor="#ffffff"
     bordercolor="#666666"
     borderopacity="1.0"
     inkscape:pageopacity="0.0"
     inkscape:pageshadow="2"
     inkscape:zoom="0.48932676"
     inkscape:cx="672.88924"
     inkscape:cy="-181.0926"
     inkscape:document-units="px"
     inkscape:current-layer="layer1"
     showgrid="false"
     fit-margin-top="0"
     fit-margin-left="0"
     fit-margin-right="0"
     fit-margin-bottom="0"
     inkscape:window-width="1920"
     inkscape:window-height="1136"
     inkscape:window-x="0"
     inkscape:window-y="27"
     inkscape:window-maximized="1"
     viewbox-width="54"
     units="px" />
  <metadata
     id="metadata9463">
    <rdf:RDF>
      <cc:Work
         rdf:about="">
        <dc:format>image/svg+xml</dc:format>
        <dc:type
           rdf:resource="http://purl.org/dc/dcmitype/StillImage" />
        <dc:title></dc:title>
      </cc:Work>
    </rdf:RDF>
  </metadata>
  <g
     inkscape:label="Layer 1"
     inkscape:groupmode="layer"
     id="layer1"
     transform="translate(-384.79196,-325.92999)">
    <g
       id="g818"
       transform="matrix(0.26458329,0,0,0.26458329,271.49273,246.36233)">
      <path
         sodipodi:nodetypes="ccccccc"
         inkscape:connector-curvature="0"
         id="path10078"
         d="m 462.43095,301.71739 -28.99346,13.85151 0.52444,32.89549 26.18849,15.5697 26.02232,-16.59659 -0.003,-29.76097 z"
         style="fill:#ffd14e;fill-opacity:1;stroke:none;stroke-width:0.26458332px;stroke-linecap:butt;stroke-linejoin:miter;stroke-opacity:1" />
      <path
         inkscape:connector-curvature="0"
         id="path10076"
         d="m 446.72871,357.2893 -13.43894,-8.03672 -0.036,-17.02353 -0.0361,-17.02349 14.59794,-7.23868 14.59799,-7.23864 12.39002,7.49365 12.39001,7.49369 0.012,15.77054 0.012,15.77056 -12.44064,8.41274 c -6.84236,4.627 -12.92784,8.69263 -13.52325,9.03467 -0.59541,0.34224 -7.13012,-2.9946 -14.52155,-7.41479 z m 15.49084,4.45394 c 0.35335,-0.9118 0.64267,-3.89757 0.64267,-6.63514 0,-4.13764 0.41557,-5.19746 2.46343,-6.28232 1.3549,-0.71778 3.09334,-3.03762 3.86319,-5.15524 1.75366,-4.82374 8.13739,-11.06737 13.15017,-12.86161 4.11778,-1.47391 5.17727,-4.08904 1.65662,-4.08904 -6.00528,0 -16.32518,8.78318 -17.63078,15.00541 -0.73538,3.50463 -4.33134,6.07979 -9.68175,6.9334 -3.69168,0.58897 -3.89504,0.83436 -4.20553,5.07428 -0.29452,4.02068 -0.012,4.63302 2.90494,6.27567 1.77719,1.00116 3.23424,2.17399 3.23792,2.6063 0.012,1.49399 2.95865,0.78045 3.59912,-0.87171 z m 8.05415,-5.06945 c 0,-1.31511 -2.48316,-6.8972 -3.06817,-6.8972 -1.92726,0 -3.28451,2.93111 -3.28451,7.09316 v 4.57791 l 3.17634,-2.23879 c 1.74697,-1.23133 3.17634,-2.37212 3.17634,-2.53508 z m -19.05802,-4.80116 c 0,-2.88207 -0.47648,-5.24013 -1.05881,-5.24013 -0.58232,0 -1.05876,2.35806 -1.05876,5.24013 0,2.88211 0.47644,5.24017 1.05876,5.24017 0.58233,0 1.05881,-2.35806 1.05881,-5.24017 z m 28.599,-1.14007 6.34071,-4.28421 v -7.24415 c 0,-8.35926 -0.52267,-8.67532 -7.22881,-4.37111 -6.48757,4.16391 -10.22607,12.81019 -8.01021,18.52589 0.93155,2.40298 1.86042,2.12883 8.89831,-2.62642 z m -33.89292,-1.2704 c 0,-6.31044 1.56379,-7.53152 6.09521,-4.75941 3.2394,1.98176 4.02386,2.07247 7.65746,0.88546 3.17715,-1.03792 4.46837,-2.25187 6.0003,-5.64127 1.07361,-2.37533 3.53644,-6.06597 5.47298,-8.20145 2.28011,-2.51441 3.39946,-4.71644 3.17633,-6.24858 l -0.34454,-2.36586 -2.72895,2.70925 c -1.50092,1.49007 -3.77771,4.02903 -5.05957,5.64209 -1.44141,1.81381 -2.70734,2.55992 -3.318,1.95546 -1.80535,-1.78699 1.44545,-5.98342 6.6067,-8.52844 2.76605,-1.364 5.0292,-2.8206 5.0292,-3.2369 0,-1.91831 -12.81263,-7.59217 -17.94903,-7.94843 -2.98382,-0.20716 -6.24095,-1.10711 -7.23813,-2.00037 -1.28462,-1.15077 -2.34003,-1.33219 -3.62124,-0.62248 -2.39181,1.32493 -1.33317,3.78273 2.46723,5.72805 3.69364,1.89065 3.90529,3.92739 0.56468,5.43402 -2.1902,0.98781 -2.57025,2.09033 -3.21919,9.33852 -1.68015,18.76608 -1.79216,22.36688 -0.69582,22.36688 0.60746,0 1.10447,-2.02794 1.10447,-4.50654 z m -1.93013,-21.39591 c 0.78382,-3.0062 2.37177,-6.15105 3.52881,-6.98854 1.15705,-0.83744 1.86627,-1.71395 1.57598,-1.94773 -2.65291,-2.13691 -7.43445,-4.98646 -8.36728,-4.98646 -2.16647,0 -1.17206,1.75415 1.75158,3.08978 l 2.91166,1.33017 -2.38224,1.58597 c -2.3032,1.53333 -2.3766,2.09477 -2.21101,16.91658 0.16847,15.08297 0.18408,15.17828 0.96937,5.89838 0.43895,-5.18776 1.43936,-11.89194 2.22313,-14.89815 z m -5.14424,7.96558 c 0.40938,-8.47089 1.16773,-14.34526 1.97647,-15.30986 1.07085,-1.2772 0.93383,-1.839 -0.74487,-3.05402 -3.33661,-2.41502 -5.23673,-1.3407 -5.61132,3.17261 -0.18528,2.23274 0.17207,4.56327 0.79409,5.17901 0.62202,0.61575 1.07461,2.79378 1.00574,4.84006 l -0.12525,3.72051 -0.80822,-3.14409 c -0.55179,-2.14642 -0.84799,0.0705 -0.93351,6.98687 -0.11965,9.67834 0.21809,10.88591 3.15221,11.27093 0.34694,0.0455 0.92942,-6.10241 1.2947,-13.66202 z m 39.89652,-12.40573 c 0,-2.03579 1.97971,-3.1944 5.45813,-3.1944 3.72621,0 1.7072,-3.26383 -3.98751,-6.44607 l -5.41149,-3.02395 -4.43482,1.86435 -4.43483,1.86439 5.34649,3.09082 c 4.44099,2.56736 5.34649,3.59648 5.34649,6.07658 0,1.72366 0.44756,2.71198 1.05877,2.33806 0.58232,-0.3561 1.05877,-1.51265 1.05877,-2.56978 z m 5.73668,1.40962 c 3.03613,-1.15322 1.89708,-3.22525 -1.50154,-2.7315 -3.11415,0.45243 -3.87712,1.27665 -2.47049,2.66896 0.8743,0.86541 1.81917,0.88031 3.97203,0.0626 z m -14.38545,-14.39651 c 2.45736,-1.37069 2.44615,-1.39117 -2.51089,-4.58295 l -4.97926,-3.20608 -6.18904,2.76458 c -5.88728,2.62979 -7.74758,4.71885 -5.00732,5.623 3.27911,1.08197 16.42884,0.66075 18.68651,-0.59855 z"
         style="fill:#333333;fill-opacity:1;stroke-width:1.05339122" />
    </g>
    <rect
       style="fill:none;fill-opacity:1;stroke:none;stroke-width:1.02293515;stroke-linecap:round;stroke-linejoin:round;stroke-miterlimit:4;stroke-dasharray:none;stroke-opacity:0.5"
       id="rect814"
       width="16.933331"
       height="16.933331"
       x="384.79196"
       y="325.92999" />
  </g>
</svg>
