<?xml version="1.0" encoding="UTF-8" standalone="no"?>
<!-- Created with Inkscape (http://www.inkscape.org/) -->

<svg
   xmlns:dc="http://purl.org/dc/elements/1.1/"
   xmlns:cc="http://creativecommons.org/ns#"
   xmlns:rdf="http://www.w3.org/1999/02/22-rdf-syntax-ns#"
   xmlns:svg="http://www.w3.org/2000/svg"
   xmlns="http://www.w3.org/2000/svg"
   xmlns:sodipodi="http://sodipodi.sourceforge.net/DTD/sodipodi-0.dtd"
   xmlns:inkscape="http://www.inkscape.org/namespaces/inkscape"
   width="255.99998"
   height="255.99998"
   viewBox="0 0 67.73333 67.73333"
   version="1.1"
   id="svg8726"
   inkscape:version="0.92.5 (2060ec1f9f, 2020-04-08)"
   sodipodi:docname="item__sphere.svg">
  <defs
     id="defs8720" />
  <sodipodi:namedview
     id="base"
     pagecolor="#ffffff"
     bordercolor="#666666"
     borderopacity="1.0"
     inkscape:pageopacity="0.0"
     inkscape:pageshadow="2"
     inkscape:zoom="2.6924633"
     inkscape:cx="119.50529"
     inkscape:cy="125.2954"
     inkscape:document-units="px"
     inkscape:current-layer="layer1"
     showgrid="true"
     fit-margin-top="0"
     fit-margin-left="0"
     fit-margin-right="0"
     fit-margin-bottom="0"
     inkscape:window-width="1920"
     inkscape:window-height="1136"
     inkscape:window-x="0"
     inkscape:window-y="27"
     inkscape:window-maximized="1"
     units="px">
    <inkscape:grid
       type="xygrid"
       id="grid9370"
       originx="1.5409163e-06"
       originy="1.0077078e-05" />
  </sodipodi:namedview>
  <metadata
     id="metadata8723">
    <rdf:RDF>
      <cc:Work
         rdf:about="">
        <dc:format>image/svg+xml</dc:format>
        <dc:type
           rdf:resource="http://purl.org/dc/dcmitype/StillImage" />
        <dc:title></dc:title>
      </cc:Work>
    </rdf:RDF>
  </metadata>
  <g
     inkscape:label="Layer 1"
     inkscape:groupmode="layer"
     id="layer1"
     transform="translate(-100.00154,-86.015406)">
    <ellipse
       style="fill:#ffd14e;fill-opacity:1;stroke:none;stroke-width:0.13873589;stroke-linecap:round;stroke-linejoin:round;stroke-miterlimit:4;stroke-dasharray:none;stroke-opacity:1"
       id="path9374"
       cx="133.76826"
       cy="119.78227"
       rx="33.296741"
       ry="33.296501" />
    <path
       style="fill:#333333;fill-opacity:1;stroke:none;stroke-width:1.74940193"
       d="m 120.49583,150.86498 c -24.687403,-11.17975 -27.6778,-42.39663 -5.65978,-59.082232 10.14727,-7.689789 28.06214,-7.689789 38.20949,0 19.51129,14.786032 19.59836,41.291722 0.18428,55.997362 -8.71765,6.60327 -22.16563,7.87064 -32.73372,3.08487 z m 18.76593,0.14324 c -0.0339,-0.70421 -1.24138,-2.77161 -2.68902,-4.59427 -3.52431,-4.43741 -3.34015,-17.21102 0.33335,-23.13357 2.82115,-4.54807 2.77982,-5.0058 -0.84916,-9.39935 -2.09815,-2.54015 -4.34454,-7.42137 -4.99199,-10.84718 -1.52325,-8.059831 -3.68306,-10.496757 -9.3032,-10.496757 -6.21664,0 -11.12577,4.636467 -11.12577,10.507727 0,3.69998 0.84422,4.85695 3.54402,4.85695 1.94916,0 4.86542,1.92061 6.48048,4.26797 2.7202,3.95362 2.7202,4.58234 0,8.53596 -1.61506,2.34736 -3.84965,4.26797 -4.9657,4.26797 -1.11605,0 -0.57862,1.52611 1.19376,3.39142 3.35769,3.53332 4.31147,10.83687 2.03629,15.59284 -1.01043,2.1121 0.29066,3.4031 5.50176,5.46043 7.28886,2.87742 14.92876,3.69624 14.83498,1.58986 z m 10.85036,-5.08252 c 7.52497,-5.01942 12.18565,-11.24904 14.27994,-19.08705 1.59296,-5.96184 1.525,-7.8178 -0.32726,-8.93657 -6.78327,-4.09725 -20.95229,0.67756 -24.59327,8.28767 -2.78652,5.82409 -2.39924,14.47901 0.84523,18.89023 3.35818,4.56595 4.11946,4.63164 9.79536,0.84572 z m -32.6094,-7.14224 c 0.70506,-4.58157 -4.29318,-10.39546 -8.93704,-10.39546 -4.38078,0 -4.19277,4.2641 0.46276,10.49004 4.24296,5.6746 7.59246,5.63717 8.47455,-0.0948 z m -9.48389,-17.14876 c -3.23383,-3.40304 -3.54889,-7.17779 -0.81623,-9.78021 1.0695,-1.01845 1.6116,-3.66882 1.20473,-5.88979 -0.67754,-3.69835 -0.99192,-3.50408 -3.73711,2.30904 -2.93409,6.21317 -3.98375,15.1915 -1.99719,17.08327 0.55016,0.52393 2.59904,0.55425 4.55328,0.0677 3.22578,-0.80338 3.29881,-1.15258 0.79252,-3.78992 z m 10.39335,-2.07895 c 4.17068,-6.29659 -4.55558,-11.43118 -9.59656,-5.64678 -1.8501,2.12289 -1.66987,3.21335 0.99415,6.0167 3.57912,3.76631 5.92964,3.66526 8.60241,-0.36972 z m 25.22149,-10.37358 c -0.41194,-11.438739 -4.92918,-19.507214 -11.4308,-20.415963 -7.02374,-0.981663 -7.98965,0.07355 -3.34557,3.654743 2.36367,1.822662 3.8754,5.194983 4.13178,9.21694 0.35775,5.61271 6.45772,14.79982 9.82652,14.79982 0.59354,0 0.96165,-3.26502 0.81807,-7.25554 z m 12.71542,-0.40972 c -9.35685,-3.99918 -12.73595,-3.39923 -10.95666,1.94519 0.88657,2.66282 2.53475,3.05932 10.48591,2.52262 l 9.43402,-0.63686 z m 4.70932,-5.56529 c -3.63717,-6.425513 -18.15432,-16.281165 -18.15432,-12.324904 0,3.776307 3.95021,8.745463 9.5259,11.983064 7.3352,4.25933 10.92644,4.4016 8.62842,0.34197 z"
       id="path9368"
       inkscape:connector-curvature="0" />
  </g>
</svg>
