<?xml version="1.0" encoding="UTF-8" standalone="no"?>
<!-- Created with Inkscape (http://www.inkscape.org/) -->

<svg
   xmlns:dc="http://purl.org/dc/elements/1.1/"
   xmlns:cc="http://creativecommons.org/ns#"
   xmlns:rdf="http://www.w3.org/1999/02/22-rdf-syntax-ns#"
   xmlns:svg="http://www.w3.org/2000/svg"
   xmlns="http://www.w3.org/2000/svg"
   xmlns:sodipodi="http://sodipodi.sourceforge.net/DTD/sodipodi-0.dtd"
   xmlns:inkscape="http://www.inkscape.org/namespaces/inkscape"
   width="511.99927"
   height="512"
   viewBox="0 0 1679.9976 2376"
   version="1.1"
   id="svg8"
   inkscape:version="0.92.5 (2060ec1f9f, 2020-04-08)"
   sodipodi:docname="samus.svg">
  <defs
     id="defs2" />
  <sodipodi:namedview
     id="base"
     pagecolor="#ffffff"
     bordercolor="#666666"
     borderopacity="1.0"
     inkscape:pageopacity="0.0"
     inkscape:pageshadow="2"
     inkscape:zoom="0.24748737"
     inkscape:cx="-590.92147"
     inkscape:cy="1138.9585"
     inkscape:document-units="px"
     inkscape:current-layer="layer1"
     showgrid="false"
     fit-margin-top="0"
     fit-margin-left="0"
     fit-margin-right="0"
     fit-margin-bottom="0"
     inkscape:window-width="1920"
     inkscape:window-height="1136"
     inkscape:window-x="0"
     inkscape:window-y="27"
     inkscape:window-maximized="1" />
  <metadata
     id="metadata5">
    <rdf:RDF>
      <cc:Work
         rdf:about="">
        <dc:format>image/svg+xml</dc:format>
        <dc:type
           rdf:resource="http://purl.org/dc/dcmitype/StillImage" />
        <dc:title></dc:title>
      </cc:Work>
    </rdf:RDF>
  </metadata>
  <g
     inkscape:label="Layer 1"
     inkscape:groupmode="layer"
     id="layer1"
     transform="translate(734.9988,1041.4939)">
    <g
       id="g864"
       transform="matrix(0.99999859,0,0,1.0016812,1.8238702e-4,2687.1384)">
      <path
         sodipodi:nodetypes="cssssccssssssssssssssssssssssssssssssssccssssssc"
         inkscape:connector-curvature="0"
         id="path843-6"
         d="m 137.67845,-3686.5729 c 99.7648,4.4393 203.0967,-3.1216 298.3967,26.7221 58.6914,18.3795 109.7185,56.3621 160.3327,91.3004 77.6674,53.6131 153.5164,111.6813 218.2304,180.374 49.1723,52.1956 96.1677,108.9171 126.9296,173.6936 28.9624,60.9872 51.2174,195.9619 51.2174,195.9619 l 15.58785,33.4026 c 0,0 68.7272,-12.7866 100.2077,-0.7641 38.3589,14.6493 56.7655,47.1903 80.1665,80.9304 28.0224,40.4033 55.7541,82.4951 71.2584,129.1567 22.2107,66.845 33.2846,139.018 28.9491,209.3229 -3.5463,57.5072 -26.6284,112.2506 -44.537,167.0132 -19.0661,58.302 -36.728,118.0064 -66.8051,171.4667 -29.3371,52.1445 -64.875,102.2372 -109.1154,142.5177 -48.5793,44.2314 -110.53055,71.1036 -167.01275,104.6615 -58.574,34.8006 -118.2172,67.7979 -178.147,100.2078 -56.6537,30.6382 -114.3807,59.249 -171.4669,89.0736 -43.848,22.9084 -90.1315,41.7239 -131.3833,69.0321 -26.3907,17.4703 -53.8396,35.3111 -73.4856,60.1247 -22.0493,27.8491 -38.3096,61.2537 -46.7636,95.7541 -6.7156,27.4055 5.0639,57.3618 -2.2273,84.6199 -5.2352,19.5721 -13.8762,39.9053 -28.9486,53.4441 -23.2783,20.9097 -56.1479,29.5745 -86.8469,35.6294 -50.504,9.9612 -103.9253,9.9777 -154.4308,0.024 -30.7,-6.0501 -63.5686,-14.7197 -86.8469,-35.6294 -15.0724,-13.5388 -23.7134,-33.872 -28.9486,-53.4441 -7.291,-27.2581 4.4884,-57.2144 -2.2271,-84.62 -8.4541,-34.5003 -24.7144,-67.9049 -46.7637,-95.754 -19.646,-24.8137 -47.0949,-42.6544 -73.4856,-60.1247 -41.2518,-27.3082 -87.5354,-46.1237 -131.3834,-69.0321 -57.0862,-29.8246 -114.8131,-58.4354 -171.4667,-89.0736 -59.9299,-32.4099 -119.5731,-65.4072 -178.1471,-100.2078 -56.4822,-33.5579 -118.4334,-60.4301 -167.0128,-104.6615 -44.2403,-40.2805 -79.7783,-90.3732 -109.1153,-142.5177 -30.0772,-53.4603 -47.73915,-113.1647 -66.80525,-171.4667 -17.9086,-54.7625 -40.9907,-109.5058 -44.537,-167.0131 -4.3354,-70.3049 6.7384,-142.4779 28.9491,-209.3229 15.5043,-46.6616 43.236,-88.7534 71.25845,-129.1567 23.401,-33.7401 44.9569,-66.2811 83.3158,-80.9304 31.4806,-12.0225 97.0585,0.7641 97.0585,0.7641 l 15.5878,-33.4026 c 0,0 22.255,-134.9747 51.2174,-195.9619 30.7619,-64.7765 77.7573,-121.498 126.9297,-173.6936 64.7139,-68.6927 140.5629,-126.7609 218.2303,-180.3739 50.6142,-34.9384 101.6412,-72.9209 160.3326,-91.3005 95.3,-29.8436 198.6336,-22.245 298.3968,-26.7221 21.7637,-0.9766 43.5928,-0.9931 65.3569,-0.024 z"
         style="fill:#c12d2e;fill-opacity:1;stroke:#000000;stroke-width:6.23515224px;stroke-linecap:butt;stroke-linejoin:miter;stroke-opacity:1" />
      <path
         sodipodi:nodetypes="sssssssssscssssscsssssssscssssscsssssssssscs"
         inkscape:connector-curvature="0"
         id="path826-3"
         d="m 142.79085,-1884.703 c 14.1196,-24.4858 28.4154,-48.9109 44.0892,-72.4323 15.835,-23.7633 33.8823,-45.98 50.3876,-69.2829 21.3744,-30.1772 40.5804,-61.9068 62.9846,-91.3276 25.7317,-33.7904 53.4312,-66.0891 81.8799,-97.6261 32.3211,-35.83 66.5825,-69.8759 100.7752,-103.9245 26.83,-26.717 49.0597,-59.8498 81.8799,-78.7306 19.8729,-11.4326 45.981,-7.9637 66.1338,-18.8954 28.1244,-15.2558 50.1732,-40.0008 72.4323,-62.9845 25.4349,-26.263 56.3495,-50.8327 69.2829,-85.0292 28.2445,-74.6798 9.4477,-239.3413 9.4477,-239.3413 0,0 -82.8129,9.5891 -113.3719,34.6415 -23.9726,19.6528 -21.7009,60.4401 -44.0894,81.8799 -26.1101,25.0038 -62.3886,39.1612 -97.6262,47.2385 -48.0907,11.0235 -98.7186,-2.0503 -148.0139,0 -12.6296,0.5254 -27.3859,-4.029 -37.7905,3.1492 -22.0293,15.198 -34.6413,72.4322 -34.6413,72.4322 0,0 -3.9393,-69.2667 -28.3431,-88.1783 -14.1303,-10.9501 -38.6129,6.6915 -53.5369,-3.1493 -25.4751,-16.7981 -17.8875,-61.8866 -40.9401,-81.8799 -17.5546,-15.2249 -43.1967,-18.3224 -66.1337,-22.0446 -8.2895,-1.3452 -16.9044,-1.3452 -25.1939,0 -22.937,3.7222 -48.5791,6.8197 -66.1337,22.0446 -23.0526,19.9933 -15.465,65.0818 -40.9401,81.8799 -14.924,9.8408 -39.4066,-7.8008 -53.5369,3.1493 -24.4038,18.9116 -28.3431,88.1783 -28.3431,88.1783 0,0 -12.612,-57.2342 -34.6413,-72.4322 -10.4046,-7.1782 -25.1609,-2.6238 -37.7905,-3.1492 -49.2953,-2.0503 -99.9232,11.0235 -148.0139,0 -35.2376,-8.0773 -71.5161,-22.2347 -97.6262,-47.2385 -22.3885,-21.4398 -20.1168,-62.2271 -44.0894,-81.8799 -30.559,-25.0524 -113.3719,-34.6415 -113.3719,-34.6415 0,0 -18.7968,164.6615 9.4477,239.3413 12.9334,34.1965 43.848,58.7662 69.2829,85.0292 22.2591,22.9837 44.3079,47.7287 72.4323,62.9845 20.1528,10.9317 46.2609,7.4628 66.1338,18.8954 32.8202,18.8808 55.0499,52.0136 81.8799,78.7306 34.1926,34.0486 68.4541,68.0945 100.7752,103.9245 28.4487,31.537 56.1482,63.8357 81.8799,97.6261 22.4042,29.4208 41.6102,61.1504 62.9846,91.3276 16.5053,23.3029 34.5526,45.5196 50.3876,69.2829 15.6738,23.5214 29.9696,47.9465 44.0892,72.4323 13.1413,22.7891 37.7908,69.2831 37.7908,69.2831 0,0 24.6496,-46.494 37.7909,-69.2831 z"
         style="fill:#73f001;fill-opacity:1;stroke:#000000;stroke-width:11.84678841;stroke-linecap:butt;stroke-linejoin:miter;stroke-miterlimit:4;stroke-dasharray:none;stroke-opacity:1" />
    </g>
    <rect
       style="fill:none;fill-opacity:1;stroke:none;stroke-width:3.9912312;stroke-linecap:butt;stroke-linejoin:miter;stroke-miterlimit:4;stroke-dasharray:none;stroke-opacity:1"
       id="rect860"
       width="2372.0088"
       height="2376"
       x="-1081.0044"
       y="-1041.4939" />
  </g>
</svg>
