<?xml version="1.0" encoding="UTF-8" standalone="no"?>
<!-- Created with Inkscape (http://www.inkscape.org/) -->

<svg
   xmlns:dc="http://purl.org/dc/elements/1.1/"
   xmlns:cc="http://creativecommons.org/ns#"
   xmlns:rdf="http://www.w3.org/1999/02/22-rdf-syntax-ns#"
   xmlns:svg="http://www.w3.org/2000/svg"
   xmlns="http://www.w3.org/2000/svg"
   xmlns:sodipodi="http://sodipodi.sourceforge.net/DTD/sodipodi-0.dtd"
   xmlns:inkscape="http://www.inkscape.org/namespaces/inkscape"
   width="512"
   height="512.00049"
   viewBox="0 0 135.46666 135.4668"
   version="1.1"
   id="svg8"
   inkscape:version="0.92.5 (2060ec1f9f, 2020-04-08)"
   sodipodi:docname="station__energy-recharge.svg">
  <defs
     id="defs2" />
  <sodipodi:namedview
     id="base"
     pagecolor="#ffffff"
     bordercolor="#666666"
     borderopacity="1.0"
     inkscape:pageopacity="0.0"
     inkscape:pageshadow="2"
     inkscape:zoom="2.8284271"
     inkscape:cx="-66.57699"
     inkscape:cy="-32.523417"
     inkscape:document-units="px"
     inkscape:current-layer="layer1"
     showgrid="true"
     units="px"
     showguides="true"
     inkscape:window-width="1920"
     inkscape:window-height="1136"
     inkscape:window-x="0"
     inkscape:window-y="27"
     inkscape:window-maximized="1"
     fit-margin-top="0"
     fit-margin-left="0"
     fit-margin-right="0"
     fit-margin-bottom="0">
    <inkscape:grid
       type="xygrid"
       id="grid861"
       originx="9.3823241e-08"
       originy="9.862444e-06" />
  </sodipodi:namedview>
  <metadata
     id="metadata5">
    <rdf:RDF>
      <cc:Work
         rdf:about="">
        <dc:format>image/svg+xml</dc:format>
        <dc:type
           rdf:resource="http://purl.org/dc/dcmitype/StillImage" />
        <dc:title></dc:title>
      </cc:Work>
    </rdf:RDF>
  </metadata>
  <g
     inkscape:label="Layer 1"
     inkscape:groupmode="layer"
     id="layer1"
     transform="translate(9.3823246e-8,-161.5332)">
    <path
       style="fill:#333333;fill-opacity:1;stroke:#f0f0f0;stroke-width:4.23333359;stroke-linecap:butt;stroke-linejoin:miter;stroke-miterlimit:4;stroke-dasharray:none;stroke-opacity:1"
       d="M 65.616666,163.64987 H 69.85 l 63.5,63.5 v 4.23336 l -63.5,63.50008 -4.233334,-8e-5 -63.4999993,-63.5 v -4.23336 z"
       id="path867"
       inkscape:connector-curvature="0"
       sodipodi:nodetypes="ccccccccc" />
    <path
       style="fill:#e40bd4;fill-opacity:1;stroke-width:1.69333351"
       d="m 63.386558,267.85443 c -3.36104,-5.1296 -5.327024,-17.84448 -2.75912,-17.84448 0.993672,0 2.77108,2.66696 3.949792,5.92664 1.178712,3.25968 2.59896,5.92664 3.156105,5.92664 0.55712,0 1.977392,-2.66696 3.156104,-5.92664 2.974832,-8.22672 5.988872,-7.65928 4.839336,0.9112 -0.95432,7.11496 -5.201112,15.17544 -7.99544,15.17544 -0.888392,0 -2.844441,-1.87592 -4.346777,-4.1688 z m 2.027392,-14.8812 c -0.5616,-2.09544 -1.034968,-5.334 -1.052,-7.19664 -0.0168,-1.86264 -2.361112,-5.87288 -5.209088,-8.91152 -8.622424,-9.19984 -22.404488,-13.12944 -30.622552,-8.73128 -5.114104,2.73696 -5.404544,1.06168 -1.321752,-7.62408 4.347856,-9.24968 17.817496,-21.7816 31.08368,-28.91976 l 9.441097,-5.08 9.441096,5.08 c 13.266186,7.13816 26.735829,19.67008 31.083679,28.91976 4.0828,8.68576 3.79236,10.36104 -1.32175,7.62408 -8.218063,-4.39816 -22.000127,-0.4688 -30.622553,8.73128 -2.847976,3.03864 -5.192064,7.04888 -5.209088,8.91152 -0.0456,5.00168 -1.88508,11.00664 -3.371384,11.00664 -0.71408,0 -1.757808,-1.71448 -2.319385,-3.81 z m -14.491048,-7.42496 c -4.182272,-5.31696 -4.347528,-6.70776 -0.951792,-8.01088 1.406776,-0.54 3.001624,-1.1928 3.544096,-1.45112 1.32788,-0.632 5.553968,11.86336 4.40188,13.01544 -1.75856,1.75856 -3.519448,0.86392 -6.994184,-3.55344 z m 26.661961,3.58872 c -1.183248,-1.1832 3.003914,-13.6504 4.420234,-13.16112 0.572,0.1976 2.35612,1.09584 3.964768,1.99608 2.728648,1.52696 2.690944,1.95 -0.56224,6.30728 -3.63004,4.86208 -6.213962,6.46656 -7.822778,4.85776 z"
       id="path4834"
       inkscape:connector-curvature="0" />
  </g>
</svg>
