<?xml version="1.0" encoding="UTF-8" standalone="no"?>
<!-- Created with Inkscape (http://www.inkscape.org/) -->

<svg
   xmlns:dc="http://purl.org/dc/elements/1.1/"
   xmlns:cc="http://creativecommons.org/ns#"
   xmlns:rdf="http://www.w3.org/1999/02/22-rdf-syntax-ns#"
   xmlns:svg="http://www.w3.org/2000/svg"
   xmlns="http://www.w3.org/2000/svg"
   xmlns:sodipodi="http://sodipodi.sourceforge.net/DTD/sodipodi-0.dtd"
   xmlns:inkscape="http://www.inkscape.org/namespaces/inkscape"
   width="256"
   height="256.00024"
   viewBox="0 0 67.73333 67.7334"
   version="1.1"
   id="svg8"
   inkscape:version="0.92.5 (2060ec1f9f, 2020-04-08)"
   sodipodi:docname="station__total-recharge.svg">
  <defs
     id="defs2" />
  <sodipodi:namedview
     id="base"
     pagecolor="#ffffff"
     bordercolor="#666666"
     borderopacity="1.0"
     inkscape:pageopacity="0.0"
     inkscape:pageshadow="2"
     inkscape:zoom="2.8284273"
     inkscape:cx="49.027949"
     inkscape:cy="141.19429"
     inkscape:document-units="px"
     inkscape:current-layer="layer1"
     showgrid="true"
     units="px"
     showguides="true"
     inkscape:window-width="1920"
     inkscape:window-height="1136"
     inkscape:window-x="0"
     inkscape:window-y="27"
     inkscape:window-maximized="1"
     fit-margin-top="0"
     fit-margin-left="0"
     fit-margin-right="0"
     fit-margin-bottom="0">
    <inkscape:grid
       type="xygrid"
       id="grid861"
       originx="9.6911606e-08"
       originy="9.8490332e-08" />
  </sodipodi:namedview>
  <metadata
     id="metadata5">
    <rdf:RDF>
      <cc:Work
         rdf:about="">
        <dc:format>image/svg+xml</dc:format>
        <dc:type
           rdf:resource="http://purl.org/dc/dcmitype/StillImage" />
        <dc:title></dc:title>
      </cc:Work>
    </rdf:RDF>
  </metadata>
  <g
     inkscape:label="Layer 1"
     inkscape:groupmode="layer"
     id="layer1"
     transform="translate(9.6911624e-8,-229.2666)">
    <path
       style="fill:#333333;fill-opacity:1;stroke:#f0f0f0;stroke-width:2.11666679;stroke-linecap:butt;stroke-linejoin:miter;stroke-miterlimit:4;stroke-dasharray:none;stroke-opacity:1"
       d="M 32.808333,230.32493 H 34.925 l 31.749999,31.75 v 2.11668 L 34.925,295.94165 l -2.116667,-4e-5 -31.7499997,-31.75 v -2.11668 z"
       id="path867-3"
       inkscape:connector-curvature="0"
       sodipodi:nodetypes="ccccccccc" />
    <path
       style="fill:#ffd14e;fill-opacity:1;stroke-width:0.83621401"
       d="m 31.261847,281.89177 c -1.021532,-2.30932 -1.452908,-4.484 -1.10618,-5.57644 0.502752,-1.58404 0.69264,-1.4294 1.64444,1.3392 1.194156,3.47356 1.823264,4.36384 2.561812,3.62528 0.2724,-0.2724 0.97948,-1.90376 1.571308,-3.62528 0.9518,-2.7686 1.141688,-2.92324 1.64444,-1.3392 0.650612,2.04988 -2.247836,9.36208 -3.711,9.36208 -0.51164,0 -1.683808,-1.70352 -2.60482,-3.78564 z m 1.439964,-3.39056 c -0.27916,-0.72752 -0.507572,-2.3652 -0.507572,-3.63932 0,-2.47912 -2.950684,-7.44872 -5.017284,-8.45024 -0.689876,-0.3344 -2.356276,-0.93408 -3.703104,-1.3328 -4.907872,-1.45288 -4.48408,-9.42028 0.799028,-15.022 2.281276,-2.41888 2.904076,-3.77148 2.904076,-6.30712 0,-3.71228 1.369172,-4.3092 2.208992,-0.96308 0.34496,1.37436 0.0224,3.80204 -0.820284,6.17476 -1.414212,3.9818 -1.774744,6.61228 -0.906276,6.61228 0.26532,0 1.61132,-1.12888 2.991072,-2.50864 1.379752,-1.37976 2.827048,-2.50864 3.216208,-2.50864 0.38916,0 1.836456,1.12888 3.216208,2.50864 1.379752,1.37976 2.725736,2.50864 2.991073,2.50864 0.868468,0 0.507936,-2.63048 -0.906277,-6.61228 -0.84272,-2.37272 -1.165224,-4.8004 -0.82028,-6.17476 0.83982,-3.34612 2.208989,-2.7492 2.208989,0.96308 0,2.53564 0.622804,3.88824 2.904076,6.30712 5.283108,5.60172 5.7069,13.56912 0.799032,15.022 -1.346832,0.3988 -3.013232,0.99848 -3.703108,1.3328 -2.066601,1.00152 -5.017285,5.97112 -5.017285,8.45024 0,2.73472 -0.750704,4.962 -1.672428,4.962 -0.36152,0 -0.885688,-0.5952 -1.164856,-1.32268 z m -6.449748,-4.8116 c -1.198568,-0.99536 -2.8893,-2.2254 -3.757188,-2.73344 -1.357952,-0.79492 -1.418756,-1.11556 -0.436092,-2.2996 1.346064,-1.62188 3.448976,-1.82412 3.438204,-0.3308 -0.004,0.57488 1.159792,2.00492 2.586528,3.17784 2.095752,1.72288 2.378312,2.31148 1.470912,3.06404 -0.853208,0.7076 -1.646912,0.49652 -3.302364,-0.87824 z m 11.857632,0.77356 c -0.76942,-0.92708 -0.446828,-1.53648 1.575816,-2.97672 1.398813,-0.99604 2.543297,-2.3498 2.543297,-3.00836 0,-1.62096 2.04004,-1.51528 3.445744,0.1784 0.982392,1.18372 0.922648,1.50492 -0.42774,2.2996 -0.863292,0.50804 -2.604624,1.76724 -3.869628,2.79824 -1.932389,1.57488 -2.454641,1.6882 -3.267489,0.70876 z"
       id="path7280"
       inkscape:connector-curvature="0" />
  </g>
</svg>
