<?xml version="1.0" encoding="UTF-8" standalone="no"?>
<!-- Created with Inkscape (http://www.inkscape.org/) -->

<svg
   xmlns:dc="http://purl.org/dc/elements/1.1/"
   xmlns:cc="http://creativecommons.org/ns#"
   xmlns:rdf="http://www.w3.org/1999/02/22-rdf-syntax-ns#"
   xmlns:svg="http://www.w3.org/2000/svg"
   xmlns="http://www.w3.org/2000/svg"
   xmlns:sodipodi="http://sodipodi.sourceforge.net/DTD/sodipodi-0.dtd"
   xmlns:inkscape="http://www.inkscape.org/namespaces/inkscape"
   width="256"
   height="256.00024"
   viewBox="0 0 67.73333 67.7334"
   version="1.1"
   id="svg8"
   inkscape:version="0.92.5 (2060ec1f9f, 2020-04-08)"
   sodipodi:docname="station__energy-recharge.svg">
  <defs
     id="defs2" />
  <sodipodi:namedview
     id="base"
     pagecolor="#ffffff"
     bordercolor="#666666"
     borderopacity="1.0"
     inkscape:pageopacity="0.0"
     inkscape:pageshadow="2"
     inkscape:zoom="0.5"
     inkscape:cx="-837.05789"
     inkscape:cy="-336.8705"
     inkscape:document-units="px"
     inkscape:current-layer="layer1"
     showgrid="true"
     units="px"
     showguides="true"
     inkscape:window-width="1920"
     inkscape:window-height="1136"
     inkscape:window-x="0"
     inkscape:window-y="27"
     inkscape:window-maximized="1"
     fit-margin-top="0"
     fit-margin-left="0"
     fit-margin-right="0"
     fit-margin-bottom="0">
    <inkscape:grid
       type="xygrid"
       id="grid861"
       originx="9.6911615e-08"
       originy="6.9481294e-06" />
  </sodipodi:namedview>
  <metadata
     id="metadata5">
    <rdf:RDF>
      <cc:Work
         rdf:about="">
        <dc:format>image/svg+xml</dc:format>
        <dc:type
           rdf:resource="http://purl.org/dc/dcmitype/StillImage" />
        <dc:title></dc:title>
      </cc:Work>
    </rdf:RDF>
  </metadata>
  <g
     inkscape:label="Layer 1"
     inkscape:groupmode="layer"
     id="layer1"
     transform="translate(9.6911624e-8,-229.2666)">
    <path
       style="fill:#333333;fill-opacity:1;stroke:#f0f0f0;stroke-width:2.11666679;stroke-linecap:butt;stroke-linejoin:miter;stroke-miterlimit:4;stroke-dasharray:none;stroke-opacity:1"
       d="M 32.808333,230.32493 H 34.925 l 31.749999,31.75 v 2.11668 L 34.925,295.94165 l -2.116667,-4e-5 -31.7499997,-31.75 v -2.11668 z"
       id="path867"
       inkscape:connector-curvature="0"
       sodipodi:nodetypes="ccccccccc" />
    <path
       style="fill:#e40bd4;fill-opacity:1;stroke-width:0.84666675"
       d="m 31.693279,282.42721 c -1.68052,-2.5648 -2.663512,-8.92224 -1.37956,-8.92224 0.496836,0 1.38554,1.33348 1.974896,2.96332 0.589356,1.62984 1.29948,2.96332 1.578052,2.96332 0.27856,0 0.988696,-1.33348 1.578052,-2.96332 1.487416,-4.11336 2.994436,-3.82964 2.419668,0.4556 -0.47716,3.55748 -2.600556,7.58772 -3.99772,7.58772 -0.444196,0 -1.42222,-0.93796 -2.173388,-2.0844 z m 1.013696,-7.4406 c -0.2808,-1.04772 -0.517484,-2.667 -0.526,-3.59832 -0.0084,-0.93132 -1.180556,-2.93644 -2.604544,-4.45576 -4.311212,-4.59992 -11.202244,-6.56472 -15.311276,-4.36564 -2.557052,1.36848 -2.702272,0.53084 -0.660876,-3.81204 2.173928,-4.62484 8.908748,-10.8908 15.54184,-14.45988 l 4.720548,-2.54 4.720548,2.54 c 6.633093,3.56908 13.367914,9.83504 15.541839,14.45988 2.0414,4.34288 1.89618,5.18052 -0.660875,3.81204 -4.109031,-2.19908 -11.000063,-0.2344 -15.311276,4.36564 -1.423988,1.51932 -2.596032,3.52444 -2.604544,4.45576 -0.0228,2.50084 -0.94254,5.50332 -1.685692,5.50332 -0.35704,0 -0.878904,-0.85724 -1.159692,-1.905 z m -7.245524,-3.71248 c -2.091136,-2.65848 -2.173764,-3.35388 -0.475896,-4.00544 0.703388,-0.27 1.500812,-0.5964 1.772048,-0.72556 0.66394,-0.316 2.776984,5.93168 2.20094,6.50772 -0.87928,0.87928 -1.759724,0.43196 -3.497092,-1.77672 z m 13.33098,1.79436 c -0.591624,-0.5916 1.501957,-6.8252 2.210117,-6.58056 0.286,0.0988 1.17806,0.54792 1.982384,0.99804 1.364324,0.76348 1.345472,0.975 -0.28112,3.15364 -1.81502,2.43104 -3.106981,3.23328 -3.911389,2.42888 z"
       id="path4834"
       inkscape:connector-curvature="0" />
  </g>
</svg>
