<?xml version="1.0" encoding="UTF-8" standalone="no"?>
<!-- Created with Inkscape (http://www.inkscape.org/) -->

<svg
   xmlns:dc="http://purl.org/dc/elements/1.1/"
   xmlns:cc="http://creativecommons.org/ns#"
   xmlns:rdf="http://www.w3.org/1999/02/22-rdf-syntax-ns#"
   xmlns:svg="http://www.w3.org/2000/svg"
   xmlns="http://www.w3.org/2000/svg"
   xmlns:sodipodi="http://sodipodi.sourceforge.net/DTD/sodipodi-0.dtd"
   xmlns:inkscape="http://www.inkscape.org/namespaces/inkscape"
   width="512"
   height="512.00049"
   viewBox="0 0 135.46666 135.4668"
   version="1.1"
   id="svg8"
   inkscape:version="0.92.5 (2060ec1f9f, 2020-04-08)"
   sodipodi:docname="station__ammo-recharge.svg">
  <defs
     id="defs2" />
  <sodipodi:namedview
     id="base"
     pagecolor="#ffffff"
     bordercolor="#666666"
     borderopacity="1.0"
     inkscape:pageopacity="0.0"
     inkscape:pageshadow="2"
     inkscape:zoom="11.313709"
     inkscape:cx="59.270442"
     inkscape:cy="56.227533"
     inkscape:document-units="px"
     inkscape:current-layer="layer1"
     showgrid="true"
     units="px"
     showguides="true"
     inkscape:window-width="1920"
     inkscape:window-height="1136"
     inkscape:window-x="0"
     inkscape:window-y="27"
     inkscape:window-maximized="1"
     fit-margin-top="0"
     fit-margin-left="0"
     fit-margin-right="0"
     fit-margin-bottom="0">
    <inkscape:grid
       type="xygrid"
       id="grid861"
       originx="9.3823215e-08"
       originy="8.6293515e-06" />
  </sodipodi:namedview>
  <metadata
     id="metadata5">
    <rdf:RDF>
      <cc:Work
         rdf:about="">
        <dc:format>image/svg+xml</dc:format>
        <dc:type
           rdf:resource="http://purl.org/dc/dcmitype/StillImage" />
        <dc:title></dc:title>
      </cc:Work>
    </rdf:RDF>
  </metadata>
  <g
     inkscape:label="Layer 1"
     inkscape:groupmode="layer"
     id="layer1"
     transform="translate(9.3823225e-8,-161.5332)">
    <path
       style="fill:#333333;fill-opacity:1;stroke:#f0f0f0;stroke-width:4.23333359;stroke-linecap:butt;stroke-linejoin:miter;stroke-miterlimit:4;stroke-dasharray:none;stroke-opacity:1"
       d="m 65.616667,163.64987 h 4.233334 l 63.499999,63.5 v 4.23336 l -63.499999,63.50008 -4.233334,-8e-5 -63.5000003,-63.5 v -4.23336 z"
       id="path867-3"
       inkscape:connector-curvature="0"
       sodipodi:nodetypes="ccccccccc" />
    <path
       style="fill:#b30000;fill-opacity:1;stroke-width:1.69333327"
       d="m 63.173786,269.00011 c -1.512352,-2.5612 -3.280576,-7.48816 -3.929384,-10.94896 -0.66368,-3.54 -2.398112,-6.7064 -3.96536,-7.2392 -4.567008,-1.55248 -9.419672,-9.29856 -7.20972,-11.50848 1.0362,-1.03624 1.884008,-3.60208 1.884008,-5.702 0,-3.00416 -1.231856,-4.04896 -5.779448,-4.90216 -3.178696,-0.596 -7.33072,-0.592 -9.226712,0.008 -4.114808,1.306 -10.39384,-4.18664 -10.39384,-9.092 0,-2.89976 0.53512,-3.0376 5.101304,-1.31408 6.913032,2.60936 12.800736,-1.03888 19.452032,-12.05312 5.05216,-8.36624 13.752616,-19.00416 17.372784,-21.2416 2.403161,-1.4852 13.202261,10.01352 19.880551,21.16856 6.628368,11.0716 12.51832,14.74336 19.452029,12.12616 4.5662,-1.72352 5.10131,-1.58568 5.10131,1.31408 0,4.90536 -6.27903,10.398 -10.39384,9.092 -1.895995,-0.6016 -6.048019,-0.6064 -9.226715,-0.008 -4.547592,0.85312 -5.779448,1.89792 -5.779448,4.90208 0,2.09992 0.847808,4.66576 1.884008,5.702 2.209952,2.20992 -2.642712,9.956 -7.20972,11.50848 -1.567258,0.5328 -3.301694,3.6992 -3.965366,7.2392 -1.372576,7.32136 -5.878936,15.6056 -8.488928,15.6056 -0.995393,0 -3.047193,-2.09544 -4.559545,-4.65664 z m 2.226256,-10.03296 c -1.996176,-3.4328 -2.478216,-2.33408 -0.844184,1.92416 0.58072,1.51336 1.412568,2.3948 1.848544,1.9588 0.436,-0.436 -0.016,-2.18328 -1.00436,-3.88296 z m 6.514761,-1.39704 c 0,-0.93136 -0.73864,-0.5504 -1.641472,0.84664 -0.902808,1.39704 -1.641472,3.302 -1.641472,4.23336 0,0.93136 0.73864,0.5504 1.641472,-0.84664 0.902808,-1.39704 1.641472,-3.302 1.641472,-4.23336 z m -8.414809,-9.39744 c 0,-2.78424 -4.579808,-10.93944 -7.508344,-13.36992 -2.285784,-1.89704 -2.651656,-1.61944 -2.651656,2.01168 0,2.31672 1.579312,6.22008 3.509576,8.674 3.611712,4.59152 6.650424,5.818 6.650424,2.68424 z m 15.117093,-2.68424 c 1.930274,-2.45392 3.509586,-6.35728 3.509586,-8.674 0,-3.63112 -0.36584,-3.90872 -2.651666,-2.01168 -2.928532,2.43048 -7.50834,10.58568 -7.50834,13.36992 0,3.13376 3.038712,1.90728 6.65042,-2.68424 z"
       id="path982"
       inkscape:connector-curvature="0" />
  </g>
</svg>
