<?xml version="1.0" encoding="UTF-8" standalone="no"?>
<!-- Created with Inkscape (http://www.inkscape.org/) -->

<svg
   xmlns:dc="http://purl.org/dc/elements/1.1/"
   xmlns:cc="http://creativecommons.org/ns#"
   xmlns:rdf="http://www.w3.org/1999/02/22-rdf-syntax-ns#"
   xmlns:svg="http://www.w3.org/2000/svg"
   xmlns="http://www.w3.org/2000/svg"
   xmlns:sodipodi="http://sodipodi.sourceforge.net/DTD/sodipodi-0.dtd"
   xmlns:inkscape="http://www.inkscape.org/namespaces/inkscape"
   width="256"
   height="256.00024"
   viewBox="0 0 67.73333 67.7334"
   version="1.1"
   id="svg8"
   inkscape:version="0.92.5 (2060ec1f9f, 2020-04-08)"
   sodipodi:docname="station__ammo-recharge.svg">
  <defs
     id="defs2" />
  <sodipodi:namedview
     id="base"
     pagecolor="#ffffff"
     bordercolor="#666666"
     borderopacity="1.0"
     inkscape:pageopacity="0.0"
     inkscape:pageshadow="2"
     inkscape:zoom="1.4142136"
     inkscape:cx="245.60657"
     inkscape:cy="304.70187"
     inkscape:document-units="px"
     inkscape:current-layer="layer1"
     showgrid="true"
     units="px"
     showguides="true"
     inkscape:window-width="1920"
     inkscape:window-height="1136"
     inkscape:window-x="0"
     inkscape:window-y="27"
     inkscape:window-maximized="1"
     fit-margin-top="0"
     fit-margin-left="0"
     fit-margin-right="0"
     fit-margin-bottom="0">
    <inkscape:grid
       type="xygrid"
       id="grid861"
       originx="9.691161e-08"
       originy="5.7150368e-06" />
  </sodipodi:namedview>
  <metadata
     id="metadata5">
    <rdf:RDF>
      <cc:Work
         rdf:about="">
        <dc:format>image/svg+xml</dc:format>
        <dc:type
           rdf:resource="http://purl.org/dc/dcmitype/StillImage" />
        <dc:title></dc:title>
      </cc:Work>
    </rdf:RDF>
  </metadata>
  <g
     inkscape:label="Layer 1"
     inkscape:groupmode="layer"
     id="layer1"
     transform="translate(9.6911624e-8,-229.2666)">
    <path
       style="fill:#333333;fill-opacity:1;stroke:#f0f0f0;stroke-width:2.11666679;stroke-linecap:butt;stroke-linejoin:miter;stroke-miterlimit:4;stroke-dasharray:none;stroke-opacity:1"
       d="M 32.808333,230.32493 H 34.925 l 31.749999,31.75 v 2.11668 L 34.925,295.94165 l -2.116667,-4e-5 -31.7499997,-31.75 v -2.11668 z"
       id="path867-3"
       inkscape:connector-curvature="0"
       sodipodi:nodetypes="ccccccccc" />
    <path
       style="fill:#b30000;fill-opacity:1;stroke-width:0.84666663"
       d="m 31.586893,283.00005 c -0.756176,-1.2806 -1.640288,-3.74408 -1.964692,-5.47448 -0.33184,-1.77 -1.199056,-3.3532 -1.98268,-3.6196 -2.283504,-0.77624 -4.709836,-4.64928 -3.60486,-5.75424 0.5181,-0.51812 0.942004,-1.80104 0.942004,-2.851 0,-1.50208 -0.615928,-2.02448 -2.889724,-2.45108 -1.589348,-0.298 -3.66536,-0.296 -4.613356,0.004 -2.057404,0.653 -5.19692,-2.09332 -5.19692,-4.546 0,-1.44988 0.26756,-1.5188 2.550652,-0.65704 3.456516,1.30468 6.400368,-0.51944 9.726016,-6.02656 2.52608,-4.18312 6.876308,-9.50208 8.686392,-10.6208 1.20158,-0.7426 6.60113,5.00676 9.940275,10.58428 3.314184,5.5358 6.25916,7.37168 9.726014,6.06308 2.2831,-0.86176 2.550655,-0.79284 2.550655,0.65704 0,2.45268 -3.139515,5.199 -5.19692,4.546 -0.947997,-0.3008 -3.024009,-0.3032 -4.613357,-0.004 -2.273796,0.42656 -2.889724,0.94896 -2.889724,2.45104 0,1.04996 0.423904,2.33288 0.942004,2.851 1.104976,1.10496 -1.321356,4.978 -3.60486,5.75424 -0.783629,0.2664 -1.650847,1.8496 -1.982683,3.6196 -0.686288,3.66068 -2.939468,7.8028 -4.244464,7.8028 -0.497696,0 -1.523596,-1.04772 -2.279772,-2.32832 z m 1.113128,-5.01648 c -0.998088,-1.7164 -1.239108,-1.16704 -0.422092,0.96208 0.29036,0.75668 0.706284,1.1974 0.924272,0.9794 0.218,-0.218 -0.008,-1.09164 -0.50218,-1.94148 z m 3.25738,-0.69852 c 0,-0.46568 -0.36932,-0.2752 -0.820736,0.42332 -0.451404,0.69852 -0.820736,1.651 -0.820736,2.11668 0,0.46568 0.36932,0.2752 0.820736,-0.42332 0.451404,-0.69852 0.820736,-1.651 0.820736,-2.11668 z m -4.207404,-4.69872 c 0,-1.39212 -2.289904,-5.46972 -3.754172,-6.68496 -1.142892,-0.94852 -1.325828,-0.80972 -1.325828,1.00584 0,1.15836 0.789656,3.11004 1.754788,4.337 1.805856,2.29576 3.325212,2.909 3.325212,1.34212 z m 7.558546,-1.34212 c 0.965137,-1.22696 1.754793,-3.17864 1.754793,-4.337 0,-1.81556 -0.18292,-1.95436 -1.325833,-1.00584 -1.464266,1.21524 -3.75417,5.29284 -3.75417,6.68496 0,1.56688 1.519356,0.95364 3.32521,-1.34212 z"
       id="path982"
       inkscape:connector-curvature="0" />
  </g>
</svg>
