<?xml version="1.0" encoding="UTF-8" standalone="no"?>
<!-- Created with Inkscape (http://www.inkscape.org/) -->

<svg
   xmlns:dc="http://purl.org/dc/elements/1.1/"
   xmlns:cc="http://creativecommons.org/ns#"
   xmlns:rdf="http://www.w3.org/1999/02/22-rdf-syntax-ns#"
   xmlns:svg="http://www.w3.org/2000/svg"
   xmlns="http://www.w3.org/2000/svg"
   xmlns:sodipodi="http://sodipodi.sourceforge.net/DTD/sodipodi-0.dtd"
   xmlns:inkscape="http://www.inkscape.org/namespaces/inkscape"
   width="64"
   height="64"
   viewBox="0 0 16.933333 16.933334"
   version="1.1"
   id="svg8"
   inkscape:version="0.92.5 (2060ec1f9f, 2020-04-08)"
   sodipodi:docname="full-recharge.svg">
  <defs
     id="defs2" />
  <sodipodi:namedview
     id="base"
     pagecolor="#ffffff"
     bordercolor="#666666"
     borderopacity="1.0"
     inkscape:pageopacity="0.0"
     inkscape:pageshadow="2"
     inkscape:zoom="11.313709"
     inkscape:cx="27.362249"
     inkscape:cy="20.872163"
     inkscape:document-units="px"
     inkscape:current-layer="layer1"
     showgrid="true"
     units="px"
     showguides="true"
     inkscape:window-width="1920"
     inkscape:window-height="1136"
     inkscape:window-x="0"
     inkscape:window-y="27"
     inkscape:window-maximized="1">
    <inkscape:grid
       type="xygrid"
       id="grid861" />
  </sodipodi:namedview>
  <metadata
     id="metadata5">
    <rdf:RDF>
      <cc:Work
         rdf:about="">
        <dc:format>image/svg+xml</dc:format>
        <dc:type
           rdf:resource="http://purl.org/dc/dcmitype/StillImage" />
        <dc:title></dc:title>
      </cc:Work>
    </rdf:RDF>
  </metadata>
  <g
     inkscape:label="Layer 1"
     inkscape:groupmode="layer"
     id="layer1"
     transform="translate(0,-280.06665)">
    <path
       style="fill:#333333;fill-opacity:1;stroke:#f0f0f0;stroke-width:0.5291667;stroke-linecap:butt;stroke-linejoin:miter;stroke-miterlimit:4;stroke-dasharray:none;stroke-opacity:1"
       d="M 8.2020833,280.33123 H 8.73125 l 7.9375,7.9375 v 0.52917 l -7.9375,7.93751 -0.5291667,-10e-6 -7.93750005,-7.9375 v -0.52917 z"
       id="path867-3"
       inkscape:connector-curvature="0"
       sodipodi:nodetypes="ccccccccc" />
    <path
       style="fill:#ff0000;fill-opacity:1;stroke-width:0.2090535"
       d="m 7.8154617,293.22294 c -0.255383,-0.57733 -0.363227,-1.121 -0.276545,-1.39411 0.125688,-0.39601 0.17316,-0.35735 0.41111,0.3348 0.298539,0.86839 0.455816,1.09096 0.640453,0.90632 0.0681,-0.0681 0.24487,-0.47594 0.392827,-0.90632 0.23795,-0.69215 0.285422,-0.73081 0.41111,-0.3348 0.162653,0.51247 -0.561959,2.34052 -0.92775,2.34052 -0.12791,0 -0.420952,-0.42588 -0.651205,-0.94641 z m 0.359991,-0.84764 c -0.06979,-0.18188 -0.126893,-0.5913 -0.126893,-0.90983 0,-0.61978 -0.737671,-1.86218 -1.254321,-2.11256 -0.172469,-0.0836 -0.589069,-0.23352 -0.925776,-0.3332 -1.226968,-0.36322 -1.12102,-2.35507 0.199757,-3.7555 0.570319,-0.60472 0.726019,-0.94287 0.726019,-1.57678 0,-0.92807 0.342293,-1.0773 0.552248,-0.24077 0.08624,0.34359 0.0056,0.95051 -0.205071,1.54369 -0.353553,0.99545 -0.443686,1.65307 -0.226569,1.65307 0.06633,0 0.40283,-0.28222 0.747768,-0.62716 0.344938,-0.34494 0.706762,-0.62716 0.804052,-0.62716 0.09729,0 0.459114,0.28222 0.804052,0.62716 0.344938,0.34494 0.681434,0.62716 0.7477683,0.62716 0.217117,0 0.126984,-0.65762 -0.2265693,-1.65307 -0.21068,-0.59318 -0.291306,-1.2001 -0.20507,-1.54369 0.209955,-0.83653 0.5522473,-0.6873 0.5522473,0.24077 0,0.63391 0.155701,0.97206 0.726019,1.57678 1.320777,1.40043 1.426725,3.39228 0.199758,3.7555 -0.336708,0.0997 -0.753308,0.24962 -0.925777,0.3332 -0.5166503,0.25038 -1.2543213,1.49278 -1.2543213,2.11256 0,0.68368 -0.187676,1.2405 -0.418107,1.2405 -0.09038,0 -0.221422,-0.1488 -0.291214,-0.33067 z m -1.612437,-1.2029 c -0.299642,-0.24884 -0.722325,-0.55635 -0.939297,-0.68336 -0.339488,-0.19873 -0.354689,-0.27889 -0.109023,-0.5749 0.336516,-0.40547 0.862244,-0.45603 0.859551,-0.0827 -10e-4,0.14372 0.289948,0.50123 0.646632,0.79446 0.523938,0.43072 0.594578,0.57787 0.367728,0.76601 -0.213302,0.1769 -0.411728,0.12413 -0.825591,-0.21956 z m 2.964408,0.19339 c -0.192355,-0.23177 -0.111707,-0.38412 0.393954,-0.74418 0.3497033,-0.24901 0.6358243,-0.58745 0.6358243,-0.75209 0,-0.40524 0.51001,-0.37882 0.861436,0.0446 0.245598,0.29593 0.230662,0.37623 -0.106935,0.5749 -0.215823,0.12701 -0.651156,0.44181 -0.967407,0.69956 -0.4830973,0.39372 -0.6136603,0.42205 -0.8168723,0.17719 z"
       id="path7280"
       inkscape:connector-curvature="0" />
  </g>
</svg>
