<?xml version="1.0" encoding="UTF-8" standalone="no"?>
<!-- Created with Inkscape (http://www.inkscape.org/) -->

<svg
   xmlns:dc="http://purl.org/dc/elements/1.1/"
   xmlns:cc="http://creativecommons.org/ns#"
   xmlns:rdf="http://www.w3.org/1999/02/22-rdf-syntax-ns#"
   xmlns:svg="http://www.w3.org/2000/svg"
   xmlns="http://www.w3.org/2000/svg"
   xmlns:sodipodi="http://sodipodi.sourceforge.net/DTD/sodipodi-0.dtd"
   xmlns:inkscape="http://www.inkscape.org/namespaces/inkscape"
   width="512"
   height="512.00049"
   viewBox="0 0 135.46666 135.4668"
   version="1.1"
   id="svg8"
   inkscape:version="0.92.5 (2060ec1f9f, 2020-04-08)"
   sodipodi:docname="station__total-recharge.svg">
  <defs
     id="defs2" />
  <sodipodi:namedview
     id="base"
     pagecolor="#ffffff"
     bordercolor="#666666"
     borderopacity="1.0"
     inkscape:pageopacity="0.0"
     inkscape:pageshadow="2"
     inkscape:zoom="11.313709"
     inkscape:cx="11.673318"
     inkscape:cy="20.872196"
     inkscape:document-units="px"
     inkscape:current-layer="layer1"
     showgrid="true"
     units="px"
     showguides="true"
     inkscape:window-width="1920"
     inkscape:window-height="1136"
     inkscape:window-x="0"
     inkscape:window-y="27"
     inkscape:window-maximized="1"
     fit-margin-top="0"
     fit-margin-left="0"
     fit-margin-right="0"
     fit-margin-bottom="0">
    <inkscape:grid
       type="xygrid"
       id="grid861"
       originx="9.3823215e-08"
       originy="8.6293515e-06" />
  </sodipodi:namedview>
  <metadata
     id="metadata5">
    <rdf:RDF>
      <cc:Work
         rdf:about="">
        <dc:format>image/svg+xml</dc:format>
        <dc:type
           rdf:resource="http://purl.org/dc/dcmitype/StillImage" />
        <dc:title></dc:title>
      </cc:Work>
    </rdf:RDF>
  </metadata>
  <g
     inkscape:label="Layer 1"
     inkscape:groupmode="layer"
     id="layer1"
     transform="translate(9.3823225e-8,-161.5332)">
    <path
       style="fill:#333333;fill-opacity:1;stroke:#f0f0f0;stroke-width:4.23333359;stroke-linecap:butt;stroke-linejoin:miter;stroke-miterlimit:4;stroke-dasharray:none;stroke-opacity:1"
       d="m 65.616667,163.64987 h 4.233334 l 63.499999,63.5 v 4.23336 l -63.499999,63.50008 -4.233334,-8e-5 -63.5000003,-63.5 v -4.23336 z"
       id="path867-3"
       inkscape:connector-curvature="0"
       sodipodi:nodetypes="ccccccccc" />
    <path
       style="fill:#ffd14e;fill-opacity:1;stroke-width:1.67242801"
       d="m 62.523694,266.78355 c -2.043064,-4.61864 -2.905816,-8.968 -2.21236,-11.15288 1.005504,-3.16808 1.38528,-2.8588 3.28888,2.6784 2.388312,6.94712 3.646528,8.72768 5.123625,7.25056 0.5448,-0.5448 1.95896,-3.80752 3.142616,-7.25056 1.9036,-5.5372 2.283376,-5.84648 3.28888,-2.6784 1.301224,4.09976 -4.495672,18.72416 -7.422,18.72416 -1.023281,0 -3.367617,-3.40704 -5.209641,-7.57128 z m 2.879928,-6.78112 c -0.55832,-1.45504 -1.015144,-4.7304 -1.015144,-7.27864 0,-4.95824 -5.901368,-14.89744 -10.034568,-16.90048 -1.379752,-0.6688 -4.712552,-1.86816 -7.406208,-2.6656 -9.815744,-2.90576 -8.96816,-18.84056 1.598056,-30.044 4.562552,-4.83776 5.808152,-7.54296 5.808152,-12.61424 0,-7.42456 2.738344,-8.6184 4.417984,-1.92616 0.68992,2.74872 0.0448,7.60408 -1.640568,12.34952 -2.828424,7.9636 -3.549488,13.22456 -1.812552,13.22456 0.53064,0 3.22264,-2.25776 5.982144,-5.01728 2.759504,-2.75952 5.654096,-5.01728 6.432417,-5.01728 0.77832,0 3.672912,2.25776 6.432416,5.01728 2.759504,2.75952 5.451472,5.01728 5.982146,5.01728 1.736936,0 1.015872,-5.26096 -1.812554,-13.22456 -1.68544,-4.74544 -2.330448,-9.6008 -1.64056,-12.34952 1.67964,-6.69224 4.417978,-5.4984 4.417978,1.92616 0,5.07128 1.245608,7.77648 5.808152,12.61424 10.566216,11.20344 11.4138,27.13824 1.598064,30.044 -2.693664,0.7976 -6.026464,1.99696 -7.406216,2.6656 -4.133202,2.00304 -10.03457,11.94224 -10.03457,16.90048 0,5.46944 -1.501408,9.924 -3.344856,9.924 -0.723041,0 -1.771377,-1.1904 -2.329713,-2.64536 z m -12.899496,-9.6232 c -2.397136,-1.99072 -5.7786,-4.4508 -7.514376,-5.46688 -2.715904,-1.58984 -2.837512,-2.23112 -0.872184,-4.5992 2.692128,-3.24376 6.897952,-3.64824 6.876408,-0.6616 -0.008,1.14976 2.319584,4.00984 5.173056,6.35568 4.191504,3.44576 4.756624,4.62296 2.941824,6.12808 -1.706416,1.4152 -3.293824,0.99304 -6.604728,-1.75648 z m 23.715265,1.54712 c -1.53884,-1.85416 -0.893656,-3.07296 3.151632,-5.95344 2.797626,-1.99208 5.086594,-4.6996 5.086594,-6.01672 0,-3.24192 4.08008,-3.03056 6.891488,0.3568 1.964784,2.36744 1.845296,3.00984 -0.85548,4.5992 -1.726584,1.01608 -5.209248,3.53448 -7.739256,5.59648 -3.864778,3.14976 -4.909282,3.3764 -6.534978,1.41752 z"
       id="path7280"
       inkscape:connector-curvature="0" />
  </g>
</svg>
