<?xml version="1.0" encoding="UTF-8" standalone="no"?>
<svg
   xmlns:dc="http://purl.org/dc/elements/1.1/"
   xmlns:cc="http://creativecommons.org/ns#"
   xmlns:rdf="http://www.w3.org/1999/02/22-rdf-syntax-ns#"
   xmlns:svg="http://www.w3.org/2000/svg"
   xmlns="http://www.w3.org/2000/svg"
   xmlns:sodipodi="http://sodipodi.sourceforge.net/DTD/sodipodi-0.dtd"
   xmlns:inkscape="http://www.inkscape.org/namespaces/inkscape"
   width="700.00232pt"
   height="663.22449pt"
   version="1.1"
   viewBox="0 0 700.00232 663.22448"
   id="svg1218"
   sodipodi:docname="xbox.svg"
   inkscape:version="0.92.5 (2060ec1f9f, 2020-04-08)">
  <defs
     id="defs971" />
  <metadata
     id="metadata1222">
    <rdf:RDF>
      <cc:Work
         rdf:about="">
        <dc:format>image/svg+xml</dc:format>
        <dc:type
           rdf:resource="http://purl.org/dc/dcmitype/StillImage" />
        <dc:title />
      </cc:Work>
    </rdf:RDF>
  </metadata>
  <sodipodi:namedview
     pagecolor="#ffffff"
     bordercolor="#666666"
     borderopacity="1"
     objecttolerance="10"
     gridtolerance="10"
     guidetolerance="10"
     inkscape:pageopacity="0"
     inkscape:pageshadow="2"
     inkscape:window-width="1379"
     inkscape:window-height="1073"
     id="namedview1220"
     showgrid="false"
     inkscape:zoom="0.50357145"
     inkscape:cx="101.40673"
     inkscape:cy="484.50999"
     inkscape:window-x="541"
     inkscape:window-y="88"
     inkscape:window-maximized="0"
     inkscape:current-layer="svg1218"
     fit-margin-top="0"
     fit-margin-left="0"
     fit-margin-right="0"
     fit-margin-bottom="0" />
  <g
     id="dpad-up"
     inkscape:label="#g1033">
    <rect
       ry="0"
       y="409.87778"
       x="228.72734"
       height="31.076929"
       width="37.457199"
       id="rect989"
       style="fill:#000000;fill-opacity:1;stroke:none;stroke-width:13.38750076;stroke-linecap:butt;stroke-linejoin:miter;stroke-miterlimit:4;stroke-dasharray:none;stroke-opacity:1" />
    <rect
       rx="0"
       ry="7.5798001"
       y="403.4483"
       x="228.72734"
       height="37.506401"
       width="37.457199"
       id="rect989-5"
       style="fill:#000000;fill-opacity:1;stroke:none;stroke-width:13.5065403;stroke-linecap:butt;stroke-linejoin:miter;stroke-miterlimit:4;stroke-dasharray:none;stroke-opacity:1" />
  </g>
  <g
     id="dpad-down"
     inkscape:label="#g983">
    <rect
       transform="scale(1,-1)"
       ry="0"
       y="-509.26663"
       x="228.89104"
       height="31.076929"
       width="37.457199"
       id="rect989-56"
       style="fill:#000000;fill-opacity:1;stroke:none;stroke-width:13.38750076;stroke-linecap:butt;stroke-linejoin:miter;stroke-miterlimit:4;stroke-dasharray:none;stroke-opacity:1" />
    <rect
       inkscape:label="#rect989-5-2"
       transform="scale(1,-1)"
       rx="0"
       ry="7.6064038"
       y="-515.82776"
       x="228.89104"
       height="37.638042"
       width="37.457199"
       style="fill:#000000;fill-opacity:1;stroke:none;stroke-width:13.53022289;stroke-linecap:butt;stroke-linejoin:miter;stroke-miterlimit:4;stroke-dasharray:none;stroke-opacity:1"
       id="rect1001" />
  </g>
  <g
     id="dpad-right"
     inkscape:label="#g991">
    <g
       id="g986">
      <rect
         style="fill:#000000;fill-opacity:1;stroke:none;stroke-width:13.38750076;stroke-linecap:butt;stroke-linejoin:miter;stroke-miterlimit:4;stroke-dasharray:none;stroke-opacity:1"
         id="rect989-1"
         width="37.457199"
         height="31.076929"
         x="440.73251"
         y="-297.23007"
         ry="0"
         transform="rotate(90)" />
    </g>
    <rect
       inkscape:label="#rect989-5-27"
       transform="rotate(90)"
       rx="0"
       ry="7.633008"
       y="-303.92285"
       x="440.73251"
       height="37.769688"
       width="37.457199"
       style="fill:#000000;fill-opacity:1;stroke:none;stroke-width:13.55386353;stroke-linecap:butt;stroke-linejoin:miter;stroke-miterlimit:4;stroke-dasharray:none;stroke-opacity:1"
       id="rect1006" />
  </g>
  <g
     id="dpad-left"
     inkscape:label="#g979">
    <rect
       transform="matrix(0,1,1,0,0,0)"
       ry="0"
       y="197.8412"
       x="440.89621"
       height="31.076929"
       width="37.457199"
       id="rect989-56-9"
       style="fill:#000000;fill-opacity:1;stroke:none;stroke-width:13.38750076;stroke-linecap:butt;stroke-linejoin:miter;stroke-miterlimit:4;stroke-dasharray:none;stroke-opacity:1" />
    <rect
       inkscape:label="#rect989-5-2-3"
       transform="matrix(0,1,1,0,0,0)"
       rx="0"
       ry="7.553196"
       y="191.54337"
       x="440.89621"
       height="37.37476"
       width="37.457199"
       style="fill:#000000;fill-opacity:1;stroke:none;stroke-width:13.4828167;stroke-linecap:butt;stroke-linejoin:miter;stroke-miterlimit:4;stroke-dasharray:none;stroke-opacity:1"
       id="rect1010" />
  </g>
  <circle
     style="fill:#000300;fill-opacity:0;stroke:#0c0000;stroke-width:6.73725033;stroke-linecap:butt;stroke-linejoin:miter;stroke-miterlimit:4;stroke-dasharray:none;stroke-opacity:1"
     id="path1828"
     cx="156.9724"
     cy="332.98386"
     r="59.946808" />
  <circle
     style="fill:#000000;fill-opacity:1;stroke:none;stroke-width:13.38750076;stroke-linecap:butt;stroke-linejoin:miter;stroke-miterlimit:4;stroke-dasharray:none;stroke-opacity:1"
     id="l-stick"
     cx="156.9724"
     cy="332.98386"
     r="49.553608"
     inkscape:transform-center-x="-89.734039"
     inkscape:transform-center-y="-5.5851061"
     inkscape:label="#path1824" />
  <circle
     style="fill:#000000;fill-opacity:1;stroke:none;stroke-width:13.38750076;stroke-linecap:butt;stroke-linejoin:miter;stroke-miterlimit:4;stroke-dasharray:none;stroke-opacity:1"
     id="x-button"
     r="22.669527"
     cy="332.57605"
     cx="497.71909"
     inkscape:label="#path951" />
  <circle
     style="fill:#000000;fill-opacity:1;stroke:none;stroke-width:13.38750076;stroke-linecap:butt;stroke-linejoin:miter;stroke-miterlimit:4;stroke-dasharray:none;stroke-opacity:1"
     id="y-button"
     r="22.669527"
     cy="290.66788"
     cx="539.67163"
     inkscape:label="#path951-3" />
  <circle
     style="fill:#000000;fill-opacity:1;stroke:none;stroke-width:13.38750076;stroke-linecap:butt;stroke-linejoin:miter;stroke-miterlimit:4;stroke-dasharray:none;stroke-opacity:1"
     id="b-button"
     r="22.669527"
     cy="332.57605"
     cx="581.46802"
     inkscape:label="#path951-3-6" />
  <circle
     style="fill:#000000;fill-opacity:1;stroke:none;stroke-width:13.38750076;stroke-linecap:butt;stroke-linejoin:miter;stroke-miterlimit:4;stroke-dasharray:none;stroke-opacity:1"
     id="a-button"
     r="22.669527"
     cy="374.52399"
     cx="539.67163"
     inkscape:label="#path951-3-7" />
  <rect
     style="fill:#000000;fill-opacity:1;stroke:none;stroke-width:6.73724985;stroke-linecap:butt;stroke-linejoin:miter;stroke-miterlimit:4;stroke-dasharray:none;stroke-opacity:1"
     id="start-button"
     width="61.081989"
     height="32.647289"
     x="388.9165"
     y="324.76321"
     ry="16.323645"
     inkscape:label="#rect1848" />
  <rect
     style="fill:#000000;fill-opacity:1;stroke:none;stroke-width:6.73724985;stroke-linecap:butt;stroke-linejoin:miter;stroke-miterlimit:4;stroke-dasharray:none;stroke-opacity:1"
     id="select-button"
     width="61.081989"
     height="32.647289"
     x="247.79602"
     y="324.76321"
     ry="16.323645"
     inkscape:label="#rect1848-6" />
  <circle
     style="fill:#000000;fill-opacity:1;stroke:none;stroke-width:6.73724985;stroke-linecap:butt;stroke-linejoin:miter;stroke-miterlimit:4;stroke-dasharray:none;stroke-opacity:1"
     id="home-button"
     cx="348.89725"
     cy="274.47589"
     r="40.019234"
     inkscape:label="#path1865" />
  <rect
     style="fill:#000000;fill-opacity:1;stroke:none;stroke-width:6.73724985;stroke-linecap:butt;stroke-linejoin:miter;stroke-miterlimit:4;stroke-dasharray:none;stroke-opacity:1"
     id="l-button"
     width="61.081989"
     height="32.647289"
     x="129.53667"
     y="117.95143"
     ry="16.323645"
     inkscape:label="#rect1848-6-2" />
  <rect
     style="fill:#000000;fill-opacity:1;stroke:none;stroke-width:11.85597706;stroke-linecap:butt;stroke-linejoin:miter;stroke-miterlimit:4;stroke-dasharray:none;stroke-opacity:1"
     id="l-trigger"
     width="61.081989"
     height="101.10124"
     x="129.53667"
     y="-2.8515624e-06"
     ry="25.275316"
     inkscape:label="#rect1848-6-6" />
  <rect
     style="fill:#000000;fill-opacity:1;stroke:none;stroke-width:6.73724985;stroke-linecap:butt;stroke-linejoin:miter;stroke-miterlimit:4;stroke-dasharray:none;stroke-opacity:1"
     id="r-button"
     width="61.081989"
     height="32.647289"
     x="507.17584"
     y="117.95143"
     ry="16.323645"
     inkscape:label="#rect1848-6-2-1" />
  <rect
     style="fill:#000000;fill-opacity:1;stroke:none;stroke-width:11.85597706;stroke-linecap:butt;stroke-linejoin:miter;stroke-miterlimit:4;stroke-dasharray:none;stroke-opacity:1"
     id="r-trigger"
     width="61.081989"
     height="101.10124"
     x="507.17584"
     y="1.7456055e-06"
     ry="25.275316"
     inkscape:label="#rect1848-6-6-8" />
  <circle
     style="fill:#000300;fill-opacity:0;stroke:#0c0000;stroke-width:6.73724985;stroke-linecap:butt;stroke-linejoin:miter;stroke-miterlimit:4;stroke-dasharray:none;stroke-opacity:1"
     id="path1828-6"
     cx="438.24899"
     cy="459.62863"
     r="59.946808" />
  <circle
     style="fill:#000000;fill-opacity:1;stroke:none;stroke-width:13.38750076;stroke-linecap:butt;stroke-linejoin:miter;stroke-miterlimit:4;stroke-dasharray:none;stroke-opacity:1"
     id="r-stick"
     cx="438.24899"
     cy="459.62863"
     r="49.553604"
     inkscape:transform-center-x="-89.734039"
     inkscape:transform-center-y="-5.5851061"
     inkscape:label="#path1824-0" />
  <rect
     style="fill:#000000;fill-opacity:1;stroke:none;stroke-width:6.73724985;stroke-linecap:butt;stroke-linejoin:miter;stroke-miterlimit:4;stroke-dasharray:none;stroke-opacity:1"
     id="rect2079"
     width="37.620907"
     height="37.235016"
     x="228.72734"
     y="440.95471"
     ry="0" />
  <path
     inkscape:connector-curvature="0"
     id="path1130"
     d="m 41.160333,658.51691 c 57.43,19.207 97.679997,-24.695 124.289997,-53.641 l 6.1445,-6.6406 c 25.711,-27.438 71.805,-48.098 107.23,-48.098 h 142.29 c 35.422,0 81.52,20.688 107.23,48.098 l 6.1445,6.6406 c 22.086,24.062 53.559,58.332 96.473,58.332 h 0.008 c 9.4766,-0.043 18.883,-1.6289 27.852,-4.6914 80.203,-26.727 18.656,-324.12 18,-327.12 -19.785,-89.941 -56.305,-132.96 -83.441,-153.32 -30.184,-22.691 -92.492,-19.977 -115.24,-1.4531 -14.434,11.879 -50.734,30.922 -74.523,33.691 -23.789,2.7695 -73.258,5.1602 -107.01,0 -30.457,-4.5273 -59.348,-20.988 -74.852,-33.695 -22.637,-18.52 -84.867,-21.238 -115.24,1.4531 -26.944994,20.363 -63.546994,63.387 -83.331994,153.41 -0.65625,2.9883 -62.199,300.39 17.973,327.04 z m 0,-323.09 c 18.605,-84.371 51.887,-124.16 76.526997,-142.59 24.035,-18.027 77.375,-14.215 92.383,-1.9219 18.137,14.816 49.691,32.516 83.879,37.699 35.422,5.4883 87.391,2.8828 111.78,0 27.438,-3.1836 67.551,-24.117 84.207,-37.727 15.008,-12.293 68.348,-16.078 92.383,1.9219 24.695,18.492 57.895,58.223 76.469,142.68 25.984,118.18 36.355,291.61 -5.8164,305.66 -46.125,15.367 -80.062,-21.621 -104.87,-48.621 -2.168,-2.3594 -4.2539,-4.6367 -6.2578,-6.7773 -25.133,-26.809 -74.66,-53.941 -120.73,-53.941 l -142.27,-0.004 c -46.043,0 -95.566,27.137 -120.73,53.941 l -6.2852,6.7773 c -24.695,27 -58.772997,63.984 -104.839997,48.621 -42.1449992,-14.102 -31.773,-187.54 -5.8438,-305.71 z"
     style="fill:#000000;fill-opacity:1" />
</svg>
